<svg fill="none" viewBox="0 0 40 40" xmlns="http://www.w3.org/2000/svg"><path fill="#AE5EFF" fill-opacity=".2" d="M0 0h40v40H0z"/><g clip-path="url(#a)"><path d="M23.651 8.192h-13.21a3.44 3.44 0 0 0-3.44 3.438v6.01a3.44 3.44 0 0 0 3.44 3.439h13.21c1.9 0 3.44-1.54 3.44-3.438V11.63a3.44 3.44 0 0 0-3.44-3.438z" fill="#CA95FF"/><path d="M7.431 12.914h22.128a3.44 3.44 0 0 1 3.44 3.438v12.022a3.44 3.44 0 0 1-3.44 3.438H10.44A3.44 3.44 0 0 1 7 28.374V13.345c0-.24.191-.43.43-.43z" fill="#A64EFF"/></g><g filter="url(#b)"><rect x="18" y="18" width="16" height="16" rx="6" fill="url(#c)" shape-rendering="crispEdges"/><mask id="d" x="21" y="20" width="10" height="12" style="mask-type:luminance" maskUnits="userSpaceOnUse"><path d="m30.442 25.578-2.961 2.96 2.961 2.962h-3.385l-2.961-2.961 2.961-2.961h3.385zm-3.385-5.077-5.5 5.5 1.693 1.692 7.192-7.193h-3.385z" fill="#fff"/></mask><g mask="url(#d)"><path d="M30.442 25.578h-3.385l-2.96 2.962 1.691 1.692 4.654-4.654z" fill="#fff"/></g><mask id="e" x="21" y="20" width="10" height="12" style="mask-type:luminance" maskUnits="userSpaceOnUse"><path d="m30.442 25.578-2.961 2.96 2.961 2.962h-3.385l-2.961-2.961 2.961-2.961h3.385zm-3.385-5.077-5.5 5.5 1.693 1.692 7.192-7.193h-3.385z" fill="#fff"/></mask><g mask="url(#e)"><path d="M23.25 27.693 21.557 26l5.5-5.5h3.385l-7.192 7.193z" fill="#fff"/></g><mask id="f" x="21" y="20" width="10" height="12" style="mask-type:luminance" maskUnits="userSpaceOnUse"><path d="m30.442 25.578-2.961 2.96 2.961 2.962h-3.385l-2.961-2.961 2.961-2.961h3.385zm-3.385-5.077-5.5 5.5 1.693 1.692 7.192-7.193h-3.385z" fill="#fff"/></mask><g mask="url(#f)"><path d="m25.789 30.231 1.269 1.269h3.385l-2.963-2.961-1.691 1.692z" fill="#fff"/></g><mask id="g" x="21" y="20" width="10" height="12" style="mask-type:luminance" maskUnits="userSpaceOnUse"><path d="m30.442 25.578-2.961 2.96 2.961 2.962h-3.385l-2.961-2.961 2.961-2.961h3.385zm-3.385-5.077-5.5 5.5 1.693 1.692 7.192-7.193h-3.385z" fill="#fff"/></mask><g mask="url(#g)"><path d="m25.789 30.231 2.51-.869-.819-.823-1.691 1.692z" fill="#fff"/></g><mask id="h" x="21" y="20" width="10" height="12" style="mask-type:luminance" maskUnits="userSpaceOnUse"><path d="m30.442 25.578-2.961 2.96 2.961 2.962h-3.385l-2.961-2.961 2.961-2.961h3.385zm-3.385-5.077-5.5 5.5 1.693 1.692 7.192-7.193h-3.385z" fill="#fff"/></mask><g mask="url(#h)"><path d="m25.788 26.847-1.692 1.692 1.692 1.692 1.692-1.692-1.692-1.692z" fill="#fff"/></g><path d="m30.442 25.578-2.961 2.96 2.961 2.962h-3.385l-2.961-2.961 2.961-2.961h3.385zm-3.385-5.077-5.5 5.5 1.693 1.692 7.192-7.193h-3.385z" fill="url(#i)"/></g><defs><radialGradient id="i" cx="0" cy="0" r="1" gradientTransform="translate(22.411 21.56) scale(13.542)" gradientUnits="userSpaceOnUse"><stop stop-color="#fff" stop-opacity=".1" offset="0"/><stop stop-color="#fff" stop-opacity="0" offset="1"/></radialGradient><linearGradient id="c" x1="27.5" x2="28" y1="36" y2="15" gradientUnits="userSpaceOnUse"><stop stop-color="#055A9D" offset="0"/><stop stop-color="#5FC9F8" offset="1"/></linearGradient><clipPath id="a"><path transform="translate(7 8.192)" fill="#fff" d="M0 0h26v23.617H0z"/></clipPath><filter id="b" x="16" y="16" width="24" height="24" color-interpolation-filters="sRGB" filterUnits="userSpaceOnUse"><feFlood flood-opacity="0" result="BackgroundImageFix"/><feColorMatrix in="SourceAlpha" result="hardAlpha" values="0 0 0 0 0 0 0 0 0 0 0 0 0 0 0 0 0 0 127 0"/><feOffset dx="2" dy="2"/><feGaussianBlur stdDeviation="2"/><feComposite in2="hardAlpha" operator="out"/><feColorMatrix values="0 0 0 0 0 0 0 0 0 0 0 0 0 0 0 0 0 0 0.25 0"/><feBlend in2="BackgroundImageFix" result="effect1_dropShadow_21789_4339"/><feBlend in="SourceGraphic" in2="effect1_dropShadow_21789_4339" result="shape"/></filter></defs></svg>