<?xml version="1.0" encoding="UTF-8"?>
<svg width="10px" height="10px" viewBox="0 0 10 10" version="1.1" xmlns="http://www.w3.org/2000/svg" xmlns:xlink="http://www.w3.org/1999/xlink">
    <!-- Generator: Sketch 49.2 (51160) - http://www.bohemiancoding.com/sketch -->
    <title>cross</title>
    <desc>Created with Sketch.</desc>
    <defs></defs>
    <g id="Page-1" stroke="none" stroke-width="1" fill="none" fill-rule="evenodd" fill-opacity="0.48999998">
        <g id="Artboard-3" transform="translate(-3592.000000, -589.000000)" fill="#929292">
            <g id="Group-25" transform="translate(3198.000000, 513.000000)">
                <g id="Group-19" transform="translate(0.000000, 65.000000)">
                    <path d="M399,15.0452853 L402.847757,11.197528 C403.110753,10.9345325 403.535835,10.9332147 403.80131,11.1986899 C404.064947,11.462327 404.060061,11.8946535 403.802472,12.1522426 L399.954715,16 L403.802472,19.8477574 C404.060061,20.1053465 404.064947,20.537673 403.80131,20.8013101 C403.535835,21.0667853 403.110753,21.0654675 402.847757,20.802472 L399,16.9547147 L395.152243,20.802472 C394.889247,21.0654675 394.464165,21.0667853 394.19869,20.8013101 C393.935053,20.537673 393.939939,20.1053465 394.197528,19.8477574 L398.045285,16 L394.197528,12.1522426 C393.939939,11.8946535 393.935053,11.462327 394.19869,11.1986899 C394.464165,10.9332147 394.889247,10.9345325 395.152243,11.197528 L399,15.0452853 Z" id="cross"></path>
                </g>
            </g>
        </g>
    </g>
</svg>