<?xml version="1.0" encoding="UTF-8"?>
<svg width="17px" height="17px" viewBox="0 0 17 17" version="1.1" xmlns="http://www.w3.org/2000/svg" xmlns:xlink="http://www.w3.org/1999/xlink">
    <!-- Generator: Sketch 49.2 (51160) - http://www.bohemiancoding.com/sketch -->
    <title>ledger-icon</title>
    <desc>Created with Sketch.</desc>
    <defs></defs>
    <g id="Page-1" stroke="none" stroke-width="1" fill="none" fill-rule="evenodd">
        <g id="Artboard-3" transform="translate(-3885.000000, -663.000000)" fill="#FFFFFF" fill-rule="nonzero">
            <g id="Group-22" transform="translate(3869.000000, 656.000000)">
                <path d="M30.3124054,7 C31.7912254,7 33,8.2560945 32.9957136,9.73008294 L32.9957249,17.4930887 L22.46823,17.4930887 L22.46823,7 L30.3124054,7 Z M20.0592537,7 L20.0592537,11.0459915 L16,11.0459915 L16,9.73435537 C16,8.2005529 17.2644982,7 18.7433182,7 L20.0592537,7 Z M16,13.5026389 L20.0592537,13.5026389 L20.0592537,17.5486303 L16,17.5486303 L16,13.5026389 Z M28.9407463,23.9957276 L28.9407463,19.9540085 L33,19.9540085 L33,21.2613722 C33,22.7951747 31.7355018,23.9957276 30.2566818,23.9957276 L28.9407463,23.9957276 Z M22.46823,19.9540085 L26.5274836,19.9540085 L26.5274836,24 L22.46823,24 L22.46823,19.9540085 Z M16,19.9540085 L20.0592537,19.9540085 L20.0592537,24 L18.7433182,24 C17.2044881,24 16,22.7396331 16,21.2656446 L16,19.9540085 Z" id="ledger-icon"></path>
            </g>
        </g>
    </g>
</svg>