<?xml version="1.0" encoding="UTF-8"?>
<svg width="13px" height="18px" viewBox="0 0 13 18" version="1.1" xmlns="http://www.w3.org/2000/svg" xmlns:xlink="http://www.w3.org/1999/xlink">
    <!-- Generator: Sketch 49.2 (51160) - http://www.bohemiancoding.com/sketch -->
    <title>trezor-icon</title>
    <desc>Created with Sketch.</desc>
    <defs></defs>
    <g id="Page-1" stroke="none" stroke-width="1" fill="none" fill-rule="evenodd">
        <g id="Artboard-3" transform="translate(-3883.000000, -747.000000)" fill="#FFFFFF" fill-rule="nonzero">
            <g id="Group-20" transform="translate(3867.000000, 741.000000)">
                <path d="M22.5104586,6 C19.9193484,6 17.8224055,7.99833887 17.8224055,10.467608 L17.8224055,12.1420266 C16.9125101,12.2990033 16,12.5083056 16,12.7799003 L16,21.5182724 C16,21.5182724 16,21.7599668 16.284996,21.8745847 C17.3177796,22.2732558 21.3809332,23.6436877 22.3143604,23.9576412 C22.434634,24 22.4686243,24 22.5,24 C22.5444489,24 22.565366,24 22.6856396,23.9576412 C23.6190668,23.6436877 27.692679,22.2732558 28.7254626,21.8745847 C28.9895414,21.7699336 29,21.5282392 29,21.5282392 L29,12.7799003 C29,12.5083056 28.1005632,12.2890365 27.1880531,12.1420266 L27.1880531,10.467608 C27.2011263,7.99833887 25.0911102,6 22.5104586,6 Z M22.5104586,8.13538206 C24.0374095,8.13538206 24.9603781,9.01495017 24.9603781,10.4700997 L24.9603781,11.9252492 C23.2477876,11.8106312 21.7862027,11.8106312 20.0631537,11.9252492 L20.0631537,10.4700997 C20.0631537,9.01245847 20.9861223,8.13538206 22.5104586,8.13538206 Z M22.5,14.0681063 C24.6309332,14.0681063 26.4193484,14.2250831 26.4193484,14.5066445 L26.4193484,19.9584718 C26.4193484,20.0431894 26.4088898,20.0531561 26.3304505,20.0830565 C26.2546259,20.1154485 22.6960981,21.3388704 22.6960981,21.3388704 C22.6960981,21.3388704 22.5522928,21.3812292 22.5104586,21.3812292 C22.4660097,21.3812292 22.324819,21.3289037 22.324819,21.3289037 C22.324819,21.3289037 18.7662912,20.1054817 18.6904666,20.0730897 C18.614642,20.0406977 18.6015688,20.0307309 18.6015688,19.948505 L18.6015688,14.4966777 C18.5806516,14.2151163 20.3690668,14.0681063 22.5,14.0681063 Z" id="trezor-icon"></path>
            </g>
        </g>
    </g>
</svg>