<?xml version="1.0" encoding="utf-8"?>
<svg fill="none" viewBox="2.778 0 70.891 65.559" style="max-height: 500px" width="50px" height="50px" preserveAspectRatio="none" xmlns="http://www.w3.org/2000/svg"><defs/><path fill="#202020" d="M 29.95 24.772 C 29.95 18.37 35.139 13.18 41.541 13.18 L 58.101 13.18 C 64.503 13.18 69.693 18.37 69.693 24.772 L 69.693 41.331 C 69.693 47.733 64.503 52.923 58.101 52.923 L 41.541 52.923 C 35.139 52.923 29.95 47.733 29.95 41.331 L 29.95 24.772 Z" style=""/><path fill="white" d="M 45.529 40.503 L 51.34 24.772 L 53.046 24.772 L 47.235 40.503 L 45.529 40.503 Z" style=""/><path fill="#202020" d="M 6.766 23.944 C 6.766 17.999 11.585 13.18 17.53 13.18 C 23.474 13.18 28.294 17.999 28.294 23.944 L 28.294 42.159 C 28.294 48.104 23.474 52.923 17.53 52.923 C 11.585 52.923 6.766 48.104 6.766 42.159 L 6.766 23.944 Z" style=""/><path fill="white" d="M 16.495 38.019 L 16.495 35.949 L 18.565 35.949 L 18.565 38.019 L 16.495 38.019 Z" style=""/></svg>