<svg fill="none" viewBox="0 0 40 40" xmlns="http://www.w3.org/2000/svg"><path d="M0 0h40v40H0z" fill="#AE5EFF" fill-opacity=".2"/><g clip-path="url(#a)"><path d="M23.65 8.192H10.44A3.44 3.44 0 0 0 7 11.63v6.01a3.44 3.44 0 0 0 3.44 3.439h13.21a3.44 3.44 0 0 0 3.441-3.438V11.63a3.44 3.44 0 0 0-3.44-3.438Z" fill="#CA95FF"/><path d="M7.431 12.914h22.128A3.44 3.44 0 0 1 33 16.352v12.022a3.44 3.44 0 0 1-3.44 3.438H10.44A3.44 3.44 0 0 1 7 28.374v-15.03a.43.43 0 0 1 .431-.43Z" fill="#A64EFF"/></g><g filter="url(#b)"><rect x="18" y="18" width="16" height="16" rx="6" fill="url(#c)" shape-rendering="crispEdges"/><g clip-path="url(#d)" fill="#fff"><path d="m21 31 5.017-5.017L31 31H21Z" fill-opacity=".75"/><path d="M21 21h5.017L21 26.417V21Z"/><path d="M26.017 21 21 26.283V31l10-10h-4.983z" fill-opacity=".6"/></g></g><defs><clipPath id="a"><path transform="translate(7 8.192)" d="M0 0h26v23.617H0z" fill="#fff"/></clipPath><clipPath id="d"><rect x="21" y="21" width="10" height="10" rx="2" fill="#fff"/></clipPath><linearGradient id="c" x1="26" x2="28" y1="30.5" y2="15" gradientUnits="userSpaceOnUse"><stop stop-color="#D16197" offset="0"/><stop stop-color="#F88909" offset="1"/></linearGradient><filter id="b" x="16" y="16" width="24" height="24" color-interpolation-filters="sRGB" filterUnits="userSpaceOnUse"><feFlood flood-opacity="0" result="BackgroundImageFix"/><feColorMatrix in="SourceAlpha" result="hardAlpha" values="0 0 0 0 0 0 0 0 0 0 0 0 0 0 0 0 0 0 127 0"/><feOffset dx="2" dy="2"/><feGaussianBlur stdDeviation="2"/><feComposite in2="hardAlpha" operator="out"/><feColorMatrix values="0 0 0 0 0 0 0 0 0 0 0 0 0 0 0 0 0 0 0.25 0"/><feBlend in2="BackgroundImageFix" result="effect1_dropShadow_21789_4328"/><feBlend in="SourceGraphic" in2="effect1_dropShadow_21789_4328" result="shape"/></filter></defs></svg>