<svg fill="none" viewBox="0 0 40 40" xmlns="http://www.w3.org/2000/svg"><path fill="#AE5EFF" fill-opacity=".2" d="M0 0h40v40H0z"/><g clip-path="url(#a)"><path d="M23.651 8.192h-13.21a3.44 3.44 0 0 0-3.44 3.438v6.01a3.44 3.44 0 0 0 3.44 3.439h13.21c1.9 0 3.44-1.54 3.44-3.438V11.63a3.44 3.44 0 0 0-3.44-3.438z" fill="#CA95FF"/><path d="M7.431 12.914h22.128a3.44 3.44 0 0 1 3.44 3.438v12.022a3.44 3.44 0 0 1-3.44 3.438H10.44A3.44 3.44 0 0 1 7 28.374V13.345c0-.24.191-.43.43-.43z" fill="#A64EFF"/></g><g filter="url(#b)"><rect x="18" y="18" width="16" height="16" rx="6" fill="#61DAFB" shape-rendering="crispEdges"/><rect x="18" y="18" width="16" height="16" rx="6" fill="#000" fill-opacity=".4" shape-rendering="crispEdges"/><mask id="c" x="19.394" y="20" width="13" height="12" fill="#000" maskUnits="userSpaceOnUse"><path fill="#fff" d="M19.394 20h13v12h-13z"/><path d="M24.98 24.234A13.629 13.629 0 0 0 23.96 26a13.635 13.635 0 0 0 1.02 1.766 13.647 13.647 0 0 0 2.04 0A13.72 13.72 0 0 0 28.038 26a13.68 13.68 0 0 0-1.02-1.766 13.65 13.65 0 0 0-2.039 0zm-.625.062a14.44 14.44 0 0 0-.653 1.131c-.139-.329-.257-.65-.353-.957.314-.07.651-.13 1.006-.174zm.992-.572a14.301 14.301 0 0 1 1.305 0 10.79 10.79 0 0 0-.652-.785c-.219.237-.438.5-.653.785zm.313-1.135c-.321.347-.641.743-.95 1.178-.53.05-1.033.128-1.495.233a6.909 6.909 0 0 1-.124-.598c-.08-.496-.082-.914-.014-1.231.068-.318.2-.509.363-.604.165-.095.395-.112.704-.012.31.1.67.31 1.06.627.15.121.302.257.456.407zm.68 0c.32.347.64.743.949 1.178.53.05 1.034.128 1.495.233a6.91 6.91 0 0 0 .125-.598c.079-.496.08-.914.013-1.231-.068-.318-.199-.509-.363-.604-.164-.095-.395-.112-.704-.012-.31.1-.67.31-1.06.627-.15.121-.302.257-.455.407zm2.916 1.53c.056-.22.1-.435.134-.64.085-.53.093-1.013.009-1.41-.085-.397-.271-.736-.596-.924-.326-.188-.712-.18-1.098-.054-.387.125-.8.374-1.217.712a7.379 7.379 0 0 0-.488.436 7.405 7.405 0 0 0-.489-.436c-.416-.338-.83-.587-1.217-.712-.386-.125-.772-.134-1.097.054-.326.188-.511.526-.596.924-.085.397-.077.88.008 1.41.033.205.078.42.134.64-.22.063-.428.131-.622.206-.501.191-.924.425-1.226.697-.301.272-.501.602-.501.978s.2.706.501.978c.302.272.725.506 1.226.697.194.074.402.143.622.205a7.37 7.37 0 0 0-.134.641c-.085.53-.093 1.013-.008 1.41.085.397.27.736.596.924.325.188.71.18 1.097.054.387-.125.8-.374 1.217-.712.162-.131.325-.277.489-.436.163.159.327.305.488.436.416.338.83.587 1.217.712.386.125.772.134 1.098-.054.325-.188.51-.527.596-.924.084-.397.076-.88-.01-1.41a7.405 7.405 0 0 0-.133-.64c.22-.063.428-.132.622-.206.502-.191.924-.425 1.226-.697.301-.272.502-.602.502-.978s-.2-.706-.502-.978-.724-.506-1.226-.697a7.385 7.385 0 0 0-.622-.205zm-.606.35c-.314-.07-.651-.128-1.005-.173a14.314 14.314 0 0 1 .652 1.131c.14-.329.257-.65.354-.958zM28.579 26c.223-.485.406-.96.546-1.411.206.058.4.122.58.191.47.179.832.386 1.073.604.241.218.341.426.341.616s-.1.398-.341.616c-.241.218-.604.425-1.073.604a6.91 6.91 0 0 1-.58.191A11.68 11.68 0 0 0 28.578 26zm-.28.573a14.328 14.328 0 0 1-.654 1.13c.355-.044.692-.102 1.006-.173a10.777 10.777 0 0 0-.353-.957zM28.783 28a11.67 11.67 0 0 1-1.495.233c-.309.435-.628.831-.95 1.178.154.15.307.286.456.407.39.317.75.527 1.06.627.309.1.54.083.704-.012.164-.095.295-.286.363-.604.068-.317.066-.735-.013-1.23a6.91 6.91 0 0 0-.125-.599zM26 29.061c.218-.238.437-.5.653-.785a14.3 14.3 0 0 1-1.306 0c.215.285.434.547.653.785zm-1.645-1.357a14.44 14.44 0 0 1-.653-1.131c-.139.329-.257.65-.353.957.314.07.651.13 1.006.174zm-1.14.296c.462.105.964.183 1.496.233.308.435.628.831.949 1.178-.154.15-.307.286-.456.407-.39.317-.75.527-1.06.627-.309.1-.54.083-.704-.012-.164-.095-.295-.286-.363-.604-.068-.317-.066-.735.014-1.23.03-.191.072-.391.124-.599zm-.34-.589a6.885 6.885 0 0 1-.58-.191c-.469-.179-.832-.386-1.073-.604s-.34-.426-.34-.616.099-.398.34-.616.604-.425 1.073-.604c.18-.069.374-.133.58-.191.14.452.323.926.547 1.411-.224.485-.407.96-.547 1.411zM26 25.244a.756.756 0 1 0 0 1.512.756.756 0 0 0 0-1.512zM24.757 26a1.243 1.243 0 1 1 2.486 0 1.243 1.243 0 0 1-2.486 0z" clip-rule="evenodd" fill-rule="evenodd"/></mask><path d="M24.98 24.234A13.629 13.629 0 0 0 23.96 26a13.635 13.635 0 0 0 1.02 1.766 13.647 13.647 0 0 0 2.04 0A13.72 13.72 0 0 0 28.038 26a13.68 13.68 0 0 0-1.02-1.766 13.65 13.65 0 0 0-2.039 0zm-.625.062a14.44 14.44 0 0 0-.653 1.131c-.139-.329-.257-.65-.353-.957.314-.07.651-.13 1.006-.174zm.992-.572a14.301 14.301 0 0 1 1.305 0 10.79 10.79 0 0 0-.652-.785c-.219.237-.438.5-.653.785zm.313-1.135c-.321.347-.641.743-.95 1.178-.53.05-1.033.128-1.495.233a6.909 6.909 0 0 1-.124-.598c-.08-.496-.082-.914-.014-1.231.068-.318.2-.509.363-.604.165-.095.395-.112.704-.012.31.1.67.31 1.06.627.15.121.302.257.456.407zm.68 0c.32.347.64.743.949 1.178.53.05 1.034.128 1.495.233a6.91 6.91 0 0 0 .125-.598c.079-.496.08-.914.013-1.231-.068-.318-.199-.509-.363-.604-.164-.095-.395-.112-.704-.012-.31.1-.67.31-1.06.627-.15.121-.302.257-.455.407zm2.916 1.53c.056-.22.1-.435.134-.64.085-.53.093-1.013.009-1.41-.085-.397-.271-.736-.596-.924-.326-.188-.712-.18-1.098-.054-.387.125-.8.374-1.217.712a7.379 7.379 0 0 0-.488.436 7.405 7.405 0 0 0-.489-.436c-.416-.338-.83-.587-1.217-.712-.386-.125-.772-.134-1.097.054-.326.188-.511.526-.596.924-.085.397-.077.88.008 1.41.033.205.078.42.134.64-.22.063-.428.131-.622.206-.501.191-.924.425-1.226.697-.301.272-.501.602-.501.978s.2.706.501.978c.302.272.725.506 1.226.697.194.074.402.143.622.205a7.37 7.37 0 0 0-.134.641c-.085.53-.093 1.013-.008 1.41.085.397.27.736.596.924.325.188.71.18 1.097.054.387-.125.8-.374 1.217-.712.162-.131.325-.277.489-.436.163.159.327.305.488.436.416.338.83.587 1.217.712.386.125.772.134 1.098-.054.325-.188.51-.527.596-.924.084-.397.076-.88-.01-1.41a7.405 7.405 0 0 0-.133-.64c.22-.063.428-.132.622-.206.502-.191.924-.425 1.226-.697.301-.272.502-.602.502-.978s-.2-.706-.502-.978-.724-.506-1.226-.697a7.385 7.385 0 0 0-.622-.205zm-.606.35c-.314-.07-.651-.128-1.005-.173a14.314 14.314 0 0 1 .652 1.131c.14-.329.257-.65.354-.958zM28.579 26c.223-.485.406-.96.546-1.411.206.058.4.122.58.191.47.179.832.386 1.073.604.241.218.341.426.341.616s-.1.398-.341.616c-.241.218-.604.425-1.073.604a6.91 6.91 0 0 1-.58.191A11.68 11.68 0 0 0 28.578 26zm-.28.573a14.328 14.328 0 0 1-.654 1.13c.355-.044.692-.102 1.006-.173a10.777 10.777 0 0 0-.353-.957zM28.783 28a11.67 11.67 0 0 1-1.495.233c-.309.435-.628.831-.95 1.178.154.15.307.286.456.407.39.317.75.527 1.06.627.309.1.54.083.704-.012.164-.095.295-.286.363-.604.068-.317.066-.735-.013-1.23a6.91 6.91 0 0 0-.125-.599zM26 29.061c.218-.238.437-.5.653-.785a14.3 14.3 0 0 1-1.306 0c.215.285.434.547.653.785zm-1.645-1.357a14.44 14.44 0 0 1-.653-1.131c-.139.329-.257.65-.353.957.314.07.651.13 1.006.174zm-1.14.296c.462.105.964.183 1.496.233.308.435.628.831.949 1.178-.154.15-.307.286-.456.407-.39.317-.75.527-1.06.627-.309.1-.54.083-.704-.012-.164-.095-.295-.286-.363-.604-.068-.317-.066-.735.014-1.23.03-.191.072-.391.124-.599zm-.34-.589a6.885 6.885 0 0 1-.58-.191c-.469-.179-.832-.386-1.073-.604s-.34-.426-.34-.616.099-.398.34-.616.604-.425 1.073-.604c.18-.069.374-.133.58-.191.14.452.323.926.547 1.411-.224.485-.407.96-.547 1.411zM26 25.244a.756.756 0 1 0 0 1.512.756.756 0 0 0 0-1.512zM24.757 26a1.243 1.243 0 1 1 2.486 0 1.243 1.243 0 0 1-2.486 0z" clip-rule="evenodd" fill="#fff" fill-rule="evenodd"/><path d="M24.98 24.234A13.629 13.629 0 0 0 23.96 26a13.635 13.635 0 0 0 1.02 1.766 13.647 13.647 0 0 0 2.04 0A13.72 13.72 0 0 0 28.038 26a13.68 13.68 0 0 0-1.02-1.766 13.65 13.65 0 0 0-2.039 0zm-.625.062a14.44 14.44 0 0 0-.653 1.131c-.139-.329-.257-.65-.353-.957.314-.07.651-.13 1.006-.174zm.992-.572a14.301 14.301 0 0 1 1.305 0 10.79 10.79 0 0 0-.652-.785c-.219.237-.438.5-.653.785zm.313-1.135c-.321.347-.641.743-.95 1.178-.53.05-1.033.128-1.495.233a6.909 6.909 0 0 1-.124-.598c-.08-.496-.082-.914-.014-1.231.068-.318.2-.509.363-.604.165-.095.395-.112.704-.012.31.1.67.31 1.06.627.15.121.302.257.456.407zm.68 0c.32.347.64.743.949 1.178.53.05 1.034.128 1.495.233a6.91 6.91 0 0 0 .125-.598c.079-.496.08-.914.013-1.231-.068-.318-.199-.509-.363-.604-.164-.095-.395-.112-.704-.012-.31.1-.67.31-1.06.627-.15.121-.302.257-.455.407zm2.916 1.53c.056-.22.1-.435.134-.64.085-.53.093-1.013.009-1.41-.085-.397-.271-.736-.596-.924-.326-.188-.712-.18-1.098-.054-.387.125-.8.374-1.217.712a7.379 7.379 0 0 0-.488.436 7.405 7.405 0 0 0-.489-.436c-.416-.338-.83-.587-1.217-.712-.386-.125-.772-.134-1.097.054-.326.188-.511.526-.596.924-.085.397-.077.88.008 1.41.033.205.078.42.134.64-.22.063-.428.131-.622.206-.501.191-.924.425-1.226.697-.301.272-.501.602-.501.978s.2.706.501.978c.302.272.725.506 1.226.697.194.074.402.143.622.205a7.37 7.37 0 0 0-.134.641c-.085.53-.093 1.013-.008 1.41.085.397.27.736.596.924.325.188.71.18 1.097.054.387-.125.8-.374 1.217-.712.162-.131.325-.277.489-.436.163.159.327.305.488.436.416.338.83.587 1.217.712.386.125.772.134 1.098-.054.325-.188.51-.527.596-.924.084-.397.076-.88-.01-1.41a7.405 7.405 0 0 0-.133-.64c.22-.063.428-.132.622-.206.502-.191.924-.425 1.226-.697.301-.272.502-.602.502-.978s-.2-.706-.502-.978-.724-.506-1.226-.697a7.385 7.385 0 0 0-.622-.205zm-.606.35c-.314-.07-.651-.128-1.005-.173a14.314 14.314 0 0 1 .652 1.131c.14-.329.257-.65.354-.958zM28.579 26c.223-.485.406-.96.546-1.411.206.058.4.122.58.191.47.179.832.386 1.073.604.241.218.341.426.341.616s-.1.398-.341.616c-.241.218-.604.425-1.073.604a6.91 6.91 0 0 1-.58.191A11.68 11.68 0 0 0 28.578 26zm-.28.573a14.328 14.328 0 0 1-.654 1.13c.355-.044.692-.102 1.006-.173a10.777 10.777 0 0 0-.353-.957zM28.783 28a11.67 11.67 0 0 1-1.495.233c-.309.435-.628.831-.95 1.178.154.15.307.286.456.407.39.317.75.527 1.06.627.309.1.54.083.704-.012.164-.095.295-.286.363-.604.068-.317.066-.735-.013-1.23a6.91 6.91 0 0 0-.125-.599zM26 29.061c.218-.238.437-.5.653-.785a14.3 14.3 0 0 1-1.306 0c.215.285.434.547.653.785zm-1.645-1.357a14.44 14.44 0 0 1-.653-1.131c-.139.329-.257.65-.353.957.314.07.651.13 1.006.174zm-1.14.296c.462.105.964.183 1.496.233.308.435.628.831.949 1.178-.154.15-.307.286-.456.407-.39.317-.75.527-1.06.627-.309.1-.54.083-.704-.012-.164-.095-.295-.286-.363-.604-.068-.317-.066-.735.014-1.23.03-.191.072-.391.124-.599zm-.34-.589a6.885 6.885 0 0 1-.58-.191c-.469-.179-.832-.386-1.073-.604s-.34-.426-.34-.616.099-.398.34-.616.604-.425 1.073-.604c.18-.069.374-.133.58-.191.14.452.323.926.547 1.411-.224.485-.407.96-.547 1.411zM26 25.244a.756.756 0 1 0 0 1.512.756.756 0 0 0 0-1.512zM24.757 26a1.243 1.243 0 1 1 2.486 0 1.243 1.243 0 0 1-2.486 0z" clip-rule="evenodd" mask="url(#c)" stroke="#fff" stroke-width=".22"/></g><defs><clipPath id="a"><path transform="translate(7 8.192)" fill="#fff" d="M0 0h26v23.617H0z"/></clipPath><filter id="b" x="16" y="16" width="24" height="24" color-interpolation-filters="sRGB" filterUnits="userSpaceOnUse"><feFlood flood-opacity="0" result="BackgroundImageFix"/><feColorMatrix in="SourceAlpha" result="hardAlpha" values="0 0 0 0 0 0 0 0 0 0 0 0 0 0 0 0 0 0 127 0"/><feOffset dx="2" dy="2"/><feGaussianBlur stdDeviation="2"/><feComposite in2="hardAlpha" operator="out"/><feColorMatrix values="0 0 0 0 0 0 0 0 0 0 0 0 0 0 0 0 0 0 0.25 0"/><feBlend in2="BackgroundImageFix" result="effect1_dropShadow_21789_4388"/><feBlend in="SourceGraphic" in2="effect1_dropShadow_21789_4388" result="shape"/></filter></defs></svg>