<svg fill="none" viewBox="0 0 40 40" xmlns="http://www.w3.org/2000/svg"><path fill="#AE5EFF" fill-opacity=".2" d="M0 0h40v40H0z"/><g clip-path="url(#a)"><path d="M23.651 8.192h-13.21a3.44 3.44 0 0 0-3.44 3.438v6.01a3.44 3.44 0 0 0 3.44 3.439h13.21c1.9 0 3.44-1.54 3.44-3.438V11.63a3.44 3.44 0 0 0-3.44-3.438z" fill="#CA95FF"/><path d="M7.431 12.914h22.128a3.44 3.44 0 0 1 3.44 3.438v12.022a3.44 3.44 0 0 1-3.44 3.438H10.44A3.44 3.44 0 0 1 7 28.374V13.345c0-.24.191-.43.43-.43z" fill="#A64EFF"/></g><g filter="url(#b)"><rect x="18" y="18" width="16" height="16" rx="6" fill="#F05138" shape-rendering="crispEdges"/><g clip-path="url(#c)"><path d="M30.16 27.812c.023-.047.023-.093.047-.14.56-2.197-.771-4.767-3.061-6.122 1.005 1.355 1.402 2.967 1.051 4.416-.023.117-.07.257-.116.374a2.14 2.14 0 0 1-.188-.117s-2.266-1.402-4.696-3.855c-.07-.07 1.309 1.962 2.85 3.575-.724-.421-2.78-1.893-4.065-3.085.14.257.35.514.56.771 1.076 1.38 2.478 3.061 4.16 4.346-1.191.725-2.85.771-4.533 0-.421-.186-.771-.42-1.168-.7.7 1.098 1.799 2.103 3.107 2.64 1.566.678 3.155.631 4.3 0h.023c.047-.024.094-.047.14-.094.561-.28 1.66-.584 2.267.585.163.327.467-1.192-.677-2.594h-.001z" fill="#fff"/></g></g><defs><clipPath id="a"><path transform="translate(7 8.192)" fill="#fff" d="M0 0h26v23.617H0z"/></clipPath><clipPath id="c"><path transform="translate(21 21)" fill="#fff" d="M0 0h10v10H0z"/></clipPath><filter id="b" x="16" y="16" width="24" height="24" color-interpolation-filters="sRGB" filterUnits="userSpaceOnUse"><feFlood flood-opacity="0" result="BackgroundImageFix"/><feColorMatrix in="SourceAlpha" result="hardAlpha" values="0 0 0 0 0 0 0 0 0 0 0 0 0 0 0 0 0 0 127 0"/><feOffset dx="2" dy="2"/><feGaussianBlur stdDeviation="2"/><feComposite in2="hardAlpha" operator="out"/><feColorMatrix values="0 0 0 0 0 0 0 0 0 0 0 0 0 0 0 0 0 0 0.25 0"/><feBlend in2="BackgroundImageFix" result="effect1_dropShadow_21789_4373"/><feBlend in="SourceGraphic" in2="effect1_dropShadow_21789_4373" result="shape"/></filter></defs></svg>