<svg fill="none" viewBox="0 0 120 111" xmlns="http://www.w3.org/2000/svg"><mask id="a" x="0" y="0" width="120" height="111" style="mask-type:luminance" maskUnits="userSpaceOnUse"><path d="M120 .571H0v110h120v-110z" fill="#fff"/></mask><g mask="url(#a)"><path d="M89.995 96.04V15.112C89.995 7.086 83.489.58 75.463.58H14.532C6.506.58 0 7.086 0 15.112V96.04c0 8.025 6.506 14.532 14.532 14.532h60.931c8.026 0 14.532-6.507 14.532-14.532z" fill="#FC55FF"/><path d="M120 73.6V37.583c0-6.625-5.37-11.995-11.995-11.995H71.988c-6.625 0-11.995 5.37-11.995 11.995V73.6c0 6.625 5.37 11.995 11.995 11.995h36.017c6.625 0 11.995-5.37 11.995-11.995z" fill="#FF8DDF"/><path d="M89.997 96.038V15.104c0-8.026-6.506-14.533-14.532-14.533H14.533C6.507.571.001 7.078.001 15.104v80.934c0 8.027 6.506 14.533 14.532 14.533h60.932c8.026 0 14.532-6.506 14.532-14.533z" fill="#5570FF"/><path d="M120 73.596V37.577c0-6.625-5.371-11.996-11.995-11.996H71.987c-6.625 0-11.995 5.37-11.995 11.996v36.019c0 6.625 5.37 11.996 11.995 11.996h36.018c6.624 0 11.995-5.37 11.995-11.996z" fill="#8DA6FF"/></g></svg>