<svg fill="none" viewBox="0 0 576 140" xmlns="http://www.w3.org/2000/svg"><g clip-path="url(#a)"><path d="M89.995 96.04V15.112C89.995 7.086 83.489.58 75.463.58H14.532C6.506.58 0 7.086 0 15.112V96.04c0 8.025 6.506 14.532 14.532 14.532h60.931c8.026 0 14.532-6.507 14.532-14.532z" fill="#FC55FF"/><path d="M120 73.6V37.583c0-6.625-5.37-11.995-11.995-11.995H71.988c-6.625 0-11.995 5.37-11.995 11.995V73.6c0 6.625 5.37 11.995 11.995 11.995h36.017c6.625 0 11.995-5.37 11.995-11.995z" fill="#FF8DDF"/><path d="M89.997 96.038V15.104c0-8.026-6.506-14.533-14.532-14.533H14.533C6.507.571.001 7.078.001 15.104v80.934c0 8.027 6.506 14.533 14.532 14.533h60.932c8.026 0 14.532-6.506 14.532-14.533z" fill="#5570FF"/><path d="M120 73.596V37.577c0-6.625-5.371-11.996-11.995-11.996H71.987c-6.625 0-11.995 5.37-11.995 11.996v36.019c0 6.625 5.37 11.996 11.995 11.996h36.018c6.624 0 11.995-5.37 11.995-11.996z" fill="#8DA6FF"/></g><path d="m181.26 10.401-41.257 100.28h20.055l10.1-27.361h42.736l10.052 27.361h21.058l-41.257-100.28H181.26zm-5.229 57.014 11.532-31.229a571.11 571.11 0 0 0 2.149-5.73 138.581 138.581 0 0 0 2.005-5.873 84.951 84.951 0 0 0 1.791 5.801c.62 1.767 1.313 3.7 2.077 5.802l11.46 31.229h-31.014zm128.57-24.138c-4.584-3.2-9.98-4.799-16.188-4.799-5.539 0-10.194 1.122-13.967 3.366-3.772 2.245-6.757 5.23-8.953 8.954.191-1.433.334-2.674.43-3.725.095-1.05.143-2.1.143-3.151V40.77h-17.477v99.131h17.477v-32.089c0-1.05-.048-2.077-.143-3.08-.096-1.002-.239-2.22-.43-3.652 2.196 3.533 4.99 6.446 8.38 8.738 3.391 2.292 7.998 3.438 13.824 3.438 4.489 0 8.619-.86 12.391-2.579 3.773-1.719 7.091-4.202 9.956-7.449 2.865-3.247 5.086-7.162 6.662-11.746 1.575-4.584 2.363-9.693 2.363-15.328 0-7.449-1.265-13.99-3.796-19.626s-6.088-10.052-10.672-13.25zm-4.584 42.188c-.86 2.865-2.077 5.348-3.653 7.45-1.576 2.1-3.462 3.724-5.659 4.87-2.196 1.146-4.631 1.719-7.306 1.719-3.533 0-6.661-1.003-9.383-3.009-2.721-2.005-4.846-4.775-6.374-8.308-1.528-3.534-2.292-7.64-2.292-12.32s.788-9.049 2.363-12.534c1.576-3.486 3.725-6.184 6.447-8.094s5.801-2.865 9.239-2.865c3.725 0 6.924 1.003 9.598 3.008 2.674 2.006 4.728 4.775 6.16 8.309 1.433 3.533 2.149 7.592 2.149 12.176 0 3.533-.43 6.733-1.289 9.598zm69.047-46.987c6.208 0 11.604 1.6 16.188 4.799s8.141 7.616 10.672 13.25 3.796 12.177 3.796 19.627c0 5.634-.788 10.744-2.363 15.328-1.576 4.584-3.797 8.5-6.662 11.746-2.865 3.247-6.183 5.73-9.956 7.449-3.772 1.719-7.902 2.579-12.391 2.579-5.826 0-10.434-1.146-13.824-3.438s-6.184-5.205-8.38-8.738c.191 1.432.334 2.65.43 3.652.095 1.003.143 2.03.143 3.08V139.9H329.24V40.77h17.477v3.151c0 1.051-.048 2.101-.143 3.152a92.118 92.118 0 0 1-.43 3.725c2.196-3.725 5.181-6.71 8.953-8.954 3.773-2.244 8.428-3.366 13.967-3.366zm7.951 54.436c1.576-2.101 2.793-4.584 3.653-7.45.859-2.864 1.289-6.063 1.289-9.597 0-4.584-.716-8.643-2.149-12.176-1.432-3.534-3.486-6.303-6.16-8.309-2.674-2.005-5.873-3.008-9.598-3.008-3.438 0-6.517.955-9.239 2.865s-4.871 4.608-6.447 8.094c-1.575 3.486-2.363 7.855-2.363 12.534s.764 8.786 2.292 12.32c1.528 3.534 3.653 6.303 6.374 8.309 2.722 2.005 5.85 3.008 9.383 3.008 2.675 0 5.11-.573 7.306-1.72 2.197-1.145 4.083-2.769 5.659-4.87zm116.54-82.513h-23.923l-32.518 34.524a197.345 197.345 0 0 0-3.796 4.154c-1.098 1.242-2.03 2.483-2.794 3.725V10.4h-18.479v100.28h18.479V75.87l9.837-10.266 34.142 45.077h24.783l-46.343-58.184 40.612-42.092zm7.45 1.433h18.193V30.17h-18.193V11.834zm.286 28.937v69.907h17.477V40.77h-17.477zm74.491 0v13.895h-17.19v31.66c0 3.629.788 6.47 2.364 8.523 1.575 2.053 4.226 3.08 7.95 3.08.86 0 1.743-.048 2.65-.143.908-.096 1.791-.191 2.65-.287v13.18c-.859.286-2.244.572-4.154.86-1.91.285-3.963.428-6.16.428-4.966 0-9.144-.835-12.534-2.506-3.391-1.672-5.945-4.226-7.664-7.664-1.719-3.438-2.579-7.736-2.579-12.893V54.667h-15.901V40.771h15.901V15.56h17.477v25.212h17.19z" clip-rule="evenodd" fill="#5570FF" fill-rule="evenodd"/><defs><clipPath id="a"><path transform="translate(0 .571)" fill="#fff" d="M0 0h120v110H0z"/></clipPath></defs></svg>