<svg width="242" height="48" viewBox="0 0 242 48" fill="none" xmlns="http://www.w3.org/2000/svg">
<path d="M28 14C28 6.26801 34.268 0 42 0H62C69.732 0 76 6.26801 76 14V34C76 41.732 69.732 48 62 48H42C34.268 48 28 41.732 28 34V14Z" fill="#202020"/>
<path d="M46.8164 33L53.8341 14H55.8946L48.8769 33H46.8164Z" fill="white"/>
<path d="M0 13C0 5.8203 5.8203 0 13 0C20.1797 0 26 5.8203 26 13V35C26 42.1797 20.1797 48 13 48C5.8203 48 0 42.1797 0 35V13Z" fill="#202020"/>
<path d="M11.75 29.9991V27.4991H14.25V29.9991H11.75Z" fill="white"/>
<path d="M78 24C78 10.7452 88.7452 0 102 0H168C181.255 0 192 10.7452 192 24C192 37.2548 181.255 48 168 48H102C88.7452 48 78 37.2548 78 24Z" fill="#202020"/>
<path d="M98.462 29.87L103.522 14.47H106.118L111.178 29.87H109.088L107.79 25.8H101.828L100.53 29.87H98.462ZM102.356 24.15H107.284L104.82 16.384L102.356 24.15Z" fill="white"/>
<path d="M112.523 33.522V18.782H114.459V20.454C115.361 19.134 116.615 18.496 118.177 18.496C120.817 18.496 122.995 20.872 122.995 24.37C122.995 27.846 120.817 30.156 118.177 30.156C116.615 30.156 115.251 29.496 114.459 28.22V33.522H112.523ZM117.693 28.528C119.761 28.528 120.971 26.79 120.971 24.37C120.971 21.928 119.761 20.124 117.693 20.124C115.603 20.124 114.371 21.928 114.371 24.348C114.371 26.746 115.603 28.528 117.693 28.528Z" fill="white"/>
<path d="M125.285 33.522V18.782H127.221V20.454C128.123 19.134 129.377 18.496 130.939 18.496C133.579 18.496 135.757 20.872 135.757 24.37C135.757 27.846 133.579 30.156 130.939 30.156C129.377 30.156 128.013 29.496 127.221 28.22V33.522H125.285ZM130.455 28.528C132.523 28.528 133.733 26.79 133.733 24.37C133.733 21.928 132.523 20.124 130.455 20.124C128.365 20.124 127.133 21.928 127.133 24.348C127.133 26.746 128.365 28.528 130.455 28.528Z" fill="white"/>
<path d="M137.872 29.87V14.47H139.874V22.39L146.298 14.47H148.718L143.416 20.806L148.982 29.87H146.738L142.096 22.39L139.874 25.074V29.87H137.872Z" fill="white"/>
<path d="M150.524 29.87V28.22H154.66V20.432H150.964V18.782H156.662V28.22H160.776V29.87H150.524ZM154.572 16.89V14.47H156.772V16.89H154.572Z" fill="white"/>
<path d="M167.159 29.87C165.267 29.87 164.365 29.1 164.365 27.252V20.388H161.065V18.782H163.859C164.167 18.782 164.365 18.584 164.365 18.298V15.108H166.301V18.782H170.679V20.388H166.301V26.988C166.301 27.78 166.631 28.242 167.621 28.242H171.163V29.87H167.159Z" fill="white"/>
<path d="M194 14C194 6.26801 200.268 0 208 0H228C235.732 0 242 6.26801 242 14V34C242 41.732 235.732 48 228 48H208C200.268 48 194 41.732 194 34V14Z" fill="#202020"/>
<path d="M204 29H232V33C232 34.1046 231.071 35 229.926 35H206.074C204.929 35 204 34.1046 204 33V29Z" fill="white"/>
<path d="M204 21H232V27H204V21Z" fill="white"/>
<path d="M204 15C204 13.8954 204.929 13 206.074 13H229.926C231.071 13 232 13.8954 232 15V19H204V15Z" fill="white"/>
</svg>
