<svg fill="none" viewBox="0 0 179 166" xmlns="http://www.w3.org/2000/svg"><mask id="a" x="30" y="27" width="120" height="111" style="mask-type:luminance" maskUnits="userSpaceOnUse"><path d="M150 27.571H30v110h120v-110z" fill="#fff"/></mask><g mask="url(#a)"><path d="M120 123.04V42.111c0-8.026-6.506-14.532-14.532-14.532H44.537c-8.026 0-14.532 6.506-14.532 14.532v80.929c0 8.025 6.506 14.532 14.532 14.532h60.931c8.026 0 14.532-6.507 14.532-14.532z" fill="#FC55FF"/><path d="M150 100.6V64.583c0-6.625-5.37-11.995-11.995-11.995h-36.017c-6.625 0-11.995 5.37-11.995 11.995V100.6c0 6.625 5.37 11.995 11.995 11.995h36.017c6.625 0 11.995-5.37 11.995-11.995z" fill="#FF8DDF"/><path d="M120 123.04V42.106c0-8.026-6.506-14.533-14.532-14.533H44.536c-8.026 0-14.532 6.507-14.532 14.533v80.934c0 8.027 6.506 14.533 14.532 14.533h60.932c8.026 0 14.532-6.506 14.532-14.533z" fill="#5570FF"/><path d="M150 100.6V64.581c0-6.625-5.371-11.996-11.995-11.996h-36.018c-6.624 0-11.995 5.37-11.995 11.996V100.6c0 6.626 5.37 11.996 11.995 11.996h36.018c6.624 0 11.995-5.37 11.995-11.996z" fill="#8DA6FF"/></g></svg>