<svg fill="none" viewBox="0 0 179 166" xmlns="http://www.w3.org/2000/svg"><mask id="a" x="30" y="27" width="120" height="111" style="mask-type:luminance" maskUnits="userSpaceOnUse"><path d="M150 27.571H30v110h120v-110z" fill="#fff"/></mask><g mask="url(#a)"><path d="M120 123.04V42.111c0-8.026-6.506-14.532-14.532-14.532H44.537c-8.026 0-14.532 6.506-14.532 14.532v80.929c0 8.025 6.506 14.532 14.532 14.532h60.931c8.026 0 14.532-6.507 14.532-14.532z" fill="#FC55FF"/><path d="M150 100.6V64.583c0-6.625-5.37-11.995-11.995-11.995h-36.017c-6.625 0-11.995 5.37-11.995 11.995V100.6c0 6.625 5.37 11.995 11.995 11.995h36.017c6.625 0 11.995-5.37 11.995-11.995z" fill="#FF8DDF"/><path d="M120 123.04V42.106c0-8.026-6.506-14.533-14.532-14.533H44.536c-8.026 0-14.532 6.507-14.532 14.533v80.934c0 8.027 6.506 14.533 14.532 14.533h60.932c8.026 0 14.532-6.506 14.532-14.533z" fill="#5570FF"/><path d="M150 100.6V64.581c0-6.625-5.371-11.996-11.995-11.996h-36.018c-6.624 0-11.995 5.37-11.995 11.996V100.6c0 6.626 5.37 11.996 11.995 11.996h36.018c6.624 0 11.995-5.37 11.995-11.996z" fill="#8DA6FF"/><path d="M102.82 63.243c-1.282-1.226-3.36-1.226-4.64 0a3.043 3.043 0 0 0-.642 3.575L63.376 99.516c-5.125 4.906-5.125 12.86 0 17.766s13.436 4.906 18.562 0L116.1 84.584c1.22.558 2.724.353 3.735-.614a3.047 3.047 0 0 0 0-4.441L102.82 63.243zm-2.32 6.662 12.374 11.844-6.711 6.424-22.915-1.755 4.104-3.928 3.48 3.33c.641.614 1.68.614 2.32 0 .641-.612.641-1.607 0-2.22l-3.48-3.331L100.5 69.905zM80.391 89.152l3.48 3.331c.64.614.64 1.608 0 2.221s-1.68.613-2.32 0l-3.48-3.331 2.32-2.22zm-9.28 8.883 3.48 3.33c.64.615.64 1.609 0 2.222-.641.613-1.68.613-2.32 0l-3.48-3.331 2.32-2.22z" fill="#01FF39"/></g></svg>