<?xml version="1.0" encoding="UTF-8"?>
<svg width="150px" height="134px" viewBox="0 0 150 134" version="1.1" xmlns="http://www.w3.org/2000/svg" xmlns:xlink="http://www.w3.org/1999/xlink">
    <!-- Generator: Sketch 49.2 (51160) - http://www.bohemiancoding.com/sketch -->
    <title>fox</title>
    <desc>Created with Sketch.</desc>
    <defs></defs>
    <g id="Page-1" stroke="none" stroke-width="1" fill="none" fill-rule="evenodd">
        <g id="Artboard-3" transform="translate(-3891.000000, -197.000000)" fill-rule="nonzero" stroke-width="0.66">
            <g id="fox" transform="translate(3892.000000, 197.000000)">
                <polygon id="Shape" stroke="#F6851B" fill="#F6851B" points="84.5897246 39.5670719 63.6509258 39.5670719 55.4213423 21.4628573"></polygon>
                <polygon id="Shape" stroke="#F6851B" fill="#F6851B" points="55.4213423 21.4628573 92.8193081 21.4628573 84.5897246 39.5670719"></polygon>
                <polygon id="Shape" stroke="#E4761B" fill="#E4761B" points="63.6509258 39.5670719 11.4776539 0.586015027 55.4213423 21.4628573"></polygon>
                <polygon id="Shape" stroke="#E2761B" fill="#E2761B" points="136.762996 0.586015027 84.5897246 39.5670719 92.8193081 21.4628573"></polygon>
                <polygon id="Shape" stroke="#763D16" fill="#763D16" points="32.0056202 56.9456915 8.11828164 50.3144345 6.91338135 44.8612175"></polygon>
                <polygon id="Shape" stroke="#763D16" fill="#763D16" points="116.23503 56.9456915 141.327269 44.8612175 140.122369 50.3144345"></polygon>
                <polygon id="Shape" stroke="#763D16" fill="#763D16" points="8.84391351 56.8658993 8.11828164 50.3144345 32.0056202 56.9456915"></polygon>
                <polygon id="Shape" stroke="#763D16" fill="#763D16" points="139.396737 56.8658993 116.23503 56.9456915 140.122369 50.3144345"></polygon>
                <polygon id="Shape" stroke="#763D16" fill="#763D16" points="12.0715295 66.4147463 32.0056202 56.9456915 42.3575401 58.3744531"></polygon>
                <polygon id="Shape" stroke="#763D16" fill="#763D16" points="8.84391351 56.8658993 32.0056202 56.9456915 12.0715295 66.4147463"></polygon>
                <polygon id="Shape" stroke="#763D16" fill="#763D16" points="136.169121 66.4147463 105.88311 58.3744531 116.23503 56.9456915"></polygon>
                <polygon id="Shape" stroke="#763D16" fill="#763D16" points="139.396737 56.8658993 136.169121 66.4147463 116.23503 56.9456915"></polygon>
                <polygon id="Shape" stroke="#763D16" fill="#763D16" points="33.4121014 26.583481 32.0056202 56.9456915 6.91338135 44.8612175"></polygon>
                <polygon id="Shape" stroke="#763D16" fill="#763D16" points="42.3575401 58.3744531 32.0056202 56.9456915 33.4121014 26.583481"></polygon>
                <polygon id="Shape" stroke="#763D16" fill="#763D16" points="141.327269 44.8612175 116.23503 56.9456915 114.828549 26.583481"></polygon>
                <polygon id="Shape" stroke="#763D16" fill="#763D16" points="114.828549 26.583481 116.23503 56.9456915 105.88311 58.3744531"></polygon>
                <polygon id="Shape" stroke="#E2761B" fill="#E2761B" points="51.8216004 116.035239 8.06328398 132.833547 42.6172408 118.998073"></polygon>
                <polygon id="Shape" stroke="#E2761B" fill="#E2761B" points="42.6172408 118.998073 50.5102566 115.691294 51.8216004 116.035239"></polygon>
                <polygon id="Shape" stroke="#E2761B" fill="#E2761B" points="96.41905 116.035239 97.7303938 115.691294 105.62341 118.998073"></polygon>
                <polygon id="Shape" stroke="#E2761B" fill="#E2761B" points="105.62341 118.998073 140.177366 132.833547 96.41905 116.035239"></polygon>
                <polygon id="Shape" stroke="#763D16" fill="#763D16" points="3.7658535 46.7456952 6.91338135 44.8612175 8.11828164 50.3144345"></polygon>
                <polygon id="Shape" stroke="#763D16" fill="#763D16" points="144.474797 46.7456952 140.122369 50.3144345 141.327269 44.8612175"></polygon>
                <polygon id="Shape" stroke="#763D16" fill="#763D16" points="33.4121014 26.583481 63.6509258 39.5670719 42.3575401 58.3744531"></polygon>
                <polygon id="Shape" stroke="#763D16" fill="#763D16" points="105.88311 58.3744531 84.5897246 39.5670719 114.828549 26.583481"></polygon>
                <polygon id="Shape" stroke="#763D16" fill="#763D16" points="6.91338135 44.8612175 3.44921825 21.791419 33.4121014 26.583481"></polygon>
                <polygon id="Shape" stroke="#763D16" fill="#763D16" points="114.828549 26.583481 144.791432 21.791419 141.327269 44.8612175"></polygon>
                <polygon id="Shape" stroke="#763D16" fill="#763D16" points="8.84391351 56.8658993 4.5416341 52.6152493 8.11828164 50.3144345"></polygon>
                <polygon id="Shape" stroke="#763D16" fill="#763D16" points="139.396737 56.8658993 140.122369 50.3144345 143.699016 52.6152493"></polygon>
                <polygon id="Shape" stroke="#763D16" fill="#763D16" points="12.0715295 66.4147463 5.91555738 58.6178029 8.84391351 56.8658993"></polygon>
                <polygon id="Shape" stroke="#763D16" fill="#763D16" points="136.169121 66.4147463 139.396737 56.8658993 142.325093 58.6178029"></polygon>
                <polygon id="Shape" stroke="#E4761B" fill="#E4761B" points="42.6172408 118.998073 8.06328398 132.833547 0.251094499 98.7432837"></polygon>
                <polygon id="Shape" stroke="#E4761B" fill="#E4761B" points="147.989556 98.7432837 140.177366 132.833547 105.62341 118.998073"></polygon>
                <polygon id="Shape" stroke="#F6851B" fill="#F6851B" points="12.0715295 66.4147463 42.3575401 58.3744531 32.9948778 67.4102044"></polygon>
                <polygon id="Shape" stroke="#F6851B" fill="#F6851B" points="136.169121 66.4147463 115.245773 67.4102044 105.88311 58.3744531"></polygon>
                <polygon id="Shape" stroke="#F6851B" fill="#F6851B" points="32.9948778 67.4102044 0.251094499 98.7432837 12.0715295 66.4147463"></polygon>
                <polygon id="Shape" stroke="#F6851B" fill="#F6851B" points="115.245773 67.4102044 136.169121 66.4147463 147.989556 98.7432837"></polygon>
                <polygon id="Shape" stroke="#763D16" fill="#763D16" points="11.4776539 0.586015027 63.6509258 39.5670719 33.4121014 26.583481"></polygon>
                <polygon id="Shape" stroke="#763D16" fill="#763D16" points="136.762996 0.586015027 144.791432 21.791419 114.828549 26.583481"></polygon>
                <polygon id="Shape" stroke="#763D16" fill="#763D16" points="33.4121014 26.583481 3.44921825 21.791419 11.4776539 0.586015027"></polygon>
                <polygon id="Shape" stroke="#763D16" fill="#763D16" points="114.828549 26.583481 84.5897246 39.5670719 136.762996 0.586015027"></polygon>
                <polygon id="Shape" stroke="#F6851B" fill="#F6851B" points="27.6890823 93.2531371 0.251094499 98.7432837 32.9948778 67.4102044"></polygon>
                <polygon id="Shape" stroke="#F6851B" fill="#F6851B" points="115.245773 67.4102044 147.989556 98.7432837 120.551568 93.2531371"></polygon>
                <polygon id="Shape" stroke="#E4761B" fill="#E4761B" points="0.251094499 98.7432837 27.6890823 93.2531371 42.6172408 118.998073"></polygon>
                <polygon id="Shape" stroke="#E4761B" fill="#E4761B" points="105.62341 118.998073 120.551568 93.2531371 147.989556 98.7432837"></polygon>
                <polygon id="Shape" stroke="#E4761B" fill="#E4761B" points="42.3575401 58.3744531 63.6509258 39.5670719 65.3323899 67.1006713"></polygon>
                <polygon id="Shape" stroke="#E4761B" fill="#E4761B" points="65.3323899 67.1006713 32.9948778 67.4102044 42.3575401 58.3744531"></polygon>
                <polygon id="Shape" stroke="#E4761B" fill="#E4761B" points="105.88311 58.3744531 115.245773 67.4102044 82.9082605 67.1006713"></polygon>
                <polygon id="Shape" stroke="#E4761B" fill="#E4761B" points="82.9082605 67.1006713 84.5897246 39.5670719 105.88311 58.3744531"></polygon>
                <polygon id="Shape" stroke="#F6851B" fill="#F6851B" points="63.6509258 39.5670719 84.5897246 39.5670719 82.9082605 67.1006713"></polygon>
                <polygon id="Shape" stroke="#F6851B" fill="#F6851B" points="82.9082605 67.1006713 65.3323899 67.1006713 63.6509258 39.5670719"></polygon>
                <polygon id="Shape" stroke="#CD6116" fill="#CD6116" points="42.6172408 118.998073 27.6890823 93.2531371 45.9952492 91.9405737"></polygon>
                <polygon id="Shape" stroke="#CD6116" fill="#CD6116" points="105.62341 118.998073 102.245401 91.9405737 120.551568 93.2531371"></polygon>
                <polygon id="Shape" stroke="#CD6116" fill="#CD6116" points="45.7928494 79.2822063 32.9948778 67.4102044 65.3323899 67.1006713"></polygon>
                <polygon id="Shape" stroke="#CD6116" fill="#CD6116" points="82.9082605 67.1006713 115.245773 67.4102044 102.447801 79.2822063"></polygon>
                <polygon id="Shape" stroke="#F6851B" fill="#F6851B" points="32.9948778 67.4102044 45.9952492 91.9405737 27.6890823 93.2531371"></polygon>
                <polygon id="Shape" stroke="#F6851B" fill="#F6851B" points="120.551568 93.2531371 102.245401 91.9405737 115.245773 67.4102044"></polygon>
                <polygon id="Shape" stroke="#E4751F" fill="#E4751F" points="32.9948778 67.4102044 45.7928494 79.2822063 45.9952492 91.9405737"></polygon>
                <polygon id="Shape" stroke="#E4751F" fill="#E4751F" points="115.245773 67.4102044 102.245401 91.9405737 102.447801 79.2822063"></polygon>
                <polygon id="Shape" stroke="#CD6116" fill="#CD6116" points="65.3323899 67.1006713 57.4704968 73.8973351 45.7928494 79.2822063"></polygon>
                <polygon id="Shape" stroke="#CD6116" fill="#CD6116" points="102.447801 79.2822063 90.7701536 73.8973351 82.9082605 67.1006713"></polygon>
                <polygon id="Shape" stroke="#C0AD9E" fill="#C0AD9E" points="49.1237261 121.963612 42.6172408 118.998073 61.4863243 117.093098"></polygon>
                <polygon id="Shape" stroke="#C0AD9E" fill="#C0AD9E" points="86.7543262 117.093098 105.62341 118.998073 99.1169243 121.963612"></polygon>
                <polygon id="Shape" stroke="#F6851B" fill="#F6851B" points="45.9952492 91.9405737 45.7928494 79.2822063 62.2037951 82.8103694"></polygon>
                <polygon id="Shape" stroke="#F6851B" fill="#F6851B" points="102.245401 91.9405737 86.0368553 82.8103694 102.447801 79.2822063"></polygon>
                <polygon id="Shape" stroke="#233447" fill="#233447" points="62.2037951 82.8103694 45.7928494 79.2822063 57.4704968 73.8973351"></polygon>
                <polygon id="Shape" stroke="#233447" fill="#233447" points="86.0368553 82.8103694 90.7701536 73.8973351 102.447801 79.2822063"></polygon>
                <polygon id="Shape" stroke="#CD6116" fill="#CD6116" points="57.4704968 73.8973351 65.3323899 67.1006713 62.2037951 82.8103694"></polygon>
                <polygon id="Shape" stroke="#CD6116" fill="#CD6116" points="90.7701536 73.8973351 86.0368553 82.8103694 82.9082605 67.1006713"></polygon>
                <polygon id="Shape" stroke="#E4761B" fill="#E4761B" points="63.0835887 95.6754194 42.6172408 118.998073 45.9952492 91.9405737"></polygon>
                <polygon id="Shape" stroke="#E4761B" fill="#E4761B" points="85.1570617 95.6754194 102.245401 91.9405737 105.62341 118.998073"></polygon>
                <polygon id="Shape" stroke="#D7C1B3" fill="#D7C1B3" points="61.3936666 109.222294 61.4863243 117.093098 42.6172408 118.998073"></polygon>
                <polygon id="Shape" stroke="#D7C1B3" fill="#D7C1B3" points="42.6172408 118.998073 63.0835887 95.6754194 61.3936666 109.222294"></polygon>
                <polygon id="Shape" stroke="#D7C1B3" fill="#D7C1B3" points="86.8469838 109.222294 105.62341 118.998073 86.7543262 117.093098"></polygon>
                <polygon id="Shape" stroke="#D7C1B3" fill="#D7C1B3" points="105.62341 118.998073 86.8469838 109.222294 85.1570617 95.6754194"></polygon>
                <polygon id="Shape" stroke="#F6851B" fill="#F6851B" points="66.0095405 75.7546161 65.3323899 67.1006713 82.9082605 67.1006713"></polygon>
                <polygon id="Shape" stroke="#F6851B" fill="#F6851B" points="82.9082605 67.1006713 82.2311099 75.7546161 66.0095405 75.7546161"></polygon>
                <polygon id="Shape" stroke="#E4751F" fill="#E4751F" points="62.2037951 82.8103694 65.3323899 67.1006713 66.0095405 75.7546161"></polygon>
                <polygon id="Shape" stroke="#E2761B" fill="#E2761B" points="86.0368553 82.8103694 82.2311099 75.7546161 82.9082605 67.1006713"></polygon>
                <polygon id="Shape" stroke="#C0AD9E" fill="#C0AD9E" points="61.4863243 117.093098 62.5674906 122.438262 49.1237261 121.963612"></polygon>
                <polygon id="Shape" stroke="#C0AD9E" fill="#C0AD9E" points="99.1169243 121.963612 85.6731598 122.438262 86.7543262 117.093098"></polygon>
                <polygon id="Shape" stroke="#F6851B" fill="#F6851B" points="63.0835887 95.6754194 45.9952492 91.9405737 62.2037951 82.8103694"></polygon>
                <polygon id="Shape" stroke="#F6851B" fill="#F6851B" points="86.0368553 82.8103694 102.245401 91.9405737 85.1570617 95.6754194"></polygon>
                <polygon id="Shape" stroke="#E4751F" fill="#E4751F" points="66.0095405 75.7546161 65.9377157 93.7223678 62.2037951 82.8103694"></polygon>
                <polygon id="Shape" stroke="#E4751F" fill="#E4751F" points="82.2311099 75.7546161 86.0368553 82.8103694 82.3029347 93.7223678"></polygon>
                <polygon id="Shape" stroke="#F6851B" fill="#F6851B" points="62.2037951 82.8103694 65.9377157 93.7223678 63.0835887 95.6754194"></polygon>
                <polygon id="Shape" stroke="#F6851B" fill="#F6851B" points="85.1570617 95.6754194 82.3029347 93.7223678 86.0368553 82.8103694"></polygon>
                <polygon id="Shape" stroke="#F6851B" fill="#F6851B" points="66.0095405 75.7546161 82.2311099 75.7546161 82.3029347 93.7223678"></polygon>
                <polygon id="Shape" stroke="#F6851B" fill="#F6851B" points="82.3029347 93.7223678 65.9377157 93.7223678 66.0095405 75.7546161"></polygon>
                <polygon id="Shape" stroke="#C0AD9E" fill="#C0AD9E" points="62.1558377 122.438262 61.4538298 117.093098 61.3936666 109.222294"></polygon>
                <polygon id="Shape" stroke="#C0AD9E" fill="#C0AD9E" points="86.435331 109.222294 86.3751678 117.093098 85.6731598 122.438262"></polygon>
                <polygon id="Shape" stroke="#C0AD9E" fill="#C0AD9E" points="61.3936666 109.222294 62.6161674 106.820375 62.3589411 122.438262"></polygon>
                <polygon id="Shape" stroke="#C0AD9E" fill="#C0AD9E" points="62.5674906 122.438262 62.8802911 106.820375 85.3603593 106.820375"></polygon>
                <polygon id="Shape" stroke="#C0AD9E" fill="#C0AD9E" points="85.3603593 106.820375 85.6731598 122.438262 62.5674906 122.438262"></polygon>
                <polygon id="Shape" stroke="#C0AD9E" fill="#C0AD9E" points="85.6175856 122.438262 85.3603593 106.820375 86.5828601 109.222294"></polygon>
                <polygon id="Shape" stroke="#161616" fill="#161616" points="62.7833457 106.820375 61.3936666 109.222294 62.9733858 95.6754194"></polygon>
                <polygon id="Shape" stroke="#161616" fill="#161616" points="85.1570617 95.6754194 86.736781 109.222294 85.3471019 106.820375"></polygon>
                <polygon id="Shape" stroke="#161616" fill="#161616" points="65.7786391 94.0266242 65.9377157 93.7223678 82.3029347 93.7223678"></polygon>
                <polygon id="Shape" stroke="#161616" fill="#161616" points="82.3029347 93.7223678 82.4620113 94.0266242 65.7786391 94.0266242"></polygon>
                <polygon id="Shape" stroke="#161616" fill="#161616" points="63.0835887 95.6754194 65.9377157 93.7223678 65.7786391 94.3308805"></polygon>
                <polygon id="Shape" stroke="#161616" fill="#161616" points="82.4620113 94.3308805 82.3029347 93.7223678 85.1570617 95.6754194"></polygon>
                <polygon id="Shape" stroke="#161616" fill="#161616" points="63.0004612 95.6754194 63.5119491 96.3571573 62.8802911 106.820375"></polygon>
                <polygon id="Shape" stroke="#161616" fill="#161616" points="65.7786391 94.3308805 63.9488974 96.3571573 63.0835887 95.6754194"></polygon>
                <polygon id="Shape" stroke="#161616" fill="#161616" points="84.923411 106.820375 84.291753 96.3571573 84.8032409 95.6754194"></polygon>
                <polygon id="Shape" stroke="#161616" fill="#161616" points="85.1570617 95.6754194 84.291753 96.3571573 82.4620113 94.3308805"></polygon>
                <polygon id="Shape" stroke="#161616" fill="#161616" points="63.9488974 96.3571573 84.291753 96.3571573 85.3603593 106.820375"></polygon>
                <polygon id="Shape" stroke="#161616" fill="#161616" points="85.3603593 106.820375 62.8802911 106.820375 63.9488974 96.3571573"></polygon>
                <polygon id="Shape" stroke="#161616" fill="#161616" points="82.4620113 94.3308805 84.291753 96.3571573 63.9488974 96.3571573"></polygon>
                <polygon id="Shape" stroke="#161616" fill="#161616" points="63.9488974 96.3571573 65.7786391 94.3308805 82.4620113 94.3308805"></polygon>
            </g>
        </g>
    </g>
</svg>