<?xml version="1.0" encoding="UTF-8"?>
<svg width="237px" height="104px" viewBox="0 0 237 104" version="1.1" xmlns="http://www.w3.org/2000/svg" xmlns:xlink="http://www.w3.org/1999/xlink">
    <!-- Generator: Sketch 49.2 (51160) - http://www.bohemiancoding.com/sketch -->
    <title>ledger</title>
    <desc>Created with Sketch.</desc>
    <defs></defs>
    <g id="Page-1" stroke="none" stroke-width="1" fill="none" fill-rule="evenodd">
        <g id="Artboard-3" transform="translate(-3622.000000, -203.000000)">
            <g id="ledger" transform="translate(3622.000000, 201.000000)">
                <g id="Group-3-Copy-3" transform="translate(0.000000, 76.178960)">
                    <path d="M66.1466229,7.95803755 L66.1466229,6.28266122 L76.4551875,6.28266122 L76.4551875,3.4265088 C76.4551875,1.53410024 77.9892878,1.23580823e-15 79.8816963,8.8817842e-16 L114.253258,0 L114.253258,20.52336 L79.8816963,20.52336 C77.9892878,20.52336 76.4551875,18.9892598 76.4551875,17.0968512 L76.4551875,14.6595429 L66.1466229,14.6595429 L66.1466229,12.9841665 L0,12.9841665 L0,7.95803755 L66.1466229,7.95803755 Z" id="Combined-Shape" fill="#121212"></path>
                    <path d="M99.7047538,4.6072849 L94.495467,4.6072849 L94.495467,11.3290008 L101.486736,11.3290008 L101.486728,6.35613526 C101.489575,5.41192027 100.686832,4.6072849 99.7047538,4.6072849 Z M92.8956751,4.6072849 L92.0217674,4.6072849 C91.0396888,4.6072849 90.1999403,5.37634116 90.1999403,6.35887211 L90.1999403,7.1990866 L92.8956751,7.1990866 L92.8956751,4.6072849 Z M90.1999403,8.77277824 L92.8956751,8.77277824 L92.8956751,11.3645799 L90.1999403,11.3645799 L90.1999403,8.77277824 Z M98.7938402,15.4944942 L99.6677479,15.4944942 C100.649827,15.4944942 101.489575,14.7254379 101.489575,13.742907 L101.489575,12.9054293 L98.7938402,12.9054293 L98.7938402,15.4944942 Z M94.495467,12.9054293 L97.1912017,12.9054293 L97.1912017,15.497231 L94.495467,15.497231 L94.495467,12.9054293 Z M90.1999403,12.9054293 L90.1999403,13.7456438 C90.1999403,14.6898588 90.9998363,15.497231 92.0217674,15.497231 L92.8956751,15.497231 L92.8956751,12.9054293 L90.1999403,12.9054293 Z" id="Shape" fill="#FFFFFF" fill-rule="nonzero"></path>
                    <path d="M114.253258,3.76959673 L125.424499,3.76959673 C126.134152,3.76959673 126.70944,4.34488433 126.70944,5.05453753 L126.70944,15.4688225 C126.70944,16.1784757 126.134152,16.7537633 125.424499,16.7537633 L114.253258,16.7537633 L114.253258,3.76959673 Z" id="Rectangle-3" fill="#CCCCCC"></path>
                </g>
                <path d="M114.181267,68.14808 L235.608173,68.14808 C236.081275,68.14808 236.4648,68.5316051 236.4648,69.0047072 L236.4648,104.768893 C236.4648,105.241995 236.081275,105.62552 235.608173,105.62552 L114.181267,105.62552 C113.708165,105.62552 113.32464,105.241995 113.32464,104.768893 L113.32464,69.0047072 C113.32464,68.5316051 113.708165,68.14808 114.181267,68.14808 Z M217.290727,94.8561407 C221.761869,94.8561407 225.386447,91.191713 225.386447,86.6714124 C225.386447,82.1511118 221.761869,78.4866841 217.290727,78.4866841 C212.819584,78.4866841 209.195007,82.1511118 209.195007,86.6714124 C209.195007,91.191713 212.819584,94.8561407 217.290727,94.8561407 Z" id="Combined-Shape-Copy-8" fill="#23262D"></path>
                <rect id="Rectangle-2-Copy-17" fill="#121212" x="127.60176" y="67.25576" width="16.06176" height="1"></rect>
                <rect id="Rectangle-2-Copy-16" fill="#121212" x="132.95568" y="77.9636" width="54.43152" height="16.06176" rx="0.8566272"></rect>
                <rect id="Rectangle-2-Copy-15" fill="#121212" x="177.57168" y="67.25576" width="16.06176" height="1"></rect>
                <g id="Group-2-Copy-3" transform="translate(181.309432, 57.097083) rotate(-141.000000) translate(-181.309432, -57.097083) translate(115.529432, 37.792083)">
                    <path d="M18.73872,0 L129.422093,1.11022302e-16 C129.895195,2.41148495e-17 130.27872,0.383525061 130.27872,0.8566272 L130.27872,36.6208128 C130.27872,37.0939149 129.895195,37.47744 129.422093,37.47744 L18.73872,37.47744 C8.38961071,37.47744 1.26740036e-15,29.0878293 0,18.73872 C-1.26740036e-15,8.38961071 8.38961071,1.90110053e-15 18.73872,0 Z M19.2214505,27.1388359 C23.7036408,27.1388359 27.337174,23.4744082 27.337174,18.9541076 C27.337174,14.433807 23.7036408,10.7693793 19.2214505,10.7693793 C14.7392601,10.7693793 11.105727,14.433807 11.105727,18.9541076 C11.105727,23.4744082 14.7392601,27.1388359 19.2214505,27.1388359 Z" id="Combined-Shape-Copy-4" fill="#CCCCCC"></path>
                    <g id="Group-Copy-2" transform="translate(91.622247, 18.523332) rotate(-180.000000) translate(-91.622247, -18.523332) translate(64.498645, 11.200154)" fill="#AFAFAF" fill-rule="nonzero">
                        <path d="M16.2314471,11.1314572 L16.2314471,0.688806749 L16.9544522,0.688806749 L16.9544522,10.4426505 L21.9053429,10.4426505 L21.9053429,11.1314572 L16.2314471,11.1314572 Z M25.4808292,11.2760216 C24.3596064,11.2760216 23.4925651,10.9131934 22.8429901,10.2243866 C22.2301303,9.53557986 21.9025186,8.55764435 21.9025186,7.28774549 C21.9025186,6.05469637 22.190591,5.03991111 22.806275,4.31425462 C23.4191349,3.55174838 24.2155702,3.18892014 25.2633628,3.18892014 C26.1671192,3.18892014 26.8901244,3.51489864 27.4323782,4.1328405 C27.9746321,4.7847975 28.2259893,5.65501838 28.2259893,6.74350312 L28.2259893,7.32459523 L22.6255238,7.32459523 C22.6255238,8.37623022 22.8797052,9.20960135 23.385244,9.75384372 C23.8540676,10.3349358 24.5770728,10.5872149 25.4808292,10.5872149 C25.9129377,10.5872149 26.3111554,10.5503651 26.6359429,10.4795002 C26.9607303,10.4058007 27.3956631,10.2980861 27.9012019,10.0798222 L27.9012019,10.768629 C27.4690933,10.9500431 27.0708756,11.0946075 26.7093731,11.168307 C26.3055069,11.2420065 25.8931681,11.2788562 25.4808292,11.2760216 Z M25.2633628,3.84371174 C24.5036426,3.84371174 23.9274978,4.09882535 23.45585,4.56936823 C23.0237414,5.07676086 22.7328448,5.76556761 22.6622389,6.70948797 L27.4323782,6.70948797 C27.4323782,5.80241735 27.2516269,5.1136106 26.8534093,4.60621797 C26.4919067,4.09599075 25.9496528,3.84371174 25.2633628,3.84371174 Z M31.9850512,3.22576988 C32.527305,3.22576988 33.0328438,3.33348452 33.4310614,3.51489864 C33.8292791,3.73316251 34.1907817,4.05914101 34.5155692,4.56653364 L34.5522843,4.56653364 C34.5155692,3.95142637 34.5155692,3.37033426 34.5155692,2.78924215 L34.5155692,0 L35.2018592,0 L35.2018592,11.1314572 L34.7330355,11.1314572 L34.5522843,9.93525785 C33.9733153,10.8054787 33.106274,11.2760216 32.0217663,11.2760216 C30.9372586,11.2760216 30.1436475,10.9500431 29.5646785,10.2612364 C28.9857096,9.60927934 28.7343523,8.62850924 28.7343523,7.36144497 C28.7343523,6.02068122 29.0224247,5.00306137 29.5646785,4.28023947 C30.1069324,3.55458298 30.9372586,3.22576988 31.9850512,3.22576988 Z M31.9850512,3.84371174 C31.154725,3.84371174 30.50515,4.1328405 30.0702173,4.75078235 C29.6381087,5.33187447 29.4206423,6.20209534 29.4206423,7.36144497 C29.4206423,9.5724296 30.2876837,10.6609143 31.9850512,10.6609143 C32.8520925,10.6609143 33.5016674,10.4058007 33.8998851,9.8984081 C34.2981028,9.39101548 34.5127449,8.55764435 34.5127449,7.35861038 L34.5127449,7.25089574 C34.5127449,6.05469637 34.2952785,5.18447549 33.8998851,4.67708287 C33.5383825,4.09599075 32.8888076,3.84371174 31.9850512,3.84371174 Z M42.7143344,3.37316886 L42.7143344,3.88056148 L41.124288,3.98827612 C41.5563965,4.53251849 41.7738629,5.1136106 41.7738629,5.72871786 C41.7738629,6.4912241 41.5196814,7.06948162 41.0141427,7.5428591 C40.5086039,8.01340198 39.859029,8.23166585 39.0258785,8.23166585 C38.664376,8.23166585 38.4130187,8.23166585 38.3028734,8.1948161 C38.014801,8.33938048 37.7973347,8.5207946 37.6532985,8.70220873 C37.5092623,8.92047259 37.4358321,9.10188672 37.4358321,9.35416573 C37.4358321,9.60644475 37.5431532,9.78785887 37.7239044,9.8984081 C37.9046557,10.0061227 38.2294432,10.0798222 38.664376,10.0798222 L40.0002409,10.0798222 C40.8305671,10.0798222 41.4801421,10.2612364 41.9150748,10.5872149 C42.3500076,10.9131934 42.6013649,11.420586 42.6013649,12.1093927 C42.6013649,12.9427639 42.2765774,13.5607057 41.6270025,13.9943989 C40.9774276,14.428092 40.036956,14.6463559 38.8084121,14.6463559 C37.8340498,14.6463559 37.0743295,14.4649417 36.5320757,14.0652637 C35.9898218,13.7024355 35.7384646,13.1581931 35.7384646,12.5062361 C35.7384646,11.9619938 35.9192158,11.5283006 36.2440033,11.1654724 C36.5687908,10.8026441 37.0376144,10.5843803 37.5798683,10.4398159 C37.3624019,10.3321012 37.1477597,10.1847023 37.0376144,10.0061227 C36.8964025,9.83037781 36.820148,9.61494854 36.820148,9.39101548 C36.820148,8.88362285 37.1449355,8.41307997 37.7945104,8.01340198 C37.3624019,7.83198786 37.0008993,7.5428591 36.7467178,7.14318111 C36.4925363,6.74350312 36.3852152,6.27296023 36.3852152,5.76556761 C36.3852152,5.00306137 36.6393967,4.35110436 37.1082204,3.88056148 C37.6137591,3.4100186 38.2633341,3.19175473 39.0964845,3.19175473 C39.6020233,3.19175473 40.0002409,3.22860448 40.2883133,3.33631911 L42.7086859,3.33631911 L42.7086859,3.37316886 L42.7143344,3.37316886 Z M36.4275788,12.4382058 C36.4275788,13.4898408 37.2211899,14.0340832 38.8112364,14.0340832 C40.8333914,14.0340832 41.8472931,13.3821262 41.8472931,12.0753776 C41.8472931,11.6048347 41.7032569,11.2788562 41.3784695,11.0605923 C41.053682,10.8423285 40.5481433,10.7346138 39.8251381,10.7346138 L38.5598791,10.7346138 C37.150584,10.768629 36.4275788,11.3128713 36.4275788,12.4382058 Z M37.0432629,5.76556761 C37.0432629,6.38067487 37.2240142,6.8172026 37.5855167,7.18003085 C37.9470193,7.50600935 38.415843,7.68742348 39.031527,7.68742348 C39.6811019,7.68742348 40.1866407,7.50600935 40.5114282,7.18003085 C40.8729307,6.85405235 41.0169669,6.38350946 41.0169669,5.76556761 C41.0169669,5.1136106 40.8362156,4.60621797 40.474713,4.28023947 C40.1132105,3.95426097 39.6443868,3.77284685 38.9948119,3.77284685 C38.3819521,3.77284685 37.8735891,3.95426097 37.5488016,4.31708922 C37.1872991,4.64023312 37.0432629,5.14762575 37.0432629,5.76556761 Z" id="Shape"></path>
                        <path d="M46.4256201,10.8370432 C45.3017804,10.8370432 44.4327154,10.4767467 43.7816244,9.79274628 C43.1673342,9.10874589 42.8389578,8.13763423 42.8389578,6.87659648 C42.8389578,5.65215134 43.1277025,4.64444707 43.7448236,3.92385407 C44.3591138,3.16666846 45.157408,2.80637196 46.2076461,2.80637196 C47.1135119,2.80637196 47.8382045,3.13007584 48.3817239,3.74370582 C48.9252434,4.39111359 49.1771873,5.25526223 49.1771873,6.33615173 L49.1771873,6.9131891 L43.6004512,6.9131891 C43.6004512,7.95748598 43.855226,8.78504201 44.3619446,9.32548676 C44.8318625,9.90252412 45.5565551,10.1530428 46.4624209,10.1530428 C46.8955379,10.1530428 47.294685,10.1164502 47.6202305,10.0460798 C47.945776,9.97289453 48.3817239,9.86593151 48.8884426,9.64919064 L48.8884426,10.333191 C48.4553255,10.5133393 48.0561784,10.6568949 47.6938321,10.7300801 C47.294685,10.8032654 46.8955379,10.8370432 46.4256201,10.8370432 Z M46.2444469,3.45659455 C45.4829535,3.45659455 44.9054641,3.70992802 44.4327154,4.17718755 C43.9995983,4.68103968 43.7080228,5.36504007 43.637252,6.30237393 L48.4185247,6.30237393 C48.4185247,5.40163268 48.2373516,4.7176323 47.8382045,4.21378016 C47.4758582,3.70711321 46.9323387,3.45659455 46.2444469,3.45659455 Z M53.1969666,2.84296457 C53.5225121,2.84296457 53.8848584,2.87955718 54.2472047,2.94992759 L54.1028324,3.63392798 C53.7687944,3.56074275 53.4290947,3.52415014 53.0893951,3.52696496 C52.438304,3.52696496 51.8947846,3.81407623 51.4588367,4.35452098 C51.0257196,4.93155834 50.8077457,5.61555873 50.8077457,6.47970737 L50.8077457,10.6934875 L50.0830531,10.6934875 L50.0830531,2.98933502 L50.6973433,2.98933502 L50.7709449,4.39392841 L50.8077457,4.39392841 C51.1332912,3.81689105 51.4588367,3.42281675 51.821183,3.20607589 C52.2571309,2.95274241 52.690248,2.84296457 53.1969666,2.84296457 Z M9.45214301,0 L4.27172321,0 L4.27172321,6.9131891 L11.2242504,6.9131891 L11.2242429,1.79866768 C11.2270737,0.827556024 10.4287795,1.00002368e-16 9.45214301,0 Z M2.68079648,0 L1.81173151,0 C0.835094995,0 0,0.79096341 0,1.8014825 L0,2.66563114 L2.68079648,2.66563114 L2.68079648,0 Z M0,4.28415057 L2.68079648,4.28415057 L2.68079648,6.94978171 L0,6.94978171 L0,4.28415057 Z M8.54627726,11.1973397 L9.41534222,11.1973397 C10.3919787,11.1973397 11.2270737,10.4063763 11.2270737,9.39585717 L11.2270737,8.53452335 L8.54627726,8.53452335 L8.54627726,11.1973397 Z M4.27172321,8.53452335 L6.95251969,8.53452335 L6.95251969,11.2001545 L4.27172321,11.2001545 L4.27172321,8.53452335 Z M0,8.53452335 L0,9.39867198 C0,10.3697836 0.795463368,11.2001545 1.81173151,11.2001545 L2.68079648,11.2001545 L2.68079648,8.53452335 L0,8.53452335 Z" id="Shape"></path>
                    </g>
                    <path d="M19.2214505,28.8619366 C13.7956411,28.8619366 9.39715357,24.4260504 9.39715357,18.9541076 C9.39715357,13.4821647 13.7956411,9.04627862 19.2214505,9.04627862 C24.6472599,9.04627862 29.0457474,13.4821647 29.0457474,18.9541076 C29.0457474,24.4260504 24.6472599,28.8619366 19.2214505,28.8619366 Z M19.2214505,27.1388359 C23.7036408,27.1388359 27.337174,23.4744082 27.337174,18.9541076 C27.337174,14.433807 23.7036408,10.7693793 19.2214505,10.7693793 C14.7392601,10.7693793 11.105727,14.433807 11.105727,18.9541076 C11.105727,23.4744082 14.7392601,27.1388359 19.2214505,27.1388359 Z" id="Combined-Shape-Copy-3" fill="#121212"></path>
                </g>
                <text id="Welcome-Copy-3" font-family="pixelated_verdana_bold_12pt" font-size="5.9963904" font-weight="bold" fill="#58E7F9">
                    <tspan x="149.186981" y="87.31752">Welcome</tspan>
                </text>
            </g>
        </g>
    </g>
</svg>