<?xml version="1.0" encoding="UTF-8" standalone="no"?><!DOCTYPE svg PUBLIC "-//W3C//DTD SVG 1.1//EN" "http://www.w3.org/Graphics/SVG/1.1/DTD/svg11.dtd"><svg width="100%" height="100%" viewBox="0 0 1313 375" version="1.1" xmlns="http://www.w3.org/2000/svg" xmlns:xlink="http://www.w3.org/1999/xlink" xml:space="preserve" xmlns:serif="http://www.serif.com/" style="fill-rule:evenodd;clip-rule:evenodd;stroke-linejoin:round;stroke-miterlimit:2;"><g><path d="M201.004,5.402c100.57,-0 182.098,81.528 182.098,182.098c0,100.57 -81.528,182.098 -182.098,182.098c-100.57,0 -182.098,-81.528 -182.098,-182.098c-0,-100.57 81.528,-182.098 182.098,-182.098Zm273.148,182.098c-0,-100.57 81.528,-182.098 182.098,-182.098c100.57,-0 182.098,81.528 182.098,182.098c0,100.57 -81.528,182.098 -182.098,182.098c-100.57,0 -182.098,-81.528 -182.098,-182.098l-0,182.092l-91.05,0l0,-364.19l91.05,-0l-0,182.098Zm724.75,36.42c-16.869,83.115 -90.356,145.678 -178.455,145.678c-100.57,0 -182.099,-81.528 -182.099,-182.098c0,-100.57 81.529,-182.098 182.099,-182.098c88.099,-0 161.586,62.563 178.455,145.678l94.692,0l0,72.84l-94.692,-0Zm-997.898,-104.707c-37.655,0 -68.287,30.632 -68.287,68.287c0,37.655 30.632,68.287 68.287,68.287c37.655,-0 68.287,-30.632 68.287,-68.287c-0,-37.655 -30.632,-68.287 -68.287,-68.287Zm455.246,0c-37.655,0 -68.287,30.632 -68.287,68.287c0,37.655 30.632,68.287 68.287,68.287c37.655,-0 68.287,-30.632 68.287,-68.287c-0,-37.655 -30.632,-68.287 -68.287,-68.287Zm421.94,31.867c-12.111,-19.135 -33.469,-31.867 -57.743,-31.867c-37.655,0 -68.287,30.632 -68.287,68.287c-0,37.655 30.632,68.287 68.287,68.287c24.274,-0 45.632,-12.732 57.743,-31.867l-57.743,-0l-0,-72.84l57.743,0Z" style="fill-rule:nonzero;stroke:#fff;stroke-width:10px;"/><path d="M201.004,119.213c-37.655,0 -68.287,30.632 -68.287,68.287c0,37.655 30.632,68.287 68.287,68.287c37.655,-0 68.287,-30.632 68.287,-68.287c-0,-37.655 -30.632,-68.287 -68.287,-68.287m0,-113.811c100.57,-0 182.098,81.528 182.098,182.098c0,100.57 -81.528,182.098 -182.098,182.098c-100.57,0 -182.098,-81.528 -182.098,-182.098c-0,-100.57 81.528,-182.098 182.098,-182.098" style="fill-rule:nonzero;"/><path d="M656.25,119.213c-37.655,0 -68.287,30.632 -68.287,68.287c0,37.655 30.632,68.287 68.287,68.287c37.655,-0 68.287,-30.632 68.287,-68.287c-0,-37.655 -30.632,-68.287 -68.287,-68.287m0,-113.811c100.57,-0 182.098,81.528 182.098,182.098c0,100.57 -81.528,182.098 -182.098,182.098c-100.57,0 -182.098,-81.528 -182.098,-182.098c-0,-100.57 81.528,-182.098 182.098,-182.098" style="fill-rule:nonzero;"/><path d="M1020.45,119.213c-37.655,0 -68.287,30.632 -68.287,68.287c-0,37.655 30.632,68.287 68.287,68.287c37.652,-0 68.287,-30.632 68.287,-68.287c-0,-37.655 -30.635,-68.287 -68.287,-68.287m-0,-113.811c100.57,-0 182.098,81.528 182.098,182.098c0,100.57 -81.528,182.098 -182.098,182.098c-100.57,0 -182.099,-81.528 -182.099,-182.098c0,-100.57 81.529,-182.098 182.099,-182.098" style="fill-rule:nonzero;"/><rect x="383.102" y="5.402" width="91.049" height="364.191"/><rect x="1020.45" y="151.08" width="273.148" height="72.839" style="fill:#37d17d;"/></g></svg>