<?xml version="1.0" encoding="UTF-8"?>
<svg width="382px" height="472px" viewBox="0 0 382 472" version="1.1" xmlns="http://www.w3.org/2000/svg" xmlns:xlink="http://www.w3.org/1999/xlink">
    <!-- Generator: Sketch 52.6 (67491) - http://www.bohemiancoding.com/sketch -->
    <title>authereum</title>
    <desc>Created with Sketch.</desc>
    <g id="Page-1" stroke="none" stroke-width="1" fill="none" fill-rule="evenodd">
        <g id="authereum" fill="#FF4C2F">
            <g id="Group" transform="translate(190.950000, 235.900000) scale(-1, 1) rotate(-180.000000) translate(-190.950000, -235.900000) translate(-0.000000, 0.100000)">
                <path d="M80,454.1 C50,444.5 19.8,434.9 12.7,432.7 L0,428.6 L0,340.4 C0,287.6 0.4,247.8 1,241.2 C5.4,195 25.4,151.2 58.8,114.8 C66.4,106.5 187,1.4 190.4,0.1 C191.8,-0.4 297.8,90 315.2,106.6 C345.4,135.3 369,177.3 377.4,217.5 C381.8,238.7 382.1,246.6 381.8,340.6 L381.5,429 L313.6,450.4 C276.3,462.1 245.6,471.6 245.4,471.5 C245.3,471.3 250.9,460.2 258,446.7 L270.9,422.2 L290.2,416 C300.8,412.6 316.8,407.5 325.8,404.7 L342.1,399.6 L341.7,318.4 C341.4,240.4 341.3,236.8 339.3,227.7 C331.7,193.4 316,164.3 291.9,139.7 C287.3,135 263.9,114.3 240,93.8 C216.1,73.2 195.3,55.3 193.8,53.9 L191.2,51.5 L145.3,91 C89.2,139.4 80.8,147.6 67.4,168.2 C57.1,184.1 49.5,201.2 44.9,218.9 C40.4,236.9 40,243.6 40,323.8 L40,399.5 L54.3,404 C62.1,406.5 78.1,411.6 89.8,415.3 C101.4,419 111,422.4 111,422.7 C111,423 116.6,434 123.5,447.1 C130.4,460.3 136,471.2 136,471.4 C136,472 134.8,471.6 80,454.1 Z" id="Path"></path>
                <path d="M188.4,468.5 C187.5,466.7 162.3,418.6 132.5,361.7 L78.3,258.2 L79.1,249.8 C80.9,232.6 87.3,214.4 97.7,197.9 C101.4,191.9 102.5,190.8 103.5,191.9 C104.1,192.6 123.9,230 147.5,275 C171,319.9 190.5,356.7 190.9,356.7 C191.2,356.7 211,320.3 234.8,275.9 C258.6,231.5 278.5,194.4 279.1,193.4 C280.1,191.7 280.3,191.8 281.9,193.9 C292.2,207.4 300.7,229.7 303.1,249.4 L304.3,259.4 L247.5,365.3 C216.3,423.5 190.6,471.4 190.4,471.5 C190.3,471.7 189.4,470.4 188.4,468.5 Z" id="Path"></path>
                <path d="M163,213.8 L135.5,158.9 L151,145.4 C159.5,138 172,127.3 178.7,121.7 L191,111.5 L193.7,113.7 C195.3,114.9 207.6,125.6 221.1,137.5 L245.8,159.1 L218.4,213.9 C203.3,244 190.9,268.7 190.7,268.7 C190.6,268.7 178.1,244 163,213.8 Z" id="Path"></path>
            </g>
        </g>
    </g>
</svg>