<svg xmlns="http://www.w3.org/2000/svg" viewBox="0 0 40 40" fill-rule="evenodd" clip-rule="evenodd" stroke-linecap="round" stroke-linejoin="round"><g fill="#f0b90b"><path d="M20.245 0L9.634 6.125l3.901 2.262 6.71-3.862 6.71 3.862 3.902-2.262L20.245 0zm6.711 11.586l3.9 2.263v4.526l-6.71 3.862v7.724l-3.9 2.263-3.902-2.263v-7.724l-6.71-3.862v-4.526l3.901-2.263 6.71 3.863 6.71-3.863h.001z"/><path d="M30.857 21.573V26.1l-3.901 2.262v-4.525l3.9-2.263.001-.001z"/><path d="M26.916 31.56l6.71-3.862v-7.724l3.902-2.263v12.25l-10.611 6.125V31.56h-.001zm6.711-19.31l-3.902-2.263 3.902-2.263 3.9 2.263v4.525l-3.9 2.263V12.25zM16.344 37.724V33.2l3.901 2.263 3.902-2.263v4.525l-3.902 2.263-3.9-2.263-.001-.001zm-2.809-9.363L9.634 26.1v-4.526l3.901 2.263v4.525-.001zm6.71-16.111l-3.9-2.263 3.9-2.263 3.902 2.263-3.902 2.263zm-9.48-2.263l-3.9 2.263v4.525l-3.902-2.263V9.987l3.901-2.263 3.901 2.263z"/><path d="M2.963 17.711l3.901 2.263v7.724l6.71 3.862v4.526L2.963 29.96V17.71v.001z"/></g></svg>