<?xml version="1.0" encoding="UTF-8"?>
<svg width="128px" height="128px" viewBox="0 0 128 128" version="1.1" xmlns="http://www.w3.org/2000/svg" xmlns:xlink="http://www.w3.org/1999/xlink">
    <title>icon_logo@2x</title>
    <defs>
        <linearGradient x1="52.5457501%" y1="100%" x2="52.5457504%" y2="0%" id="linearGradient-1">
            <stop stop-color="#1E3DA0" offset="0%"></stop>
            <stop stop-color="#3750DE" offset="100%"></stop>
        </linearGradient>
        <linearGradient x1="50%" y1="0%" x2="50%" y2="100%" id="linearGradient-2">
            <stop stop-color="#1D3BA3" stop-opacity="0" offset="0%"></stop>
            <stop stop-color="#173793" stop-opacity="0.652938179" offset="100%"></stop>
        </linearGradient>
        <linearGradient x1="50%" y1="100%" x2="50%" y2="0%" id="linearGradient-3">
            <stop stop-color="#1E3DA0" offset="0%"></stop>
            <stop stop-color="#3750DE" offset="100%"></stop>
        </linearGradient>
    </defs>
    <g id="шо╛шоб" stroke="none" stroke-width="1" fill="none" fill-rule="evenodd">
        <g id="icon_logo">
            <path d="M35,0 L93,0 C112.329966,-3.55085719e-15 128,15.6700338 128,35 L128,93 C128,112.329966 112.329966,128 93,128 L35,128 C15.6700338,128 2.36723813e-15,112.329966 0,93 L0,35 C-2.36723813e-15,15.6700338 15.6700338,3.55085719e-15 35,0 Z" id="Combined-Shape" fill="url(#linearGradient-1)"></path>
            <circle id="Oval-5" fill="#FFFFFF" cx="64.5714286" cy="64.5714286" r="48.5714286"></circle>
            <path d="M64,0 C99.346224,0 128,28.653776 128,64 C128,99.346224 99.346224,128 64,128 C28.653776,128 0,99.346224 0,64 C0,28.653776 28.653776,0 64,0 Z M63.7130045,15.2107623 C36.7674526,15.2107623 14.9237668,37.0544481 14.9237668,64 C14.9237668,90.9455519 36.7674526,112.789238 63.7130045,112.789238 C90.6585564,112.789238 112.502242,90.9455519 112.502242,64 C112.502242,37.0544481 90.6585564,15.2107623 63.7130045,15.2107623 Z" id="Combined-Shape" fill="url(#linearGradient-2)"></path>
            <path d="M58.1818182,88.7272727 C58.1818182,92.7438891 54.9257073,96 50.9090909,96 C46.8924745,96 43.6363636,92.7438891 43.6363636,88.7272727 L43.636,84.363 L39.2727273,84.3636364 C35.2561109,84.3636364 32,81.1075255 32,77.0909091 C32,73.0742927 35.2561109,69.8181818 39.2727273,69.8181818 L43.636,69.818 L43.636,58.181 L39.2727273,58.1818182 C35.2561109,58.1818182 32,54.9257073 32,50.9090909 C32,46.8924745 35.2561109,43.6363636 39.2727273,43.6363636 L43.636,43.636 L43.6363636,39.2727273 C43.6363636,35.2561109 46.8924745,32 50.9090909,32 C54.9257073,32 58.1818182,35.2561109 58.1818182,39.2727273 L58.181,43.636 L69.818,43.636 L69.8181818,39.2727273 C69.8181818,35.2561109 73.0742927,32 77.0909091,32 C81.1075255,32 84.3636364,35.2561109 84.3636364,39.2727273 L84.363,43.636 L88.7272727,43.6363636 C92.7438891,43.6363636 96,46.8924745 96,50.9090909 C96,54.9257073 92.7438891,58.1818182 88.7272727,58.1818182 L84.363,58.181 L84.363,69.818 L88.7272727,69.8181818 C92.7438891,69.8181818 96,73.0742927 96,77.0909091 C96,81.1075255 92.7438891,84.3636364 88.7272727,84.3636364 L84.363,84.363 L84.3636364,88.7272727 C84.3636364,92.7438891 81.1075255,96 77.0909091,96 C73.0742927,96 69.8181818,92.7438891 69.8181818,88.7272727 L69.818,84.363 L58.181,84.363 L58.1818182,88.7272727 Z M58.181,69.818 L69.818,69.818 L69.818,58.181 L58.181,58.181 L58.181,69.818 Z" id="Combined-Shape" fill="url(#linearGradient-3)" transform="translate(64.000000, 64.000000) rotate(-30.000000) translate(-64.000000, -64.000000) "></path>
        </g>
    </g>
</svg>