<?xml version="1.0" encoding="UTF-8"?>
<svg width="41px" height="44px" viewBox="0 0 41 44" version="1.1" xmlns="http://www.w3.org/2000/svg" xmlns:xlink="http://www.w3.org/1999/xlink">
    <title>bitski-icon</title>
    <defs>
        <linearGradient x1="51.2680247%" y1="12.142985%" x2="48.6111111%" y2="88.3113177%" id="linearGradient-1">
            <stop stop-color="#CF0BC3" offset="0%"></stop>
            <stop stop-color="#CF0BC3" offset="0%"></stop>
            <stop stop-color="#CF0BC3" offset="0%"></stop>
            <stop stop-color="#FF3568" offset="100%"></stop>
        </linearGradient>
        <linearGradient x1="51.2680247%" y1="48.8982627%" x2="48.6111111%" y2="51.1149587%" id="linearGradient-2">
            <stop stop-color="#CF0BC3" offset="0%"></stop>
            <stop stop-color="#CF0BC3" offset="0%"></stop>
            <stop stop-color="#CF0BC3" offset="0%"></stop>
            <stop stop-color="#FF3568" offset="100%"></stop>
        </linearGradient>
    </defs>
    <g id="Page-1" stroke="none" stroke-width="1" fill="none" fill-rule="evenodd">
        <g id="bitski-icon" transform="translate(0.000000, -7.000000)" fill-rule="nonzero">
            <g id="Rectangle-3" transform="translate(12.512249, 40.470429) rotate(-45.000000) translate(-12.512249, -40.470429) translate(10.012249, 26.970429)">
                <g id="path-2-link" fill="#4100EA">
                    <path d="M1.711891,0.778352 L3.228967,0.778352 C3.700759,0.778352 3.871842,0.827476 4.044322,0.919719 C4.216802,1.011962 4.352165,1.147326 4.444409,1.319806 C4.536652,1.492286 4.585775,1.663369 4.585775,2.13516 L4.585775,24.805698 C4.585775,25.277489 4.536652,25.448573 4.444409,25.621053 C4.352165,25.793533 4.216802,25.928896 4.044322,26.021139 C3.871842,26.113382 3.700759,26.162506 3.228967,26.162506 L1.711891,26.162506 C1.240099,26.162506 1.069016,26.113382 0.896536,26.021139 C0.724056,25.928896 0.588693,25.793533 0.49645,25.621053 C0.404206,25.448573 0.355083,25.277489 0.355083,24.805698 L0.355083,2.13516 C0.355083,1.663369 0.404206,1.492286 0.49645,1.319806 C0.588693,1.147326 0.724056,1.011962 0.896536,0.919719 C1.069016,0.827476 1.240099,0.778352 1.711891,0.778352 Z" id="path-2"></path>
                </g>
                <g id="path-2-link" fill="url(#linearGradient-2)">
                    <path d="M1.711891,0.778352 L3.228967,0.778352 C3.700759,0.778352 3.871842,0.827476 4.044322,0.919719 C4.216802,1.011962 4.352165,1.147326 4.444409,1.319806 C4.536652,1.492286 4.585775,1.663369 4.585775,2.13516 L4.585775,24.805698 C4.585775,25.277489 4.536652,25.448573 4.444409,25.621053 C4.352165,25.793533 4.216802,25.928896 4.044322,26.021139 C3.871842,26.113382 3.700759,26.162506 3.228967,26.162506 L1.711891,26.162506 C1.240099,26.162506 1.069016,26.113382 0.896536,26.021139 C0.724056,25.928896 0.588693,25.793533 0.49645,25.621053 C0.404206,25.448573 0.355083,25.277489 0.355083,24.805698 L0.355083,2.13516 C0.355083,1.663369 0.404206,1.492286 0.49645,1.319806 C0.588693,1.147326 0.724056,1.011962 0.896536,0.919719 C1.069016,0.827476 1.240099,0.778352 1.711891,0.778352 Z" id="path-2"></path>
                </g>
            </g>
            <path d="M9.56994765,4.72157415 L20.3835966,4.72157415 C27.5419276,4.72157415 31.3495506,9.08764915 31.3495506,15.4844551 C31.3495506,16.2967481 31.1464776,17.5151881 30.9941726,18.2767121 C30.9434046,18.5813221 30.8926356,18.7843951 30.8926356,18.9874691 C30.8926356,19.3936151 31.0449406,19.6474571 31.6033926,19.9520661 C35.0048686,21.8812621 36.5279186,25.0288971 36.5279186,29.4965081 C36.5279186,35.7410101 32.6695266,40.2593891 24.7496706,40.2593891 L9.56994765,40.2593891 C8.75765465,40.2593891 8.45304465,39.9040111 8.45304465,39.0917181 L8.45304465,5.88924515 C8.45304465,5.07695215 8.75765465,4.72157415 9.56994765,4.72157415 Z M17.7944126,18.6828591 L20.3835966,18.6828591 C21.7035726,18.6828591 22.7189386,17.8705661 22.7189386,16.2967481 C22.7189386,14.7736991 21.7035726,13.9106381 20.3835966,13.9106381 L17.7944126,13.9106381 C16.9821196,13.9106381 16.6775106,14.2660161 16.6775106,15.0783091 L16.6775106,17.5151881 C16.6775106,18.3274811 16.9821196,18.6828591 17.7944126,18.6828591 Z M17.7944126,31.0703261 L24.5973656,31.0703261 C26.5773296,31.0703261 27.6942326,30.3595691 27.6942326,28.6842151 C27.6942326,27.0596291 26.5773296,26.2981051 24.5973656,26.2981051 L17.7944126,26.2981051 C16.9821196,26.2981051 16.6775106,26.6534831 16.6775106,27.4657761 L16.6775106,29.9026541 C16.6775106,30.7149471 16.9821196,31.0703261 17.7944126,31.0703261 Z" id="bitski" fill="#2926CF" transform="translate(22.490482, 22.490482) rotate(-45.000000) translate(-22.490482, -22.490482) "></path>
        </g>
    </g>
</svg>
