<svg xmlns="http://www.w3.org/2000/svg" fill="none" viewBox="0 0 256 256"><rect width="256" height="256" fill="#000" rx="128"/><path fill="#fff" fill-rule="evenodd" d="M87.648 203.403c-20.956 0-40.627-4.472-57.648-12.308l69.251-63.21c-9.565-7.847-15.667-19.759-15.667-33.097 0-13.58 6.326-25.683 16.193-33.521V52h26.595a42.62 42.62 0 0 1 27.977 10.413A42.62 42.62 0 0 1 182.325 52h.064l.001-.001.002.002h26.527v9.266c9.867 7.838 16.194 19.941 16.194 33.521 0 17.078-10.005 31.819-24.473 38.681-5.173 15.273-14.903 29.009-27.926 40.182v19.746h-32.737c-15.75 6.403-33.522 10.005-52.33 10.005Zm38.723-75.7a32.775 32.775 0 0 0 20.583-7.228l7.328 16.501 7.363-16.579a32.773 32.773 0 0 0 20.68 7.306c18.177 0 32.913-14.736 32.913-32.913 0-18.178-14.736-32.914-32.913-32.914-11.812 0-22.17 6.221-27.977 15.566-5.807-9.344-16.165-15.566-27.977-15.566-18.178 0-32.913 14.736-32.913 32.914 0 18.177 14.735 32.913 32.913 32.913Zm0-9.874c12.725 0 23.04-10.315 23.04-23.04 0-12.724-10.315-23.04-23.04-23.04-12.724 0-23.04 10.316-23.04 23.04 0 12.725 10.316 23.04 23.04 23.04Zm0-9.874c7.271 0 13.166-5.895 13.166-13.166 0-7.27-5.895-13.165-13.166-13.165-7.271 0-13.165 5.894-13.165 13.165 0 7.271 5.894 13.166 13.165 13.166Zm78.993-13.166c0 12.725-10.315 23.04-23.04 23.04-12.724 0-23.039-10.315-23.039-23.04 0-12.724 10.315-23.04 23.039-23.04 12.725 0 23.04 10.316 23.04 23.04Zm-9.874 0c0 7.271-5.894 13.166-13.166 13.166-7.271 0-13.165-5.895-13.165-13.166 0-7.27 5.894-13.165 13.165-13.165 7.272 0 13.166 5.894 13.166 13.165Z" clip-rule="evenodd"/></svg>