<svg width="70" height="70" viewBox="0 0 70 70" fill="none" xmlns="http://www.w3.org/2000/svg">
<path d="M69.5808 19.545L39.7715 0V10.9277L58.8944 23.3541L56.6447 30.4728H39.7715V39.5272H56.6447L58.8944 46.6458L39.7715 59.0722V70L69.5808 50.5174L64.7063 35.0312L69.5808 19.545Z" fill="url(#paint0_linear_17381_51)"/>
<path d="M13.8368 39.5272H30.6475V30.4728H13.7743L11.5871 23.3541L30.6475 10.9277V0L0.838257 19.545L5.71273 35.0312L0.838257 50.5174L30.71 70V59.0722L11.5871 46.6458L13.8368 39.5272Z" fill="url(#paint1_linear_17381_51)"/>
<mask id="mask0_17381_51" style="mask-type:alpha" maskUnits="userSpaceOnUse" x="0" y="0" width="70" height="70">
<path d="M69.5808 19.5451L39.7716 3.05176e-05V10.9278L58.8945 23.3542L56.6447 30.4728H39.7716V39.5272H56.6447L58.8945 46.6459L39.7716 59.0723V70L69.5808 50.5174L64.7063 35.0312L69.5808 19.5451Z" fill="url(#paint2_linear_17381_51)"/>
<path d="M13.8369 39.5272H30.6476V30.4728H13.7744L11.5871 23.3542L30.6476 10.9278V3.05176e-05L0.83831 19.5451L5.71278 35.0312L0.83831 50.5174L30.7101 70V59.0723L11.5871 46.6459L13.8369 39.5272Z" fill="url(#paint3_linear_17381_51)"/>
</mask>
<g mask="url(#mask0_17381_51)">
<rect x="0.875053" y="3.05176e-05" width="68.25" height="70" fill="url(#paint4_linear_17381_51)"/>
</g>
<defs>
<linearGradient id="paint0_linear_17381_51" x1="59.9375" y1="74.8125" x2="39.9699" y2="-7.68737" gradientUnits="userSpaceOnUse">
<stop stop-color="#0B46F9"/>
<stop offset="1" stop-color="#BBFBE0"/>
</linearGradient>
<linearGradient id="paint1_linear_17381_51" x1="59.9375" y1="74.8125" x2="39.9699" y2="-7.68737" gradientUnits="userSpaceOnUse">
<stop stop-color="#0B46F9"/>
<stop offset="1" stop-color="#BBFBE0"/>
</linearGradient>
<linearGradient id="paint2_linear_17381_51" x1="59.9376" y1="74.8125" x2="39.97" y2="-7.68734" gradientUnits="userSpaceOnUse">
<stop stop-color="#0B46F9"/>
<stop offset="1" stop-color="#BBFBE0"/>
</linearGradient>
<linearGradient id="paint3_linear_17381_51" x1="59.9376" y1="74.8125" x2="39.97" y2="-7.68734" gradientUnits="userSpaceOnUse">
<stop stop-color="#0B46F9"/>
<stop offset="1" stop-color="#BBFBE0"/>
</linearGradient>
<linearGradient id="paint4_linear_17381_51" x1="5.25005" y1="15.75" x2="39.8126" y2="41.5625" gradientUnits="userSpaceOnUse">
<stop offset="0.119792" stop-color="#8952FF" stop-opacity="0.87"/>
<stop offset="1" stop-color="#DABDFF" stop-opacity="0"/>
</linearGradient>
</defs>
</svg>
