<svg width="24" height="24" viewBox="0 0 24 24" fill="none" xmlns="http://www.w3.org/2000/svg">
<circle cx="12" cy="12" r="12" fill="black"/>
<path fill-rule="evenodd" clip-rule="evenodd" d="M7.52862 9.75V15.9646C7.52862 16.4706 7.91965 16.8565 8.4254 16.8565H15.7621C16.2679 16.8565 16.6589 16.4706 16.6589 15.9646V10.7524H17.625V15.9646C17.625 16.9956 16.8045 17.8125 15.7621 17.8125H8.4254C7.38304 17.8125 6.5625 16.9956 6.5625 15.9646V9.75H7.52862Z" fill="white"/>
<path fill-rule="evenodd" clip-rule="evenodd" d="M6.5625 8.22251C6.5625 7.19176 7.38304 6.375 8.4254 6.375H15.9086V8.64657H16.1323C16.9727 8.64657 17.625 9.29631 17.625 10.1266V10.8949C17.625 11.7253 16.9727 12.375 16.1323 12.375H8.4254C7.38304 12.375 6.5625 11.5582 6.5625 10.5275V8.22251ZM14.9425 8.64657V7.33077H8.4254C7.91965 7.33077 7.52862 7.71661 7.52862 8.22251V10.5275C7.52862 11.0334 7.91965 11.4192 8.4254 11.4192H11.6107V8.64657H14.9425ZM12.5768 11.4192H16.1323C16.4361 11.4192 16.6589 11.2004 16.6589 10.8949V10.1266C16.6589 9.82115 16.4361 9.60235 16.1323 9.60235H12.5768V11.4192Z" fill="white"/>
</svg>
