<svg width="64" height="64" viewBox="0 0 64 64" fill="none" xmlns="http://www.w3.org/2000/svg">
<path d="M0 22.8C0 14.8193 0 10.8289 1.55316 7.78064C2.91935 5.09933 5.09933 2.91935 7.78064 1.55316C10.8289 0 14.8193 0 22.8 0H41.2C49.1807 0 53.1711 0 56.2194 1.55316C58.9007 2.91935 61.0806 5.09933 62.4468 7.78064C64 10.8289 64 14.8193 64 22.8V41.2C64 49.1807 64 53.1711 62.4468 56.2194C61.0806 58.9007 58.9007 61.0806 56.2194 62.4468C53.1711 64 49.1807 64 41.2 64H22.8C14.8193 64 10.8289 64 7.78064 62.4468C5.09933 61.0806 2.91935 58.9007 1.55316 56.2194C0 53.1711 0 49.1807 0 41.2V22.8Z" fill="#2DBD96"/>
<path fill-rule="evenodd" clip-rule="evenodd" d="M32 46.7899L17.2101 32L32 17.2101L46.7899 32L32 46.7899ZM32 27.88C29.7287 27.88 27.8799 29.7287 27.8799 32C27.8799 34.2713 29.7287 36.12 32 36.12C34.2713 36.12 36.12 34.2713 36.12 32C36.12 29.7287 34.2713 27.88 32 27.88ZM10.8715 29.8872C9.70948 31.0492 9.70948 32.9508 10.8715 34.1128L29.8872 53.1285C31.0492 54.2905 32.9508 54.2905 34.1128 53.1285L53.1284 34.1128C54.2905 32.9508 54.2905 31.0492 53.1284 29.8872L34.1128 10.8715C32.9508 9.70948 31.0492 9.70948 29.8872 10.8715L10.8715 29.8872Z" fill="white"/>
</svg>
