<svg width="136" height="47" viewBox="0 0 136 47" fill="none" xmlns="http://www.w3.org/2000/svg">
<path d="M7.10935 6.61116C7.07278 6.64669 7.03621 6.68223 6.99964 6.71776C3.29454 10.3633 1.0605 14.8909 0.297539 19.5993C0.103058 20.7962 0.00332446 22.0043 0 23.2125V23.3515C0.00332446 24.5128 0.094747 25.6742 0.272605 26.8242C0.829452 30.4084 2.23736 33.8925 4.49467 36.9663C5.24101 37.9823 6.08043 38.9546 7.00962 39.8705C7.04286 39.9028 7.07611 39.9335 7.10935 39.9658C9.12896 41.9299 11.3846 43.4401 13.7799 44.524C22.6013 48.5071 33.3393 46.6593 41.3712 40.0191C41.3912 40.0013 41.4128 39.9835 41.4344 39.9658C50.5018 32.4258 58.8229 25.5966 67.779 25.5966C76.7335 25.5966 85.0546 32.4258 94.122 39.9658C96.5854 42.0123 99.3032 43.6081 102.144 44.721C105.862 46.1796 109.79 46.8111 113.628 46.5495C119.026 46.1828 124.243 44.0507 128.449 39.9658C128.482 39.9335 128.514 39.9028 128.545 39.8705C129.478 38.9546 130.317 37.9823 131.063 36.9663C133.321 33.8925 134.729 30.4084 135.284 26.8242C135.656 24.432 135.648 21.9914 135.261 19.5993C134.498 14.8909 132.262 10.3633 128.558 6.71776C128.52 6.68223 128.485 6.64508 128.447 6.61116C124.243 2.52623 119.026 0.41027 113.628 0.054918C109.785 -0.198674 105.852 0.440959 102.132 1.89467C99.2965 3.00595 96.5805 4.58727 94.122 6.61116C85.0197 14.1042 76.7783 20.9819 67.779 20.9819C58.7797 20.9819 50.5384 14.1042 41.4344 6.61116C41.4177 6.59662 41.4028 6.5837 41.3862 6.57078C36.1718 2.29686 29.8121 0 23.5787 0C20.206 0 16.8716 0.671938 13.7732 2.06427C11.3796 3.14163 9.1273 4.64865 7.10935 6.61116Z" fill="url(#paint0_radial)"/>
<defs>
<radialGradient id="paint0_radial" cx="0" cy="0" r="1" gradientUnits="userSpaceOnUse" gradientTransform="translate(-3.27083 12.9276) scale(155.219 81.9033)">
<stop stop-color="#1CE5C3"/>
<stop offset="0.10253" stop-color="#1CE5C3"/>
<stop offset="0.474728" stop-color="#5440D7"/>
<stop offset="0.630807" stop-color="#8B2CE4"/>
<stop offset="0.795714" stop-color="#D421EB"/>
<stop offset="1" stop-color="#AC39FD"/>
</radialGradient>
</defs>
</svg>
