<svg width="320" height="320" viewBox="0 0 320 320" fill="none" xmlns="http://www.w3.org/2000/svg">
<path d="M310.142 178.941C322.057 152.322 263.149 77.9513 206.872 46.9671C171.399 22.9641 134.435 26.2617 126.949 36.8008C110.52 59.93 181.351 79.5284 228.721 102.398C218.538 106.821 208.943 114.758 203.3 124.908C185.64 105.627 146.878 89.0245 101.396 102.398C70.7464 111.411 45.2741 132.658 35.4293 164.749C33.0371 163.686 30.3886 163.095 27.6021 163.095C16.9467 163.095 8.3087 171.733 8.3087 182.389C8.3087 193.044 16.9467 201.682 27.6021 201.682C29.5772 201.682 35.7526 200.357 35.7526 200.357L134.435 201.073C94.97 263.68 63.7812 272.832 63.7812 283.679C63.7812 294.525 93.6234 291.586 104.828 287.543C158.468 268.189 216.08 207.869 225.966 190.505C267.482 195.685 302.372 196.298 310.142 178.941Z" fill="url(#paint0_linear)"/>
<path fill-rule="evenodd" clip-rule="evenodd" d="M228.717 102.401C228.72 102.403 228.722 102.404 228.725 102.405C230.92 101.54 230.565 98.297 229.962 95.7505C228.577 89.8972 204.667 66.2872 182.215 55.7122C151.62 41.3023 129.091 42.0452 125.763 48.6868C131.995 61.4595 160.886 73.4515 191.061 85.9761C203.934 91.3196 217.041 96.7599 228.722 102.399C228.72 102.4 228.719 102.401 228.717 102.401Z" fill="url(#paint1_linear)"/>
<path fill-rule="evenodd" clip-rule="evenodd" d="M189.892 230.954C183.705 228.59 176.716 226.42 168.77 224.452C177.242 209.292 179.02 186.849 171.019 172.659C159.789 152.745 145.693 142.146 112.937 142.146C94.9207 142.146 46.4136 148.214 45.5525 188.707C45.4621 192.956 45.5502 196.849 45.8578 200.43L134.435 201.072C122.494 220.016 111.31 234.066 101.519 244.75C113.275 247.762 122.976 250.291 131.883 252.613C140.334 254.816 148.069 256.832 156.165 258.898C168.378 250 179.86 240.298 189.892 230.954Z" fill="url(#paint2_linear)"/>
<path d="M34.2473 196.269C37.8658 227.03 55.3476 239.085 91.0698 242.652C126.792 246.22 147.283 243.826 174.563 246.308C197.347 248.381 217.691 259.992 225.238 255.98C232.03 252.369 228.23 239.323 219.142 230.953C207.361 220.103 191.056 212.56 162.366 209.883C168.084 194.228 166.482 172.279 157.602 160.337C144.763 143.07 121.064 135.263 91.0699 138.674C59.733 142.238 29.7062 157.666 34.2473 196.269Z" fill="url(#paint3_linear)"/>
<defs>
<linearGradient id="paint0_linear" x1="97.8271" y1="155.368" x2="307.576" y2="214.849" gradientUnits="userSpaceOnUse">
<stop stop-color="#8797FF"/>
<stop offset="1" stop-color="#AAA8FF"/>
</linearGradient>
<linearGradient id="paint1_linear" x1="272.257" y1="151.38" x2="120.914" y2="-0.332927" gradientUnits="userSpaceOnUse">
<stop stop-color="#3B22A0"/>
<stop offset="1" stop-color="#5156D8" stop-opacity="0"/>
</linearGradient>
<linearGradient id="paint2_linear" x1="194.103" y1="236.239" x2="48.7216" y2="152.655" gradientUnits="userSpaceOnUse">
<stop stop-color="#3B1E8F"/>
<stop offset="1" stop-color="#6A6FFB" stop-opacity="0"/>
</linearGradient>
<linearGradient id="paint3_linear" x1="110.349" y1="153.803" x2="208.616" y2="278.661" gradientUnits="userSpaceOnUse">
<stop stop-color="#8898FF"/>
<stop offset="0.983895" stop-color="#5F47F1"/>
</linearGradient>
</defs>
</svg>