<?xml version="1.0" encoding="utf-8"?>
<!-- Generator: Adobe Illustrator 24.1.3, SVG Export Plug-In . SVG Version: 6.00 Build 0)  -->
<svg version="1.1" id="Layer_1" xmlns="http://www.w3.org/2000/svg" xmlns:xlink="http://www.w3.org/1999/xlink" x="0px" y="0px"
	 viewBox="0 0 246 246" style="enable-background:new 0 0 246 246;" xml:space="preserve">
<style type="text/css">
	.st0{fill:#00A14A;}
	.st1{fill:#4A7D3B;}
	.st2{fill:#424243;}
</style>
<g>
	<path class="st0" d="M102.1,15.2v1c14.7,13,22.7,27.1,23.3,39.6c0,11.3-6.2,22.7-18.7,32.9V58c0-2.3-1.7-4.5-4.5-4.5V15.2z"/>
	<path class="st1" d="M102.1,53.5c-2.3,0-4.5,1.7-4.5,4.5v30.6C85.1,77.9,78.9,67.1,78.9,55.8c0.6-12.5,8.5-26.5,23.3-39.6V53.5z"/>
	<path class="st1" d="M183.3,126.1c-0.6-1.1-1.7-1.7-2.8-1.7c-1.1-0.6-2.3,0-3.4,0.6l-4,2.3c5.3-14.7,18.2-10.2,23.3-9.1
		L183.3,126.1z"/>
	<path class="st0" d="M196.3,118.2c-1.7,5.1-4.4,18.7-18.7,15.9l4-2.3c1.1-0.6,1.7-1.1,2.3-2.8c0.6-1.1,0-2.3-0.6-2.8L196.3,118.2z"
		/>
	<path class="st2" d="M177.6,134.1l4-2.3c1.1-0.6,1.7-1.1,2.3-2.8c0.6-2.3-1.1-4.5-2.8-5.1c-1.1-0.6-2.3,0-3.4,0.6l-4,2.3
		c4.5-13,17.6-9.6,22.7-8.5C194.6,123.9,191.8,136.3,177.6,134.1z M148.7,152.2c-3.4,0-6.2-2.8-6.2-6.2s2.8-6.2,6.2-6.2
		s6.2,2.8,6.2,6.2C155.5,149.4,152.6,152.2,148.7,152.2z M155.5,198.7c0,3.4-2.8,6.2-6.2,6.2s-6.2-2.8-6.2-6.2s2.8-6.2,6.2-6.2
		C152.1,192.5,155.5,195.3,155.5,198.7z M116.3,175.5c0-1.1,0.6-1.7,0.6-2.8c0-1.1,0-2.3-0.6-2.8l22.7-13c1.7,1.1,3.4,2.3,5.7,3.4
		v26.1c-1.7,0.6-3.4,1.7-5.1,2.8L116.3,175.5z M134.5,201.6l-23.3,13c-1.7-1.1-3.4-2.3-5.1-2.8v-26.1c1.7-0.6,4-1.7,5.1-2.8l23.3,13
		c0,1.1-0.6,2.3-0.6,3.4C134.5,199.9,134.5,201,134.5,201.6z M102.1,231.6c-3.4,0-6.2-2.8-6.2-6.2s2.8-6.2,6.2-6.2
		c3.4,0,6.2,2.8,6.2,6.2S105.5,231.6,102.1,231.6z M69.8,201.6c0-1.1,0-1.7,0-2.8c0-1.1,0-2.3-0.6-3.4l23.3-13
		c1.7,1.1,3.4,2.3,5.1,2.8v26.1c-1.7,0.6-4,1.7-5.1,2.8L69.8,201.6z M64.7,188.5c-1.7-1.1-3.4-2.3-5.1-2.8v-26.1
		c2.3-0.6,4-1.7,5.1-3.4l22.7,13c0,1.1-0.6,1.7-0.6,2.8c0,1.1,0,2.3,0.6,2.8L64.7,188.5z M55.6,205.5c-3.4,0-6.2-2.8-6.2-6.2
		s2.8-6.2,6.2-6.2s6.2,2.8,6.2,6.2S59,205.5,55.6,205.5z M49.4,146c0-3.4,2.8-6.2,6.2-6.2s6.2,2.8,6.2,6.2s-2.8,6.2-6.2,6.2
		S49.4,149.4,49.4,146z M92.5,129.5c1.7,1.1,3.4,2.3,5.1,2.8v26.1c-2.3,0.6-4,1.7-5.1,2.8l-22.7-13c0-1.1,0-1.7,0-2.8
		c0-1.1,0-2.3-0.6-3.4L92.5,129.5z M102.1,113.1c3.4,0,6.2,2.8,6.2,6.2s-2.8,6.2-6.2,6.2c-3.4,0-6.2-2.8-6.2-6.2
		S98.7,113.1,102.1,113.1z M78.9,55.2c0.6-12.5,8.5-25.5,23.3-38.6l0,0c14.7,13,22.7,26.1,23.3,38.6c0,11.3-6.2,22.7-18.7,32.9V58
		c0-2.3-1.7-4.5-4.5-4.5c-2.3,0-4.5,1.7-4.5,4.5v30.6C85.1,77.9,78.9,67.1,78.9,55.2z M108.4,172.1c0,3.4-2.8,6.2-6.2,6.2
		c-3.4,0-6.2-2.8-6.2-6.2s2.8-6.2,6.2-6.2C105.5,165.8,108.4,168.7,108.4,172.1z M135,143.1c0,1.1-0.6,2.3-0.6,3.4
		c0,1.1,0,1.7,0,2.8l-22.7,13c-1.7-1.1-3.4-2.3-5.1-2.8v-26.1c1.7-0.6,3.4-1.7,5.1-2.8L135,143.1z M202.5,111.4c0,0-15.9-6.2-26.7,0
		c-6.2,3.4-10.8,10.2-11.9,21l-5.7,3.4c-2.3-2.3-5.7-3.4-9.6-3.4c-3.4,0-6.8,1.1-9.6,3.4l0,0l-23.3-13c0-1.1,0.6-2.3,0.6-3.4
		c0-6.2-4-11.3-10.2-13.6v-6.2l2.3-1.7l0,0C126,84.1,134.5,70,133.9,54.6c0-15.3-9.6-31.2-28.9-47.7c-0.6-0.6-1.7-1.1-2.3-1.1h-0.6
		c-1.1,0-1.7,0.6-2.3,1.1C80,24,70.4,39.9,70.4,55.2C69.8,70,78.3,84.7,95.9,98.3l2.3,1.7v6.2C92.5,108,88,113.6,88,119.9
		c0,1.1,0,2.3,0.6,3.4l-23.3,12.5c-2.3-2.3-5.7-3.4-9.6-3.4c-7.9,0-14.2,6.2-14.2,14.2c0,6.2,4,11.3,10.2,13.6v26.1
		c-5.7,1.7-10.2,7.4-10.2,13.6c0,7.9,6.2,14.2,14.2,14.2c4,0,7.4-1.7,9.6-4l22.7,13c0,1.1-0.6,2.3-0.6,2.8c0,7.9,6.2,14.2,14.2,14.2
		s14.2-6.2,14.2-14.2c0-1.1,0-2.3-0.6-2.8l22.7-13c2.8,2.3,6.2,4,9.6,4c7.9,0,14.2-6.2,14.2-14.2c0-6.2-4-11.3-10.2-13.6v-26.1
		c5.7-1.7,10.2-7.4,10.2-13.6c0-1.1,0-2.3-0.6-3.4l5.1-2.8c10.8,4.5,19.3,4,25,0c10.2-6.2,13-23.3,13-23.3
		C206,114.8,204.2,111.9,202.5,111.4z"/>
</g>
</svg>
