<svg xmlns="http://www.w3.org/2000/svg" width="104" height="80" viewBox="0 0 104 80">
    <g fill="none" fill-rule="evenodd">
        <g>
            <g>
                <g>
                    <g>
                        <g>
                            <path fill="#FF0002" d="M32.729 67.102L32.729 74.57 43.589 74.57 43.589 77.285 32.729 77.285 32.729 80 46.305 80 46.305 71.854 35.443 71.854 35.443 69.818 40.902 69.818 40.902 67.102z" transform="translate(-130.000000, -20.000000) translate(130.000000, 20.000000)"/>
                            <path fill="#FF0002" d="M74.306 67.102v7.228h-1.907v-7.228H43.069v2.716h7.957V80h2.715V69.818h5.08V80h2.717v-2.85h8.146V80h2.715v-2.863h1.907V80h2.715v-2.85h6.214l.478 2.85h3.225l-.514-2.85h1.459V67.101H74.306zm2.715 7.228h8.146v-4.512H77.02v4.512zm-15.483 0h8.146v-4.512h-8.146v4.512zM89.498 67.102L89.498 69.818 98.951 69.818 89.498 77.285 89.498 80 103.074 80 103.074 77.285 93.639 77.285 103.074 69.818 103.074 67.102z" transform="translate(-130.000000, -20.000000) translate(130.000000, 20.000000)"/>
                            <path fill="#151DF4" d="M0 66.746v7.663h11.146v5.572h2.786V66.746H0zm2.786 4.875h8.359v-2.09H2.786v2.09zM16.352 66.746v7.663h11.146v5.572h2.787V66.746H16.352zm2.787 4.875h8.36v-2.09h-8.36v2.09zM28.91 17.915L33.226 21.144 29.139 34.462 51.444 17.748z" transform="translate(-130.000000, -20.000000) translate(130.000000, 20.000000)"/>
                            <path fill="#FF0002" d="M70.917 24.761l-16.65 11.57 5.476 3.95-16.827-.03L98.302.001 51.273 5.267 4.755 0l19.338 14.361h37.809L8.172 54.664l42.407-5.083 41.683 5.083-18.73-13.882-2.615-16.02z" transform="translate(-130.000000, -20.000000) translate(130.000000, 20.000000)"/>
                        </g>
                    </g>
                </g>
            </g>
        </g>
    </g>
</svg> 