<svg width="49" height="48" viewBox="0 0 49 48" fill="none" xmlns="http://www.w3.org/2000/svg">
<path fill-rule="evenodd" clip-rule="evenodd" d="M38.3067 26.7464C38.7631 27.7399 40.1065 28.0909 40.8796 27.3177L42.2961 25.9013C43.7606 24.4368 46.1349 24.4368 47.5994 25.9013C49.0639 27.3657 49.0639 29.7401 47.5994 31.2046L36.1465 42.6575C33.3949 45.9243 29.2741 48 24.6686 48C19.8655 48 15.5897 45.7426 12.8443 42.2308L1.81877 31.2052C0.354304 29.7408 0.354304 27.3664 1.81877 25.9019C3.28323 24.4375 5.65759 24.4375 7.12206 25.9019L8.51754 27.2974C9.2735 28.0534 10.5859 27.7134 11.0324 26.742C11.1206 26.5501 11.1686 26.3441 11.1686 26.1328L11.1686 8.99993C11.1686 6.92887 12.8475 5.24994 14.9186 5.24994C16.9896 5.24994 18.6686 6.92887 18.6686 8.99993L18.6686 17.6675C18.6686 18.4132 19.4324 18.9194 20.1435 18.6947C20.5935 18.5525 20.9186 18.1427 20.9186 17.6708L20.9186 3.75C20.9186 1.67894 22.5975 1.44747e-05 24.6686 1.39315e-05C26.7396 1.33883e-05 28.4186 1.67894 28.4186 3.75L28.4186 17.671C28.4186 18.1429 28.7436 18.5524 29.1935 18.6946C29.9043 18.9192 30.6679 18.4132 30.6679 17.6678L30.6679 8.99994C30.6679 6.92888 32.3468 5.24995 34.4178 5.24995C36.4889 5.24995 38.1678 6.92887 38.1678 8.99993L38.1678 26.1249C38.1678 26.3404 38.2168 26.5505 38.3067 26.7464Z" fill="#FF3D23"/>
<path d="M36.6684 34.5C36.6684 34.5 31.2958 42 24.6684 42C18.041 42 12.6685 34.5 12.6685 34.5C12.6685 34.5 18.041 27 24.6684 27C31.2958 27 36.6684 34.5 36.6684 34.5Z" fill="#D5FF5C"/>
<path d="M30.3031 34.5C30.3031 37.6114 27.7808 40.1337 24.6694 40.1337C21.558 40.1337 19.0357 37.6114 19.0357 34.5C19.0357 31.3886 21.558 28.8663 24.6694 28.8663C27.7808 28.8663 30.3031 31.3886 30.3031 34.5Z" stroke="#FF3D23" stroke-width="0.732536"/>
<path d="M28.0522 34.5002C28.0522 36.369 26.5372 37.884 24.6685 37.884C22.7997 37.884 21.2847 36.369 21.2847 34.5002C21.2847 32.6315 22.7997 31.1165 24.6684 31.1165C26.5372 31.1165 28.0522 32.6315 28.0522 34.5002Z" stroke="#FF3D23" stroke-width="0.732536"/>
<path d="M32.5531 34.5C32.5531 38.854 29.0235 42.3837 24.6694 42.3837C20.3154 42.3837 16.7857 38.854 16.7857 34.5C16.7857 30.1459 20.3154 26.6163 24.6694 26.6163C29.0235 26.6163 32.5531 30.1459 32.5531 34.5Z" stroke="#FF3D23" stroke-width="0.732536"/>
<path d="M34.8021 34.5C34.8021 40.0967 30.2651 44.6337 24.6684 44.6337C19.0717 44.6337 14.5347 40.0967 14.5347 34.5C14.5347 28.9033 19.0717 24.3663 24.6684 24.3663C30.2651 24.3663 34.8021 28.9033 34.8021 34.5Z" stroke="#FF3D23" stroke-width="0.732536"/>
<path d="M25.8032 34.4998C25.8032 35.1259 25.2956 35.6335 24.6694 35.6335C24.0433 35.6335 23.5357 35.1259 23.5357 34.4998C23.5357 33.8736 24.0433 33.366 24.6694 33.366C25.2956 33.366 25.8032 33.8736 25.8032 34.4998Z" fill="#162BEB" stroke="#FF3D23" stroke-width="0.732536"/>
<ellipse cx="24.6694" cy="34.4998" rx="1.5" ry="1.5" fill="#FF3D23"/>
<path d="M13.2011 34.5971C13.1738 34.562 13.1487 34.5296 13.126 34.5C13.1487 34.4704 13.1738 34.438 13.2011 34.4029C13.3576 34.2021 13.5895 33.9139 13.8887 33.5675C14.4874 32.8742 15.3535 31.9502 16.4225 31.0272C18.5719 29.1714 21.4874 27.3663 24.6684 27.3663C27.8495 27.3663 30.765 29.1714 32.9143 31.0272C33.9833 31.9502 34.8494 32.8742 35.4482 33.5675C35.7474 33.9139 35.9792 34.2021 36.1357 34.4029C36.1631 34.438 36.1881 34.4704 36.2108 34.5C36.1881 34.5296 36.1631 34.562 36.1357 34.5971C35.9792 34.7979 35.7474 35.086 35.4482 35.4325C34.8494 36.1258 33.9833 37.0497 32.9143 37.9727C30.765 39.8286 27.8495 41.6337 24.6684 41.6337C21.4874 41.6337 18.5719 39.8286 16.4225 37.9728C15.3535 37.0497 14.4874 36.1258 13.8887 35.4325C13.5895 35.0861 13.3576 34.7979 13.2011 34.5971Z" stroke="#D5FF5C" stroke-width="0.732536"/>
</svg>
