<svg width="560" height="517" viewBox="0 0 560 517" fill="none" xmlns="http://www.w3.org/2000/svg">
<path d="M554.555 169.276L485.867 195.365C482.979 196.415 480.179 193.614 481.404 190.725L557.968 4.86083C559.105 2.0593 556.393 -0.829778 553.593 0.220795L408.078 51.1736C405.278 52.1366 403.003 54.3253 401.866 57.1268L303.252 306.025C302.027 309.177 305.089 312.329 308.239 311.19L369.84 288.603C373.253 287.377 376.403 291.054 374.565 294.294L284.089 447.94C282.164 451.267 277.264 451.267 275.339 447.94L184.863 294.206C183.025 291.054 186.088 287.29 189.588 288.516L251.189 311.103C254.339 312.241 257.401 309.089 256.176 305.938L157.475 57.1268C156.337 54.3253 154.15 52.2242 151.262 51.1736L5.92267 0.220795C3.03513 -0.74223 0.410092 2.0593 1.54761 4.86083L78.0237 190.725C79.1612 193.526 76.3612 196.415 73.5611 195.365L5.31016 169.276C1.81011 167.962 -1.33993 171.727 0.585095 174.966L203.763 511.5C205.775 514.826 209.363 516.84 213.301 516.84H346.477C350.328 516.84 354.003 514.826 356.015 511.5L559.543 174.966C561.205 171.727 558.055 167.962 554.555 169.276Z" fill="#7927FF"/>
</svg>
