<svg viewBox="0 0 512 512" fill="none" xmlns="http://www.w3.org/2000/svg">
<path d="M0 140.8C0 91.5154 0 66.8731 9.59143 48.0488C18.0283 31.4906 31.4906 18.0283 48.0488 9.59143C66.8731 0 91.5154 0 140.8 0H371.2C420.485 0 445.127 0 463.951 9.59143C480.509 18.0283 493.972 31.4906 502.409 48.0488C512 66.8731 512 91.5154 512 140.8V371.2C512 420.485 512 445.127 502.409 463.951C493.972 480.509 480.509 493.972 463.951 502.409C445.127 512 420.485 512 371.2 512H140.8C91.5154 512 66.8731 512 48.0488 502.409C31.4906 493.972 18.0283 480.509 9.59143 463.951C0 445.127 0 420.485 0 371.2V140.8Z" fill="#2962EF"/>
<path d="M111.048 128C102.274 128 98.8931 138.85 106.256 143.382L290.443 254.441C295.034 257.267 301.157 256.15 304.319 251.909L385.301 145.594C390.807 138.208 385.244 128 375.713 128H111.048Z" fill="white"/>
<path d="M400.538 384C409.311 384 412.78 373.092 405.419 368.561L221.178 257.516C216.587 254.69 210.612 255.948 207.452 260.188L126.312 366.482C120.808 373.866 126.545 384 136.074 384H400.538Z" fill="white"/>
</svg>