<?xml version="1.0" encoding="UTF-8"?>
<svg width="19px" height="17px" viewBox="0 0 19 17" version="1.1" xmlns="http://www.w3.org/2000/svg" xmlns:xlink="http://www.w3.org/1999/xlink">
    <!-- Generator: Sketch 49.2 (51160) - http://www.bohemiancoding.com/sketch -->
    <title>metamask-icon</title>
    <desc>Created with Sketch.</desc>
    <defs></defs>
    <g id="Page-1" stroke="none" stroke-width="1" fill="none" fill-rule="evenodd">
        <g id="Artboard-3" transform="translate(-3545.000000, -515.000000)">
            <g id="metamask-icon" transform="translate(3545.000000, 515.000000)">
                <polygon id="Path-3-Copy" fill="#FFFFFF" opacity="0.300000012" transform="translate(14.818661, 4.533692) scale(-1, 1) translate(-14.818661, -4.533692) " points="18.5324122 5.28789467 12.0978223 0.455973592 11.1049093 3.14433539 11.5628161 5.91728629 11.1049093 6.15350722 11.7345445 6.63343902 11.2618252 6.95220633 11.860397 7.48362486 11.4549198 7.72539777 12.2566564 8.61140958 16.2880112 7.46632731"></polygon>
                <polygon id="Path-5-Copy" fill="#FFFFFF" opacity="0.200000003" transform="translate(14.252278, 13.591812) scale(-1, 1) translate(-14.252278, -13.591812) " points="13.1962173 12.1072649 15.3083388 12.1072649 14.9055902 15.0763591"></polygon>
                <polygon id="Path-7-Copy" fill="#FFFFFF" transform="translate(14.314340, 2.883825) scale(-1, 1) translate(-14.314340, -2.883825) " points="16.5570494 2.88957295 11.1005301 0.474305593 17.5281501 5.29334353"></polygon>
                <polygon id="Path-9-Copy" fill="#FFFFFF" opacity="0.400000006" transform="translate(12.816545, 9.819145) scale(-1, 1) translate(-12.816545, -9.819145) " points="14.8223555 8.83484394 14.4475955 10.8034455 13.8046929 9.744013 12.4791927 10.3470835 10.8107351 8.85002676"></polygon>
                <polygon id="Path-10-Copy" fill="#FFFFFF" opacity="0.349999994" transform="translate(11.849441, 11.600184) scale(-1, 1) translate(-11.849441, -11.600184) " points="10.5445708 10.3455187 12.5146053 10.8054752 13.1947787 12.5545707 12.5811081 12.8548489 10.504103 12.1076954"></polygon>
                <polygon id="Path-11-Copy" fill="#FFFFFF" opacity="0.300000012" transform="translate(13.985246, 10.480185) scale(-1, 1) translate(-13.985246, -10.480185) " points="14.7730562 12.1048474 14.8163879 10.3474632 13.1541045 8.85552309"></polygon>
                <polygon id="Path-12-Copy" fill="#FFFFFF" opacity="0.5" transform="translate(12.358582, 13.588443) scale(-1, 1) translate(-12.358582, -13.588443) " points="11.1150828 15.0738852 13.6020809 12.8544626 11.5215058 12.1030011"></polygon>
                <polygon id="Path-13-Copy" fill="#FFFFFF" opacity="0.400000006" transform="translate(12.360880, 14.029681) scale(-1, 1) translate(-12.360880, -14.029681) " points="11.1206641 15.0715152 13.4941179 15.2050114 13.6010951 12.8543513"></polygon>
                <polygon id="Combined-Shape" fill="#FFFFFF" opacity="0.400000006" points="9.82530827 15.9607537 9.82530827 15.970032 9.74368 15.9653929 9.66205173 15.970032 9.66205173 15.9607537 8.39313713 15.888638 6.8382039 15.5680898 5.88956835 15.071345 8.25795363 15.2038395 8.29380587 14.4468064 8.5810633 14.2338344 10.9062967 14.2338344 11.1935541 14.4468064 11.2294064 15.2038395 13.5977916 15.071345 12.6491561 15.5680898 11.0942229 15.888638"></polygon>
                <polygon id="Path-15-Copy" fill="#FFFFFF" opacity="0" transform="translate(10.446658, 13.501139) scale(-1, 1) translate(-10.446658, -13.501139) " points="11.1547514 14.2054983 11.1547514 12.5448972 10.3530148 12.5448972 9.88232018 12.8376692 9.73856491 14.45738 10.0179766 14.2054983"></polygon>
                <polygon id="Path-16-Copy" fill="#FFFFFF" opacity="0.200000003" transform="translate(10.773362, 10.694887) scale(-1, 1) translate(-10.773362, -10.694887) " points="10.7377679 8.83944658 11.0430813 12.5503281 10.3617624 10.8051347"></polygon>
                <polygon id="Combined-Shape" fill="#FFFFFF" opacity="0.600000024" points="9.74368 2.89736661 12.0737787 2.89063686 11.1043931 5.28709756 10.5031106 12.5524756 8.9842494 12.5524756 8.3829669 5.28709756 7.41358128 2.89063686"></polygon>
                <polygon id="Path-4-Copy" fill="#FFFFFF" opacity="0.600000024" transform="translate(15.999751, 9.982499) scale(-1, 1) translate(-15.999751, -9.982499) " points="14.5890529 8.61680443 13.1943391 12.4963273 16.6934851 12.1066937 18.8051636 12.1066937 17.1794716 8.84705436 18.6423866 7.46867118"></polygon>
                <polygon id="Path-6-Copy" fill="#FFFFFF" opacity="0.300000012" transform="translate(16.202703, 14.334791) scale(-1, 1) translate(-16.202703, -14.334791) " points="13.5997098 12.495103 14.6722797 16.5615795 18.8056964 15.0756399 17.0967044 12.1080031"></polygon>
                <polygon id="Path-8-Copy" fill="#FFFFFF" opacity="0.800000012" transform="translate(12.816652, 7.067649) scale(-1, 1) translate(-12.816652, -7.067649) " points="14.529277 5.28635118 14.8228883 8.83584565 10.8104155 8.84894649"></polygon>
                <rect id="Mask" x="0.3592" y="0.1334875" width="9.38448" height="17.055675"></rect>
                <polygon id="Path-3-Copy" fill="#FFFFFF" opacity="0.300000012" points="8.38245073 5.28789467 1.94786084 0.455973592 0.954947813 3.14433539 1.41285468 5.91728629 0.954947813 6.15350722 1.58458308 6.63343902 1.11186377 6.95220633 1.71043554 7.48362486 1.30495831 7.72539777 2.10669495 8.61140958 6.1380497 7.46632731"></polygon>
                <polygon id="Path-5-Copy" fill="#FFFFFF" opacity="0.200000003" points="4.17902125 12.1072649 6.29114266 12.1072649 5.88839415 15.0763591"></polygon>
                <polygon id="Path-7-Copy" fill="#FFFFFF" points="7.41572922 2.88957295 1.95920994 0.474305593 8.38682985 5.29334353"></polygon>
                <polygon id="Path-9-Copy" fill="#FFFFFF" opacity="0.400000006" points="8.67662485 8.83484394 8.30186479 10.8034455 7.65896227 9.744013 6.33346201 10.3470835 4.66500449 8.85002676"></polygon>
                <polygon id="Path-10-Copy" fill="#FFFFFF" opacity="0.349999994" points="6.33304908 10.3455187 8.30308362 10.8054752 8.98325702 12.5545707 8.36958642 12.8548489 6.29258128 12.1076954"></polygon>
                <polygon id="Path-11-Copy" fill="#FFFFFF" opacity="0.300000012" points="6.28992383 12.1048474 6.33325555 10.3474632 4.67097209 8.85552309"></polygon>
                <polygon id="Path-12-Copy" fill="#FFFFFF" opacity="0.5" points="5.88527914 15.0738852 8.37227717 12.8544626 6.29170212 12.1030011"></polygon>
                <polygon id="Path-13-Copy" fill="#FFFFFF" opacity="0.329999983" points="5.88626486 15.0715152 8.25971861 15.2050114 8.36669586 12.8543513"></polygon>
                <polygon id="Path-15-Copy" fill="#FFFFFF" opacity="0" points="9.74879509 14.2054983 9.74879509 12.5448972 8.94705845 12.5448972 8.47636386 12.8376692 8.3326086 14.45738 8.61202024 14.2054983"></polygon>
                <polygon id="Path-16-Copy" fill="#FFFFFF" opacity="0.200000003" points="8.67840315 8.83944658 8.98371657 12.5503281 8.30239761 10.8051347"></polygon>
                <polygon id="Path-4-Copy" fill="#FFFFFF" opacity="0.600000024" points="2.07691022 8.61680443 0.682196444 12.4963273 4.18134235 12.1066937 6.29302086 12.1066937 4.66732892 8.84705436 6.13024386 7.46867118"></polygon>
                <polygon id="Path-6-Copy" fill="#FFFFFF" opacity="0.300000012" points="0.681663623 12.495103 1.75423347 16.5615795 5.88765019 15.0756399 4.17865826 12.1080031"></polygon>
                <polygon id="Path-8-Copy" fill="#FFFFFF" opacity="0.800000012" points="8.38333321 5.28635118 8.67694455 8.83584565 4.66447166 8.84894649"></polygon>
            </g>
        </g>
    </g>
</svg>