<?xml version="1.0" encoding="UTF-8"?>
<svg width="136px" height="147px" viewBox="0 0 136 147" version="1.1" xmlns="http://www.w3.org/2000/svg" xmlns:xlink="http://www.w3.org/1999/xlink">
    <!-- Generator: Sketch 49.2 (51160) - http://www.bohemiancoding.com/sketch -->
    <title>trezor</title>
    <desc>Created with Sketch.</desc>
    <defs></defs>
    <g id="Page-1" stroke="none" stroke-width="1" fill="none" fill-rule="evenodd">
        <g id="Artboard-3" transform="translate(-3733.000000, -322.000000)">
            <g id="trezor" transform="translate(3806.000000, 399.500000) rotate(-40.000000) translate(-3806.000000, -399.500000) translate(3767.000000, 323.000000)">
                <path d="M44.6658751,0.132118375 C51.8237064,0.42844865 62.3176823,1.5357881 66.1080438,2.39358626 C66.6718992,2.51835691 67.5176823,2.70551287 67.9875618,2.78349452 C69.0369594,2.97065049 70.8538269,3.71927434 71.8718992,4.35872388 C74.6911763,6.18349452 76.8056341,9.05321929 77.6514173,12.203678 C77.933345,13.2642285 77.9490076,14.8082652 77.9490076,57.6669808 C77.9490076,105.251384 77.9803329,103.707348 77.1502124,109.056889 C76.586357,112.737623 75.3490076,117.666063 74.2212968,120.754137 C72.8586462,124.528449 70.5718992,129.488082 69.0369594,132.061476 C67.1417787,135.243128 60.7984052,146.285329 60.7984052,146.425696 C60.7984052,146.503678 60.7357546,146.566063 60.6417787,146.566063 C60.5634655,146.566063 60.3911763,146.753219 60.2658751,146.987164 C59.9212968,147.657806 58.6682847,149.061476 57.6032245,149.950467 C56.4285257,150.948632 54.2514173,152.071568 52.5755137,152.523861 C51.3381643,152.866981 51.2285257,152.866981 38.9490076,152.866981 C26.6225016,152.866981 26.5755137,152.866981 25.3225016,152.523861 C22.8947908,151.853219 20.9369594,150.699091 19.2610558,148.967898 C18.3369594,148.016522 17.9453932,147.501843 17.506839,146.722027 C17.3345498,146.378907 15.4706944,143.18166 13.3875618,139.594504 C11.320092,136.007348 9.51888715,132.888082 9.40924859,132.654137 C9.29961004,132.404595 9.15864618,132.217439 9.09599558,132.217439 C8.90804377,132.217439 5.759851,125.776155 4.82009197,123.467898 C4.05262209,121.54955 2.78394739,117.712852 2.15744136,115.295421 C1.17069437,111.536706 0.230935339,105.6101 0.0586461821,102.085329 C-0.00400442035,100.775238 -0.019667071,80.156889 0.0273208809,56.263311 L0.121296784,12.8275312 L0.5285257,11.7357881 C1.78153775,8.38257709 3.30081486,6.32386149 5.80683895,4.63945782 C6.91888715,3.89083397 9.04900763,2.97065049 9.89479076,2.86147617 C10.1923811,2.83028351 10.8345498,2.68991654 11.3044293,2.54954957 C12.5574414,2.2064303 15.4080438,1.75413672 19.7622606,1.22386149 C29.0345498,0.100925714 36.0044293,-0.211000891 44.6658751,0.132118375 Z" id="Shape-Copy-3" stroke="#000000" stroke-width="0.78" fill="#161616" fill-rule="nonzero"></path>
                <rect id="Rectangle-Copy-3" fill="#000000" x="4.85542169" y="34.7798165" width="67.8192771" height="39.9266055" rx="5.148"></rect>
                <path d="M10.0048448,34.7798165 L67.548,34.7798165 C70.3911619,34.7798165 72.696,37.0846546 72.696,39.9278165 L72.696,69.558422 C72.696,72.4015839 70.3911619,74.706422 67.548,74.706422 L10.0048448,74.706422 C7.16168294,74.706422 4.85684483,72.4015839 4.85684483,69.558422 L4.85684483,39.9278165 C4.85684483,37.0846546 7.16168294,34.7798165 10.0048448,34.7798165 Z M10.4775517,35.7155963 C7.97901552,35.7155963 5.95355172,37.7410601 5.95355172,40.2395963 L5.95355172,69.2466422 C5.95355172,71.7451784 7.97901552,73.7706422 10.4775517,73.7706422 L67.2319655,73.7706422 C69.7305017,73.7706422 71.7559655,71.7451784 71.7559655,69.2466422 L71.7559655,40.2395963 C71.7559655,37.7410601 69.7305017,35.7155963 67.2319655,35.7155963 L10.4775517,35.7155963 Z" id="Combined-Shape-Copy-6" fill="#000000"></path>
                <path d="M10.0331892,79.0733945 L30.42,79.0733945 C32.9185362,79.0733945 34.944,81.0988583 34.944,83.5973945 L34.944,89.3659083 C34.944,91.8644445 32.9185362,93.8899083 30.42,93.8899083 L10.0331892,93.8899083 C7.53465298,93.8899083 5.50918919,91.8644445 5.50918919,89.3659083 L5.50918919,83.5973945 C5.50918919,81.0988583 7.53465298,79.0733945 10.0331892,79.0733945 Z M10.198446,79.6344968 C7.95837909,79.6344968 6.14244604,81.4504299 6.14244604,83.6904968 L6.14244604,89.2728059 C6.14244604,91.5128729 7.95837909,93.3288059 10.198446,93.3288059 L30.3227219,93.3288059 C32.5627889,93.3288059 34.3787219,91.5128729 34.3787219,89.2728059 L34.3787219,83.6904968 C34.3787219,81.4504299 32.5627889,79.6344968 30.3227219,79.6344968 L10.198446,79.6344968 Z" id="Combined-Shape-Copy-5" fill="#000000"></path>
                <path d="M47.765987,79.0733945 L68.016,79.0733945 C70.5145362,79.0733945 72.54,81.0988583 72.54,83.5973945 L72.54,89.3659083 C72.54,91.8644445 70.5145362,93.8899083 68.016,93.8899083 L47.765987,93.8899083 C45.2674508,93.8899083 43.241987,91.8644445 43.241987,89.3659083 L43.241987,83.5973945 C43.241987,81.0988583 45.2674508,79.0733945 47.765987,79.0733945 Z M47.9283008,79.6344968 C45.6882339,79.6344968 43.8723008,81.4504299 43.8723008,83.6904968 L43.8723008,89.2728059 C43.8723008,91.5128729 45.6882339,93.3288059 47.9283008,93.3288059 L67.921349,93.3288059 C70.161416,93.3288059 71.977349,91.5128729 71.977349,89.2728059 L71.977349,83.6904968 C71.977349,81.4504299 70.161416,79.6344968 67.921349,79.6344968 L47.9283008,79.6344968 Z" id="Combined-Shape-Copy-4" fill="#000000"></path>
                <g id="Group-Copy" transform="translate(31.168675, 43.201835)" fill-rule="nonzero" stroke="#FFFFFF" stroke-width="0.65">
                    <path d="M7.76548673,0 C4.67488538,0 2.17371255,2.47602538 2.17371255,5.535553 L2.17371255,7.61022763 C1.08841561,7.80472838 0,8.06406271 0,8.40057987 L0,19.2277881 C0,19.2277881 0,19.5272575 0.339934961,19.6692739 C1.57180936,20.1632441 6.41822156,21.8612665 7.53158652,22.250268 C7.67504531,22.3027523 7.71558802,22.3027523 7.75301205,22.3027523 C7.80602943,22.3027523 7.83097878,22.3027523 7.97443757,22.250268 C9.08780254,21.8612665 13.9466894,20.1632441 15.1785638,19.6692739 C15.4935494,19.5396068 15.5060241,19.2401374 15.5060241,19.2401374 L15.5060241,8.40057987 C15.5060241,8.06406271 14.4332018,7.79237912 13.3447862,7.61022763 L13.3447862,5.535553 C13.3603796,2.47602538 10.8436134,0 7.76548673,0 Z M7.76548673,2.64582762 C9.58678964,2.64582762 10.6876799,3.73564926 10.6876799,5.53864031 L10.6876799,7.34163136 C8.64495149,7.19961494 6.90161531,7.19961494 4.8464122,7.34163136 L4.8464122,5.53864031 C4.8464122,3.73256195 5.94730248,2.64582762 7.76548673,2.64582762 Z M7.75301205,9.99672092 C10.2947276,9.99672092 12.4278974,10.1912217 12.4278974,10.5400881 L12.4278974,17.2951299 C12.4278974,17.4000986 12.4154228,17.4124478 12.3218627,17.4494956 C12.2314213,17.4896306 7.98691225,19.0055015 7.98691225,19.0055015 C7.98691225,19.0055015 7.81538544,19.0579859 7.76548673,19.0579859 C7.71246935,19.0579859 7.5440612,18.9931523 7.5440612,18.9931523 C7.5440612,18.9931523 3.29955219,17.4772814 3.20911078,17.4371463 C3.11866937,17.3970112 3.10307602,17.384662 3.10307602,17.2827806 L3.10307602,10.5277388 C3.07812667,10.1788724 5.21129651,9.99672092 7.75301205,9.99672092 Z" id="Combined-Shape-Copy-3"></path>
                </g>
            </g>
        </g>
    </g>
</svg>