<svg width="48" height="48" fill="none" xmlns="http://www.w3.org/2000/svg"><path d="M24.001 6.395a4 4 0 0 1 3.998 0l9 5.193A4 4 0 0 1 39 15.052v10.38a4 4 0 0 1-2.001 3.465L26 35.242l-10.999-6.345A4 4 0 0 1 13 25.432v-12.69l11.001-6.347Z" fill="#1AC6FF"/><path d="m13.01 12.742 10.999 6.345a4 4 0 0 1 2 3.465v12.69l-11 6.347a4 4 0 0 1-3.998 0l-9-5.193A4 4 0 0 1 .01 32.932v-10.38a4 4 0 0 1 2-3.465l11-6.345Z" fill="#2BEE6C"/><path d="m26.01 35.236-11.005-6.34A4 4 0 0 1 13 25.429l.009-12.686 10.999 6.345a4 4 0 0 1 2 3.465v12.684Z" fill="#fff"/></svg>