<svg width="600" height="378" fill="none" xmlns="http://www.w3.org/2000/svg"><g style="mix-blend-mode:lighten" clip-path="url(#a)"><path fill="url(#b)" d="M0 0h600v378H0z"/><path fill="url(#c)" fill-opacity=".6" d="M0 0h599.016v378H0z"/><path fill-rule="evenodd" clip-rule="evenodd" d="M36 0H-4v60h60V20C56 8.954 47.046 0 36 0Zm20 203c0-11.046-8.954-20-20-20H-4v40c0 11.046 8.954 20 20 20h40v-40ZM36 366c11.046 0 20 8.954 20 20v40H16c-11.046 0-20-8.954-20-20v-40h40ZM56 61H-4v60h40c11.046 0 20-8.954 20-20V61ZM-4 244h60v40c0 11.046-8.954 20-20 20H-4v-60Zm20-122c-11.046 0-20 8.954-20 20v20c0 11.046 8.954 20 20 20h40v-60H16ZM-4 305h60v60H-4v-60ZM117 0H57v60h40c11.046 0 20-8.954 20-20V0ZM57 183h60v40c0 11.046-8.954 20-20 20H57v-60Zm60 183H57v60h40c11.046 0 20-8.954 20-20v-40ZM57 61h60v60H57V61Zm60 183H57v60h40c11.046 0 20-8.954 20-20v-40ZM57 142c0-11.046 8.954-20 20-20h40v60H57v-40Zm20 163c-11.046 0-20 8.954-20 20v40h60v-60H77ZM118 0h60v60h-60V0Zm60 183h-60v60h60v-60Zm-60 183h60v60h-60v-60Zm20-305c-11.046 0-20 8.954-20 20v40h60V61h-40Zm-20 203c0-11.046 8.954-20 20-20h40v60h-60v-40Zm20-142c-11.046 0-20 8.954-20 20v20c0 11.046 8.954 20 20 20h40v-60h-40Zm-20 203c0-11.046 8.954-20 20-20h40v60h-40c-11.046 0-20-8.954-20-20v-20ZM199 0c-11.046 0-20 8.954-20 20v40h40c11.046 0 20-8.954 20-20V0h-40Zm-20 203c0-11.046 8.954-20 20-20h40v40c0 11.046-8.954 20-20 20h-40v-40Zm20 163c-11.046 0-20 8.954-20 20v40h40c11.046 0 20-8.954 20-20v-40h-40ZM179 81c0-11.046 8.954-20 20-20h40v60h-40c-11.046 0-20-8.954-20-20V81Zm20 163c-11.046 0-20 8.954-20 20v20c0 11.046 8.954 20 20 20h40v-60h-40Zm-20-122h40c11.046 0 20 8.954 20 20v40h-40c-11.046 0-20-8.954-20-20v-40Zm60 203c0-11.046-8.954-20-20-20h-40v40c0 11.046 8.954 20 20 20h40v-40Zm1-325h60v60h-60V0Zm60 183h-60v60h60v-60Zm-60 183h60v60h-60v-60Zm60-305h-60v60h40c11.046 0 20-8.954 20-20V61Zm-60 183h60v40c0 11.046-8.954 20-20 20h-40v-60Zm20-122c-11.046 0-20 8.954-20 20v40h60v-60h-40Zm-20 203c0-11.046 8.954-20 20-20h40v60h-60v-40ZM321 0c-11.046 0-20 8.954-20 20v40h60V0h-40Zm-20 203c0-11.046 8.954-20 20-20h40v60h-60v-40Zm20 163c-11.046 0-20 8.954-20 20v40h60v-60h-40ZM301 81c0-11.046 8.954-20 20-20h40v40c0 11.046-8.954 20-20 20h-40V81Zm20 163c-11.046 0-20 8.954-20 20v40h40c11.046 0 20-8.954 20-20v-40h-40Zm-20-122h60v40c0 11.046-8.954 20-20 20h-20c-11.046 0-20-8.954-20-20v-40Zm60 183h-60v40c0 11.046 8.954 20 20 20h20c11.046 0 20-8.954 20-20v-40Zm1-285c0-11.046 8.954-20 20-20h40v60h-40c-11.046 0-20-8.954-20-20V20Zm20 163c-11.046 0-20 8.954-20 20v20c0 11.046 8.954 20 20 20h40v-60h-40Zm-20 203c0-11.046 8.954-20 20-20h40v60h-40c-11.046 0-20-8.954-20-20v-20Zm40-325h-40v60h40c11.046 0 20-8.954 20-20V81c0-11.046-8.954-20-20-20Zm-40 183h60v40c0 11.046-8.954 20-20 20h-40v-60Zm40-122h-40v60h40c11.046 0 20-8.954 20-20v-20c0-11.046-8.954-20-20-20Zm-40 183h40c11.046 0 20 8.954 20 20v20c0 11.046-8.954 20-20 20h-40v-60ZM443 0c-11.046 0-20 8.954-20 20v40h40c11.046 0 20-8.954 20-20V0h-40Zm-20 203c0-11.046 8.954-20 20-20h40v40c0 11.046-8.954 20-20 20h-40v-40Zm20 163c-11.046 0-20 8.954-20 20v40h40c11.046 0 20-8.954 20-20v-40h-40ZM423 61h60v60h-60V61Zm60 183h-60v60h60v-60Zm-60-122h60v40c0 11.046-8.954 20-20 20h-20c-11.046 0-20-8.954-20-20v-40Zm60 183h-60v40c0 11.046 8.954 20 20 20h20c11.046 0 20-8.954 20-20v-40Zm1-285c0-11.046 8.954-20 20-20h20c11.046 0 20 8.954 20 20v40h-60V20Zm20 163c-11.046 0-20 8.954-20 20v40h60v-40c0-11.046-8.954-20-20-20h-20Zm-20 203c0-11.046 8.954-20 20-20h20c11.046 0 20 8.954 20 20v40h-60v-40Zm40-325h-40v40c0 11.046 8.954 20 20 20h40V81c0-11.046-8.954-20-20-20Zm-40 183h40c11.046 0 20 8.954 20 20v40h-40c-11.046 0-20-8.954-20-20v-40Zm20-122c-11.046 0-20 8.954-20 20v40h60v-60h-40Zm-20 203c0-11.046 8.954-20 20-20h40v60h-60v-40ZM605 0h-60v60h40c11.046 0 20-8.954 20-20V0Zm-60 183h60v40c0 11.046-8.954 20-20 20h-40v-60Zm60 183h-60v60h40c11.046 0 20-8.954 20-20v-40ZM545 61h40c11.046 0 20 8.954 20 20v40h-60V61Zm40 183h-40v60h60v-40c0-11.046-8.954-20-20-20Zm-40-102c0-11.046 8.954-20 20-20h40v60h-40c-11.046 0-20-8.954-20-20v-20Zm20 163c-11.046 0-20 8.954-20 20v40h40c11.046 0 20-8.954 20-20v-40h-40Z" fill="url(#d)"/></g><defs><linearGradient id="b" x1="0" y1="0" x2="649.075" y2="126.811" gradientUnits="userSpaceOnUse"><stop stop-color="#272A2A"/><stop offset="1" stop-color="#141414"/></linearGradient><linearGradient id="d" x1="-4" y1="0" x2="659.418" y2="116.734" gradientUnits="userSpaceOnUse"><stop stop-color="#272A2A"/><stop offset="1" stop-color="#141414"/></linearGradient><radialGradient id="c" cx="0" cy="0" r="1" gradientUnits="userSpaceOnUse" gradientTransform="matrix(31.55166 242.07748 -386.44838 50.36853 312.535 157.659)"><stop offset=".026" stop-color="#0F35FF"/><stop offset=".62" stop-color="#A197F5"/><stop offset="1" stop-color="#F09"/></radialGradient><clipPath id="a"><path fill="#fff" d="M0 0h600v378H0z"/></clipPath></defs></svg>