<svg xmlns="http://www.w3.org/2000/svg" viewBox="0 0 160 160"><defs><style>.cls-1{fill:none;stroke:#b32f9d;stroke-miterlimit:10;stroke-width:4px;}.cls-2{fill:#b32f9d;}</style></defs><title>Business - 160x160 - colored with light background</title><g id="Business_-_160x160_-_colored_with_light_background" data-name="Business - 160x160 - colored with light background"><rect class="cls-1" x="7.99" y="7.99" width="144.01" height="144.01" rx="12"/><path class="cls-2" d="M110.73,78.06c-13-21.47-25.45-42.25-26.88-44.18a5.7,5.7,0,0,0-3.29-2.38H79.5a5.64,5.64,0,0,0-3.29,2.34C74.74,35.76,62.29,56.54,49.33,78c-14.89,24.7-31.06,50.48-31.06,50.48H34.44L74.72,62.44s2.77-4.66,5.27-4.59h0c2.48-.07,5.26,4.59,5.26,4.59l40.31,66.06h16.17S125.63,102.72,110.73,78.06Z"/><path class="cls-2" d="M85.88,75.59H74.12a4.41,4.41,0,0,0,0,8.82H85.88a4.41,4.41,0,1,0,0-8.82Z"/></g></svg>