<svg height="246" viewBox="0 0 400 246" width="400" xmlns="http://www.w3.org/2000/svg"><path d="m81.9180572 48.3416816c65.2149658-63.8508884 170.9493158-63.8508884 236.1642788 0l7.848727 7.6845565c3.260748 3.1925442 3.260748 8.3686816 0 11.5612272l-26.848927 26.2873374c-1.630375 1.5962734-4.273733 1.5962734-5.904108 0l-10.800779-10.5748639c-45.495589-44.5439756-119.258514-44.5439756-164.754105 0l-11.566741 11.3248068c-1.630376 1.5962721-4.273735 1.5962721-5.904108 0l-26.8489263-26.2873375c-3.2607483-3.1925456-3.2607483-8.3686829 0-11.5612272zm291.6903948 54.3649934 23.895596 23.395862c3.260732 3.19253 3.260751 8.368636.000041 11.561187l-107.746894 105.494845c-3.260726 3.192568-8.547443 3.192604-11.808214.000083-.000013-.000013-.000029-.000029-.000042-.000043l-76.472191-74.872762c-.815187-.798136-2.136867-.798136-2.952053 0-.000006.000005-.00001.00001-.000015.000014l-76.470562 74.872708c-3.260715 3.192576-8.547434 3.19263-11.808215.000116-.000019-.000018-.000039-.000037-.000059-.000058l-107.74989297-105.496247c-3.26074695-3.192544-3.26074695-8.368682 0-11.561226l23.89563947-23.395823c3.260747-3.1925446 8.5474652-3.1925446 11.8082136 0l76.4733029 74.873809c.815188.798136 2.136866.798136 2.952054 0 .000012-.000012.000023-.000023.000035-.000032l76.469471-74.873777c3.260673-3.1926181 8.547392-3.1927378 11.808214-.000267.000046.000045.000091.00009.000135.000135l76.473203 74.873909c.815186.798135 2.136866.798135 2.952053 0l76.471967-74.872433c3.260748-3.1925458 8.547465-3.1925458 11.808213 0z" fill="#3b99fc"/></svg>