<?xml version="1.0" encoding="UTF-8"?>
<svg width="397px" height="355px" viewBox="0 0 397 355" version="1.1" xmlns="http://www.w3.org/2000/svg" xmlns:xlink="http://www.w3.org/1999/xlink">
    <!-- Generator: Sketch 52.6 (67491) - http://www.bohemiancoding.com/sketch -->
    <title>metamask</title>
    <desc>Created with Sketch.</desc>
    <g id="Page-1" stroke="none" stroke-width="1" fill="none" fill-rule="evenodd">
        <g id="metamask" transform="translate(-1.000000, -1.000000)">
            <polygon id="Path-16" fill="#CDBDB2" points="114.622644 327.195472 166.627361 341.00567 166.627361 322.94618 170.872644 318.696888 200.589626 318.696888 200.589626 339.943347 200.589626 354.81587 168.750002 354.81587 129.481134 337.818701"></polygon>
            <polygon id="Path-16-Copy" fill="#CDBDB2" transform="translate(241.981135, 336.756379) scale(-1, 1) translate(-241.981135, -336.756379) " points="199.528305 327.195472 250.471702 341.00567 250.471702 322.94618 254.716985 318.696888 284.433966 318.696888 284.433966 339.943347 284.433966 354.81587 252.594343 354.81587 213.325475 337.818701"></polygon>
            <polygon id="Path-17" fill="#393939" points="170.872644 287.889523 166.627361 322.94618 171.933965 318.696888 227.122645 318.696888 233.49057 322.94618 229.245286 287.889523 220.754721 282.577908 178.301889 283.640231"></polygon>
            <polygon id="Path-20" fill="#F89C35" points="142.216984 50.9915022 167.688682 110.481588 179.36321 283.640231 220.754721 283.640231 233.49057 110.481588 256.839626 50.9915022"></polygon>
            <g id="face/left">
                <polygon id="Path-15" fill="#F89D35" points="30.7783023 181.657226 1.06132077 267.705387 75.3537747 263.456094 123.113209 263.456094 123.113209 226.274791 120.990568 149.787538 110.37736 158.286121"></polygon>
                <polygon id="Path-8" fill="#D87C30" points="87.0283032 191.218134 174.056606 193.34278 164.50472 237.960343 123.113209 227.337114"></polygon>
                <polygon id="Path-9" fill="#EA8D3A" points="87.0283032 192.280457 123.113209 226.274791 123.113209 260.269125"></polygon>
                <polygon id="Path-10" fill="#F89D35" points="123.113209 227.337114 165.56604 237.960343 179.36321 283.640231 169.811324 288.951846 123.113209 261.331448"></polygon>
                <polygon id="Path-11" fill="#EB8F35" points="123.113209 261.331448 114.622644 327.195472 170.872644 287.889523"></polygon>
                <polygon id="Path-12" fill="#EA8E3A" points="174.056606 193.34278 179.36321 283.640231 163.443398 237.429182"></polygon>
                <polygon id="Path-13" fill="#D87C30" points="74.2924539 262.393771 123.113209 261.331448 114.622644 327.195472"></polygon>
                <polygon id="Path-14" fill="#EB8F35" points="24.4103777 355.878193 114.622644 327.195472 74.2924539 262.393771 1.06132077 267.705387"></polygon>
                <polygon id="Path-7" fill="#E8821E" points="167.688682 110.481588 122.051889 148.725215 87.0283032 191.218134 174.056606 194.405103"></polygon>
                <polygon id="Path-18" fill="#DFCEC3" points="114.622644 327.195472 170.872644 287.889523 166.627361 321.883857 166.627361 341.00567 128.419813 333.56941"></polygon>
                <polygon id="Path-18-Copy" fill="#DFCEC3" transform="translate(256.839626, 314.447597) scale(-1, 1) translate(-256.839626, -314.447597) " points="229.245286 327.195472 284.433966 287.889523 280.188683 321.883857 280.188683 341.00567 241.981135 333.56941"></polygon>
                <polygon id="Path-19-Copy" fill="#393939" transform="translate(141.686323, 224.681307) scale(-1, 1) translate(-141.686323, -224.681307) " points="132.665096 212.464593 120.990568 236.89802 162.382078 226.274791"></polygon>
                <polygon id="Path-21" fill="#E88F35" points="23.349057 1.06232296 167.688682 110.481588 143.278304 50.9915022"></polygon>
                <path d="M23.349057,1.06232296 L4.24528308,59.4900859 L14.8584908,123.229464 L7.42924539,127.478756 L18.0424531,137.039662 L9.55188693,144.475923 L21.2264154,155.099152 L13.79717,161.47309 L30.7783023,182.719549 L110.37736,158.286121 C149.292456,127.124648 168.396229,111.189803 167.688682,110.481588 C166.981134,109.773373 118.867926,73.3002844 23.349057,1.06232296 Z" id="Path-22" fill="#8E5A30"></path>
            </g>
            <g id="face/left-copy" transform="translate(308.971625, 178.470255) scale(-1, 1) translate(-308.971625, -178.470255) translate(218.886639, 0.000000)">
                <polygon id="Path-15" fill="#F89D35" points="30.7783023 181.657226 1.06132077 267.705387 75.3537747 263.456094 123.113209 263.456094 123.113209 226.274791 120.990568 149.787538 110.37736 158.286121"></polygon>
                <polygon id="Path-8" fill="#D87C30" points="87.0283032 191.218134 174.056606 193.34278 164.50472 237.960343 123.113209 227.337114"></polygon>
                <polygon id="Path-9" fill="#EA8D3A" points="87.0283032 192.280457 123.113209 226.274791 123.113209 260.269125"></polygon>
                <polygon id="Path-10" fill="#F89D35" points="123.113209 227.337114 165.56604 237.960343 179.36321 283.640231 169.811324 288.951846 123.113209 261.331448"></polygon>
                <polygon id="Path-11" fill="#EB8F35" points="123.113209 261.331448 114.622644 327.195472 169.811324 288.951846"></polygon>
                <polygon id="Path-12" fill="#EA8E3A" points="174.056606 193.34278 179.36321 283.640231 163.443398 237.429182"></polygon>
                <polygon id="Path-13" fill="#D87C30" points="74.2924539 262.393771 123.113209 261.331448 114.622644 327.195472"></polygon>
                <polygon id="Path-14" fill="#EB8F35" points="24.4103777 355.878193 114.622644 327.195472 74.2924539 262.393771 1.06132077 267.705387"></polygon>
                <polygon id="Path-7" fill="#E8821E" points="167.688682 110.481588 122.051889 148.725215 87.0283032 191.218134 174.056606 194.405103"></polygon>
                <polygon id="Path-19-Copy" fill="#393939" transform="translate(141.686323, 224.681307) scale(-1, 1) translate(-141.686323, -224.681307) " points="132.665096 212.464593 120.990568 236.89802 162.382078 226.274791"></polygon>
                <polygon id="Path-21" fill="#E88F35" points="23.349057 1.06232296 167.688682 110.481588 143.278304 50.9915022"></polygon>
                <path d="M23.349057,1.06232296 L4.24528308,59.4900859 L14.8584908,123.229464 L7.42924539,127.478756 L18.0424531,137.039662 L9.55188693,144.475923 L21.2264154,155.099152 L13.79717,161.47309 L30.7783023,182.719549 L110.37736,158.286121 C149.292456,127.124648 168.396229,111.189803 167.688682,110.481588 C166.981134,109.773373 118.867926,73.3002844 23.349057,1.06232296 Z" id="Path-22" fill="#8E5A30"></path>
            </g>
        </g>
    </g>
</svg>