<?xml version="1.0" encoding="UTF-8"?>
<svg width="512px" height="512px" viewBox="0 0 512 512" version="1.1" xmlns="http://www.w3.org/2000/svg" xmlns:xlink="http://www.w3.org/1999/xlink">
    <!-- Generator: Sketch 52.6 (67491) - http://www.bohemiancoding.com/sketch -->
    <title>qrcode-circle-4</title>
    <desc>Created with Sketch.</desc>
    <defs>
        <radialGradient cx="0%" cy="50%" fx="0%" fy="50%" r="100%" id="radialGradient-1">
            <stop stop-color="#5D9DF6" offset="0%"></stop>
            <stop stop-color="#006FFF" offset="100%"></stop>
        </radialGradient>
    </defs>
    <g id="Page-1" stroke="none" stroke-width="1" fill="none" fill-rule="evenodd">
        <g id="qrcode-circle-4">
            <path d="M256,0 L256,0 C397.384896,-2.5971984e-14 512,114.615104 512,256 L512,256 C512,397.384896 397.384896,512 256,512 L256,512 C114.615104,512 1.7314656e-14,397.384896 0,256 L0,256 C-1.7314656e-14,114.615104 114.615104,2.5971984e-14 256,0 Z" id="base" fill="url(#radialGradient-1)"></path>
            <g id="qrcode4" transform="translate(136.000000, 136.000000)" fill="#FFFFFF">
                <path d="M0,0 L0,79.6875 L79.6875,79.6875 L79.6875,0 L0,0 Z M60.9375,60.9375 L18.75,60.9375 L18.75,18.75 L60.9375,18.75 L60.9375,60.9375 Z" id="Shape" fill-rule="nonzero"></path>
                <rect id="Rectangle" x="30.46875" y="30.46875" width="18.75" height="18.75"></rect>
                <path d="M160.3125,0 L160.3125,79.6875 L240,79.6875 L240,0 L160.3125,0 Z M221.25,60.9375 L179.0625,60.9375 L179.0625,18.75 L221.25,18.75 L221.25,60.9375 Z" id="Shape" fill-rule="nonzero"></path>
                <rect id="Rectangle" x="190.78125" y="30.46875" width="18.75" height="18.75"></rect>
                <path d="M0,160.3125 L0,240 L79.6875,240 L79.6875,160.3125 L0,160.3125 Z M60.9375,221.25 L18.75,221.25 L18.75,179.0625 L60.9375,179.0625 L60.9375,221.25 Z" id="Shape" fill-rule="nonzero"></path>
                <rect id="Rectangle" x="30.46875" y="190.78125" width="18.75" height="18.75"></rect>
                <rect id="Rectangle" x="18.75" y="92.34375" width="18.75" height="18.75"></rect>
                <polygon id="Path" points="56.25 129.84375 56.25 111.09375 37.5 111.09375 37.5 129.84375 55.78125 129.84375 55.78125 148.59375 74.53125 148.59375 74.53125 129.84375"></polygon>
                <rect id="Rectangle" x="131.25" y="36.09375" width="18.75" height="18.75"></rect>
                <rect id="Rectangle" x="93.75" y="18.75" width="18.75" height="36.09375"></rect>
                <rect id="Rectangle" x="112.5" y="0" width="18.75" height="18.75"></rect>
                <polygon id="Path" points="112.5 54.84375 112.5 73.59375 93.75 73.59375 93.75 92.34375 131.25 92.34375 131.25 54.84375"></polygon>
                <polygon id="Path" points="131.25 166.40625 131.25 148.125 112.5 148.125 112.5 111.09375 93.75 111.09375 93.75 148.59375 112.5 148.59375 112.5 166.875 131.25 166.875 131.25 185.15625 168.75 185.15625 168.75 166.40625"></polygon>
                <rect id="Rectangle" x="131.25" y="92.34375" width="18.75" height="37.5"></rect>
                <path d="M221.25,110.625 L221.25,92.34375 L187.03125,92.34375 L187.03125,111.09375 L168.75,111.09375 L168.75,129.84375 L187.5,129.84375 L187.5,148.125 L240,148.125 L240,110.625 L221.25,110.625 Z M221.25,129.375 L187.5,129.375 L187.5,111.09375 L221.25,111.09375 L221.25,129.375 Z" id="Shape" fill-rule="nonzero"></path>
                <rect id="Rectangle" x="221.25" y="166.40625" width="18.75" height="37.5"></rect>
                <rect id="Rectangle" x="150" y="129.84375" width="18.75" height="18.75"></rect>
                <rect id="Rectangle" x="168.75" y="185.15625" width="18.75" height="18.75"></rect>
                <rect id="Rectangle" x="187.5" y="166.40625" width="18.75" height="18.75"></rect>
                <polygon id="Path" points="187.5 203.90625 187.5 240 206.25 240 206.25 222.65625 221.25 222.65625 221.25 203.90625"></polygon>
                <rect id="Rectangle" x="93.75" y="166.875" width="18.75" height="35.625"></rect>
                <polygon id="Path" points="150 221.25 150 202.5 112.5 202.5 112.5 240 131.25 240 131.25 221.25 149.53125 221.25 149.53125 240 168.28125 240 168.28125 221.25"></polygon>
                <rect id="Rectangle" x="56.25" y="92.34375" width="37.5" height="18.75"></rect>
                <rect id="Rectangle" x="0" y="111.09375" width="18.75" height="37.5"></rect>
            </g>
        </g>
    </g>
</svg>