<svg fill="none" height="120" viewBox="0 0 118 120" width="118" xmlns="http://www.w3.org/2000/svg" xmlns:xlink="http://www.w3.org/1999/xlink"><mask id="a" height="109" maskUnits="userSpaceOnUse" width="62" x="6" y="6"><path d="m67.725 6h-60.782v108.737h60.78v-108.737z" fill="#fff"/></mask><path clip-rule="evenodd" d="m42.13 61.203-15.759-15.667c-1.4765 1.9716-2.2759 4.3678-2.279 6.831 0 6.184 5.034 11.207 11.204 11.207 2.563 0 4.939-.858 6.834-2.371z" fill="#28b2fa" fill-rule="evenodd"/><g mask="url(#a)"><path clip-rule="evenodd" d="m23.226 25.551c9.542-9.37 22.044-14.46 35.452-14.46h.084c.148 0 .296.008.442.011v50.9l-35.978-36.45zm35.355-19.55201c-15.561 0-30.043 6.37001-40.66 17.72501l-1.714 1.828 42.998 43.64v7.825l-.17.171-11.062-11.271c-2.5978 1.753-5.5708 2.8716-8.6798 3.2659s-6.2671.0531-9.2202-.9959c-10.44-3.82-15.842-15.366-12.059-25.82.537-1.635 1.346-3.093 2.244-4.453l-4.766-4.821-.9 1.546c-4.99662 8.2559-7.64095 17.7208-7.647 27.371-.087 29.007 23.299 52.725 51.996 52.725l8.784.002v-108.73001l-9.144-.007z" fill="#28b2fa" fill-rule="evenodd"/></g><g clip-rule="evenodd" fill="#28b2fa" fill-rule="evenodd"><path d="m111.8 61.572c0-24.307-19.778-44.082-44.092-44.095v5.276c21.404.011 38.816 17.419 38.816 38.818 0 21.394-17.412 38.804-38.816 38.815v5.276c24.314-.013 44.093-19.788 44.093-44.09"/><path d="m77.688 60.677-2.103 12.918h10.297l-2.1-12.918c2.342-1.123 3.968-3.482 3.968-6.223 0-3.816-3.14-6.914-7.014-6.914-3.873 0-7.015 3.098-7.015 6.914-.004 2.744 1.62 5.1 3.967 6.223zm-2.461-29.245c2.58.657 3.574-3.195.995-3.858-2.578-.66-3.572 3.194-.995 3.857zm11.256 5.59c2.014 1.688 4.548-1.328 2.534-3.015-2.014-1.686-4.546 1.33-2.534 3.015zm7.51 11.39c1.16 2.378 4.709.63 3.548-1.748-1.157-2.37-4.708-.626-3.548 1.748zm-18.766 43.297c2.58-.661 3.574 3.195.995 3.856-2.578.661-3.572-3.193-.995-3.856zm11.256-7.597c2.014-1.687 4.548 1.33 2.534 3.015-2.014 1.688-4.546-1.329-2.534-3.014zm7.51-9.386c1.16-2.376 4.709-.629 3.548 1.75-1.157 2.37-4.708.625-3.548-1.75zm3.778-13.157c0 2.673 4.009 2.673 4.009 0 0-2.671-4.009-2.671-4.009 0z"/></g></svg>