<?xml version="1.0" encoding="UTF-8"?>
<svg version="1.1" xmlns="http://www.w3.org/2000/svg" xmlns:xlink="http://www.w3.org/1999/xlink">
    <!-- Generator: Sketch 50.2 (55047) - http://www.bohemiancoding.com/sketch -->
    <title>Safe</title>
    <defs>
        <polygon id="path-1" points="42.8630398 0.381140303 0.617836588 0.381140303 0.617836588 75.9587408 42.8630398 75.9587408 42.8630398 0.381140303"></polygon>
        <linearGradient x1="50%" y1="100%" x2="50%" y2="4.48626894%" id="linearGradient-3">
            <stop stop-color="#34AAFD" offset="0%"></stop>
            <stop stop-color="#00CFEE" offset="100%"></stop>
        </linearGradient>
    </defs>
    <g id="Browser-extension" stroke="none" stroke-width="1" fill="none" fill-rule="evenodd">
        <g id="0.-Post-install" transform="translate(-675.000000, -125.000000)">
            <g id="#logo" transform="translate(545.000000, 125.000000)">
                <g id="gnosis_safe_logo_2018" transform="translate(130.000000, 0.000000)">
                    <g>
                        <g id="face" transform="translate(18.000000, 0.000000)">
                            <path d="M25.1835578,38.7497342 L14.2301226,27.8603599 C13.2428249,29.1860845 12.6463959,30.8318465 12.6463959,32.6082567 C12.6463959,36.9064808 16.1449739,40.3975218 20.4333901,40.3975218 C22.2145764,40.3975218 23.8661482,39.8020092 25.1835578,38.7497342" id="Fill-10" fill="#28B2FA"></path>
                            <g id="Group-17" transform="translate(0.109234, 0.000000)">
                                <mask id="mask-2" fill="white">
                                    <use xlink:href="#path-1"></use>
                                </mask>
                                <g id="Clip-16"></g>
                                <path d="M11.9349757,13.9696165 C18.5670106,7.45725733 27.256502,3.91934429 36.5755138,3.91934429 L36.6340515,3.91934429 C36.7367324,3.91934429 36.8394133,3.92516323 36.9411346,3.92710287 L36.9411346,39.3042936 L11.9349757,13.9696165 Z M36.5083394,0.380461427 C25.6922976,0.380461427 15.6266901,4.80770184 8.2470999,12.7001186 L7.05715298,13.9696165 L36.9411346,44.3027596 L36.9411346,49.741525 L36.8230996,49.8608132 L29.134507,42.0265858 C25.5675451,44.4259271 21.0035229,45.1232296 16.6928442,43.6044873 C9.4360872,40.9500827 5.68199657,32.9248002 8.31139542,25.6588889 C8.68469329,24.5222567 9.24703918,23.5087921 9.87080168,22.563215 L6.55814298,19.2124777 L5.93342084,20.2870412 C2.49409037,25.9769907 0.618004694,32.5475392 0.618004694,39.3101126 C0.557547713,59.4717557 16.8118389,75.9568012 36.7578444,75.9568012 L42.8630398,75.9587408 L42.8630398,0.386280363 L36.5083394,0.380461427 Z" id="Fill-15" fill="url(#linearGradient-3)" mask="url(#mask-2)"></path>
                            </g>
                            <path d="M73.4748293,39.0054837 C73.4748293,22.1114547 59.727729,8.36692735 42.8284335,8.35810796 L42.8284335,12.0250138 C57.7050296,12.0328533 69.8069096,24.1320746 69.8069096,39.0054837 C69.8069096,53.8749731 57.7050296,65.9761544 42.8284335,65.9839938 L42.8284335,69.6508997 C59.727729,69.6420803 73.4748293,55.8975529 73.4748293,39.0054837" id="Fill-18" fill="url(#linearGradient-3)"></path>
                            <path d="M50.229187,38.3842381 L48.7677992,47.3626118 L55.9240697,47.3626118 L54.4646514,38.3842381 C56.0924641,37.603468 57.2229716,35.9637543 57.2229716,34.0586366 C57.2229716,31.4065276 55.0407375,29.2533779 52.3474116,29.2533779 C49.6560551,29.2533779 47.4718515,31.4065276 47.4718515,34.0586366 C47.4688972,35.9656845 48.5974352,37.603468 50.229187,38.3842381" id="Fill-20" fill="#28B2FA"></path>
                            <path d="M48.5185662,18.0569212 C50.3117125,18.5141254 51.0027254,15.8367374 49.2104968,15.3758755 C47.4182681,14.9168424 46.7272553,17.5960593 48.5185662,18.0569212" id="Fill-22" fill="#28B2FA"></path>
                            <path d="M56.3422142,21.942662 C57.7418766,23.1162245 59.5030052,21.019737 58.1033428,19.8470794 C56.7036804,18.6753265 54.9434577,20.7709092 56.3422142,21.942662" id="Fill-24" fill="#28B2FA"></path>
                            <path d="M61.5617722,29.8595148 C62.3681828,31.5122381 64.834637,30.2973223 64.0282264,28.6445991 C63.2236319,26.9964363 60.7553615,28.2095279 61.5617722,29.8595148" id="Fill-26" fill="#28B2FA"></path>
                            <path d="M48.5185662,59.9524792 C50.3117125,59.4932102 51.0027254,62.1738041 49.2104968,62.6330731 C47.4182681,63.0923421 46.7272553,60.413578 48.5185662,59.9524792" id="Fill-28" fill="#28B2FA"></path>
                            <path d="M56.3422142,54.6731594 C57.7418766,53.4998556 59.5030052,55.5967856 58.1033428,56.7682801 C56.7036804,57.9415839 54.9434577,55.8446539 56.3422142,54.6731594" id="Fill-30" fill="#28B2FA"></path>
                            <path d="M61.5617722,48.1485098 C62.3681828,46.4973362 64.834637,47.7117831 64.0282264,49.3647802 C63.2236319,51.0123069 60.7553615,49.7996835 61.5617722,48.1485098" id="Fill-32" fill="#28B2FA"></path>
                            <path d="M64.1880616,39.0038132 C64.1880616,40.8620914 66.9740976,40.8620914 66.9740976,39.0038132 C66.9740976,37.1473767 64.1880616,37.1473767 64.1880616,39.0038132" id="Fill-34" fill="#28B2FA"></path>
                        </g>
                    </g>
                </g>
            </g>
        </g>
    </g>
</svg>
