<svg xmlns="http://www.w3.org/2000/svg" viewBox="0 0 23 23.05"><defs><style>.cls-1{fill:#3964df;}</style></defs><title>Asset 1</title><g id="Layer_2" data-name="Layer 2"><g id="Layer_1-2" data-name="Layer 1"><g id="Layer_2-2" data-name="Layer 2"><g id="Layer_1-2-2" data-name="Layer 1-2"><g id="Identity"><g id="Artboard"><path id="Icon-Blue" class="cls-1" d="M0,0H18a5,5,0,0,1,5,5V18.05a5,5,0,0,1-5,5H5a5,5,0,0,1-5-5ZM3.24,2.9V18.13a2,2,0,0,0,2,2H17.78a2,2,0,0,0,2-2V4.9a2,2,0,0,0-2-2Zm3.5,0H10V14.53a2,2,0,0,1-2,2H3.24V13.72h3.5Zm9.5,17.23H13.06V8.5a2,2,0,0,1,2-2h4.72V9.31h-3.5Z"/></g></g></g></g></g></g></svg>