<?xml version="1.0" encoding="UTF-8"?>
<svg width="132px" height="132px" viewBox="0 0 132 132" version="1.1" xmlns="http://www.w3.org/2000/svg" xmlns:xlink="http://www.w3.org/1999/xlink">
    <!-- Generator: Sketch 57.1 (83088) - https://sketch.com -->
    <title>Torus Square - Light</title>
    <desc>Created with Sketch.</desc>
    <defs>
        <rect id="path-1" x="0" y="0" width="110" height="40" rx="2"></rect>
        <filter x="-3.6%" y="-10.0%" width="107.3%" height="125.0%" filterUnits="objectBoundingBox" id="filter-2">
            <feOffset dx="0" dy="2" in="SourceAlpha" result="shadowOffsetOuter1"></feOffset>
            <feGaussianBlur stdDeviation="1" in="shadowOffsetOuter1" result="shadowBlurOuter1"></feGaussianBlur>
            <feColorMatrix values="0 0 0 0 0   0 0 0 0 0   0 0 0 0 0  0 0 0 0.24 0" type="matrix" in="shadowBlurOuter1" result="shadowMatrixOuter1"></feColorMatrix>
            <feOffset dx="0" dy="0" in="SourceAlpha" result="shadowOffsetOuter2"></feOffset>
            <feGaussianBlur stdDeviation="1" in="shadowOffsetOuter2" result="shadowBlurOuter2"></feGaussianBlur>
            <feColorMatrix values="0 0 0 0 0   0 0 0 0 0   0 0 0 0 0  0 0 0 0.12 0" type="matrix" in="shadowBlurOuter2" result="shadowMatrixOuter2"></feColorMatrix>
            <feMerge>
                <feMergeNode in="shadowMatrixOuter1"></feMergeNode>
                <feMergeNode in="shadowMatrixOuter2"></feMergeNode>
            </feMerge>
        </filter>
    </defs>
    <g id="Torus-Square---Light" stroke="none" stroke-width="1" fill="none" fill-rule="evenodd">
        <text id="via" font-family="Roboto-Regular, Roboto" font-size="12" font-weight="normal" fill="#272627">
            <tspan x="37" y="107">via</tspan>
        </text>
        <text id="Sign-in-with:" font-family="Roboto-Regular, Roboto" font-size="12" font-weight="normal" fill="#272627">
            <tspan x="33" y="35">Sign in with:</tspan>
        </text>
        <g id="Group" transform="translate(11.000000, 46.000000)">
            <text id="via" font-family="Roboto-Medium, Roboto" font-size="18" font-weight="400" fill="#272627">
                <tspan x="7" y="27">via</tspan>
            </text>
            <g id="button">
                <g id="button-bg">
                    <use fill="black" fill-opacity="1" filter="url(#filter-2)" xlink:href="#path-1"></use>
                    <use fill="#FFFFFF" fill-rule="evenodd" xlink:href="#path-1"></use>
                </g>
            </g>
            <path d="M28.64,20.2045455 C28.64,19.5663636 28.5827273,18.9527273 28.4763636,18.3636364 L20,18.3636364 L20,21.845 L24.8436364,21.845 C24.635,22.97 24.0009091,23.9231818 23.0477273,24.5613636 L23.0477273,26.8195455 L25.9563636,26.8195455 C27.6581818,25.2527273 28.64,22.9454545 28.64,20.2045455 L28.64,20.2045455 Z" id="Shape" fill="#4285F4"></path>
            <path d="M20,29 C22.43,29 24.4672727,28.1940909 25.9563636,26.8195455 L23.0477273,24.5613636 C22.2418182,25.1013636 21.2109091,25.4204545 20,25.4204545 C17.6559091,25.4204545 15.6718182,23.8372727 14.9640909,21.71 L11.9572727,21.71 L11.9572727,24.0418182 C13.4381818,26.9831818 16.4818182,29 20,29 L20,29 Z" id="Shape" fill="#34A853"></path>
            <path d="M14.9640909,21.71 C14.7840909,21.17 14.6818182,20.5931818 14.6818182,20 C14.6818182,19.4068182 14.7840909,18.83 14.9640909,18.29 L14.9640909,15.9581818 L11.9572727,15.9581818 C11.3477273,17.1731818 11,18.5477273 11,20 C11,21.4522727 11.3477273,22.8268182 11.9572727,24.0418182 L14.9640909,21.71 L14.9640909,21.71 Z" id="Shape" fill="#FBBC05"></path>
            <path d="M20,14.5795455 C21.3213636,14.5795455 22.5077273,15.0336364 23.4404545,15.9254545 L26.0218182,13.3440909 C24.4631818,11.8918182 22.4259091,11 20,11 C16.4818182,11 13.4381818,13.0168182 11.9572727,15.9581818 L14.9640909,18.29 C15.6718182,16.1627273 17.6559091,14.5795455 20,14.5795455 L20,14.5795455 Z" id="Shape" fill="#EA4335"></path>
            <polygon id="Shape" points="11 12 29 12 29 30 11 30"></polygon>
            <text id="Google" font-family="Roboto-Medium, Roboto" font-size="14" font-weight="400" letter-spacing="0.21875" fill="#000000" fill-opacity="0.54">
                <tspan x="50" y="26">Google</tspan>
            </text>
        </g>
        <g id="torus-wordmark-dark" transform="translate(57.000000, 98.000000)" fill="#2B2B2B" fill-rule="nonzero">
            <path d="M17.1571263,4.44 C17.1655965,5.04505292 17.0638521,5.6467734 16.8566211,6.2172 C16.6722771,6.72275454 16.3844215,7.18653801 16.0105263,7.5804 C15.6428135,7.95864822 15.1964825,8.25607302 14.7013579,8.4528 C13.6196113,8.8623741 12.4196624,8.8623741 11.3379158,8.4528 C10.8436914,8.25574228 10.3982328,7.95833927 10.0312105,7.5804 C9.6573153,7.18653801 9.3694597,6.72275454 9.18511579,6.2172 C8.97788475,5.6467734 8.87614033,5.04505292 8.88461053,4.44 C8.87645267,3.83692754 8.97819858,3.2372297 9.18511579,2.6688 C9.3694597,2.16324546 9.6573153,1.69946199 10.0312105,1.3056 C10.3987734,0.927684906 10.8440407,0.629591825 11.3379158,0.4308 C11.8707933,0.218406037 12.4420994,0.11270646 13.0177895,0.12 C13.5943029,0.112956815 14.1665274,0.217370368 14.7013579,0.4272 C15.1971648,0.624356344 15.6436509,0.92311224 16.0105263,1.3032 C16.3841842,1.69814951 16.6719871,2.16266443 16.8566211,2.6688 C17.0635383,3.2372297 17.1652842,3.83692754 17.1571263,4.44 Z M16.5031579,4.44 C16.5127417,3.90031733 16.4294846,3.3628821 16.2568421,2.85 C16.1059823,2.4087 15.8636903,2.00230034 15.5449895,1.656 C15.2374452,1.32869541 14.8587518,1.072457 14.4365684,0.906 C13.5256761,0.560359905 12.5148292,0.560359905 11.6039368,0.906 C11.1823231,1.07348187 10.8038466,1.32957354 10.4955158,1.656 C10.1741394,2.00370989 9.92972297,2.41219929 9.77750526,2.856 C9.60198186,3.36633888 9.51580086,3.90180757 9.52256842,4.44 C9.51414852,4.98095719 9.59993288,5.51938915 9.77627368,6.0324 C9.92955816,6.47321913 10.1739206,6.87875946 10.4942842,7.224 C10.8020552,7.55046607 11.1807366,7.80587639 11.6027053,7.9716 C12.5145034,8.31250918 13.5235387,8.31250918 14.4353368,7.9716 C14.8578654,7.80689008 15.2367635,7.55133355 15.5437579,7.224 C15.8626106,6.87851253 16.1053109,6.47294798 16.2568421,6.0324 C16.4300533,5.51882336 16.5133214,4.98050547 16.5031579,4.44 Z" id="Shape"></path>
            <path d="M24.4382211,8.76 L23.8926316,8.76 C23.8312712,8.76200528 23.7702351,8.7505212 23.7140526,8.7264 C23.6593128,8.69851605 23.613028,8.65714179 23.5798105,8.6064 L20.7348632,5.1012 C20.7040658,5.05831505 20.6694475,5.01815955 20.6314105,4.9812 C20.5954623,4.94885572 20.5537152,4.92322944 20.5082526,4.9056 C20.4584646,4.8847875 20.4057307,4.87143633 20.3518421,4.866 C20.2779428,4.85654976 20.2034563,4.85213903 20.1289263,4.8528 L18.9663158,4.8528 L18.9663158,8.76 L18.3209684,8.76 L18.3209684,0.12 L20.5895368,0.12 C21.6084632,0.12 22.3720421,0.3124 22.8802737,0.6972 C23.3885053,1.082 23.6438526,1.6468 23.6463158,2.3916 C23.6501329,2.70123745 23.5902494,3.0084825 23.4702,3.2952 C23.3552941,3.56660645 23.1837633,3.81178859 22.9664842,4.0152 C22.7344298,4.22830375 22.4649429,4.39901946 22.1708842,4.5192 C21.835407,4.65507836 21.4815978,4.74318236 21.1203474,4.7808 C21.224646,4.84394411 21.3160837,4.92530772 21.3900632,5.0208 L24.4382211,8.76 Z M20.4971684,4.3884 C20.8540492,4.3933725 21.2097213,4.34686898 21.5526316,4.2504 C21.8399223,4.17140513 22.1082574,4.03761866 22.3420737,3.8568 C22.5532085,3.69125851 22.721874,3.48008071 22.8347053,3.24 C22.9503065,2.98419018 23.0078599,2.7070766 23.0034316,2.4276 C23.0034316,1.8132 22.7981684,1.3576 22.3876421,1.0608 C21.9771158,0.764 21.3781579,0.6152 20.5907684,0.6144 L18.9663158,0.6144 L18.9663158,4.3884 L20.4971684,4.3884 Z" id="Shape"></path>
            <path d="M28.7943158,8.2164 C29.1831869,8.22332565 29.5692119,8.15055327 29.9273684,8.0028 C30.2496569,7.86648052 30.5378683,7.66384701 30.7722316,7.4088 C31.0084162,7.14745156 31.1884842,6.84265673 31.3018105,6.5124 C31.4250687,6.1539824 31.4858463,5.77798106 31.4816211,5.4 L31.4816211,0.12 L32.1134211,0.12 L32.1134211,5.4 C32.1174388,5.84971085 32.0398893,6.29657745 31.8843474,6.72 C31.7394387,7.11525507 31.5150117,7.47834924 31.2242211,7.788 C30.9319801,8.09747687 30.575569,8.34289907 30.1786105,8.508 C29.28984,8.85365909 28.2987916,8.85365909 27.4100211,8.508 C27.0128779,8.34322147 26.6564012,8.09775413 26.3644105,7.788 C26.0731914,7.47866123 25.8487095,7.1154781 25.7042842,6.72 C25.5487423,6.29657745 25.4711927,5.84971085 25.4752105,5.4 L25.4752105,0.12 L26.1094737,0.12 L26.1094737,5.3928 C26.1059041,5.77131886 26.1675167,6.14774046 26.2917474,6.5064 C26.4051492,6.83610877 26.5842838,7.1407407 26.8188632,7.4028 C27.0511879,7.65996656 27.3382364,7.86471639 27.6600316,8.0028 C28.0182181,8.15183694 28.4049289,8.22465946 28.7943158,8.2164 L28.7943158,8.2164 Z" id="Path"></path>
            <path d="M38.2109684,1.242 C38.1837984,1.3039691 38.121255,1.34412321 38.0520947,1.344 C37.972628,1.33111247 37.9000637,1.29216191 37.8464211,1.2336 C37.7394979,1.14535183 37.6258676,1.0651223 37.5065053,0.9936 C37.3378882,0.8913177 37.1577031,0.808367301 36.9695368,0.7464 C36.4401298,0.587269825 35.8731838,0.591461091 35.3463158,0.7584 C35.1228235,0.837097198 34.9182719,0.959621787 34.7453053,1.1184 C34.5854636,1.26623487 34.4595463,1.44536034 34.3758316,1.644 C34.2930215,1.84291153 34.2511745,2.05575141 34.2526737,2.2704 C34.2421997,2.51980726 34.3068446,2.7667511 34.4386421,2.9808 C34.5669059,3.17236116 34.7346714,3.335825 34.9312737,3.4608 C35.1487749,3.5979475 35.3823955,3.70914388 35.6271158,3.792 C35.8857474,3.8808 36.153,3.9696 36.4264105,4.0572 C36.6998211,4.1448 36.9670737,4.242 37.2257053,4.3464 C37.4754332,4.44672084 37.7096248,4.5804019 37.9215474,4.7436 C38.1259493,4.90407585 38.2937356,5.10434384 38.4141789,5.3316 C38.5467914,5.60247377 38.6105756,5.90045811 38.6001474,6.2004 C38.6033577,6.54182376 38.5411232,6.88083095 38.4166421,7.2 C38.2961321,7.5056492 38.1110981,7.78323782 37.8735158,8.0148 C37.6250014,8.25275591 37.3290852,8.4385768 37.0040211,8.5608 C36.6281153,8.699497 36.2285204,8.76710359 35.8266316,8.76 C35.3172946,8.77322245 34.8116511,8.6722234 34.3487368,8.4648 C33.9361111,8.2671996 33.5677556,7.99189896 33.2649474,7.6548 L33.4361368,7.3932 C33.4752708,7.33838881 33.5388237,7.30497692 33.6073263,7.3032 C33.6614351,7.31120251 33.7112677,7.33653545 33.7489579,7.3752 L33.9570947,7.5504 C34.0383789,7.6212 34.1369053,7.6968 34.2514421,7.7784 C34.376159,7.86642182 34.5093897,7.94238142 34.6492421,8.0052 C35.0219932,8.17282567 35.4284416,8.25727854 35.8389474,8.2524 C36.1526589,8.25765802 36.4646346,8.20597798 36.7589368,8.1 C37.0128417,8.00645282 37.2445614,7.86355527 37.44,7.68 C37.6259519,7.50412245 37.7708662,7.29130145 37.8648947,7.056 C37.9645436,6.81001216 38.0147176,6.54764903 38.0126842,6.2832 C38.0231646,6.0249011 37.9582536,5.76900188 37.8254842,5.5452 C37.6988948,5.35232105 37.5308073,5.18854357 37.3328526,5.0652 C37.1155378,4.93005137 36.8823254,4.82086691 36.6382421,4.74 C36.3783789,4.6524 36.1123579,4.5672 35.8377158,4.4832 C35.5630737,4.3992 35.2982842,4.3068 35.0384211,4.2024 C34.7877997,4.10435979 34.5533427,3.97093156 34.3425789,3.8064 C34.1363443,3.64290843 33.9683778,3.43833387 33.8499474,3.2064 C33.7155742,2.92328176 33.6514466,2.61333188 33.6627474,2.3016 C33.6626676,2.02094401 33.7187229,1.74296271 33.8277789,1.4832 C33.9382353,1.22156704 34.103022,0.985014644 34.3117895,0.7884 C34.5394668,0.57931707 34.8073458,0.416185617 35.1,0.3084 C35.4411522,0.179673277 35.8044283,0.115723982 36.1702421,0.12 C36.5837625,0.113741877 36.9946943,0.18461548 37.3808842,0.3288 C37.7480316,0.474433772 38.0804788,0.692152426 38.3575263,0.9684 L38.2109684,1.242 Z" id="Path"></path>
            <rect id="Rectangle" x="0" y="0.12" width="4.92508421" height="2.6052"></rect>
            <rect id="Rectangle" x="2.25132632" y="0.1236" width="2.67375789" height="8.6364"></rect>
            <ellipse id="Oval" cx="6.92393684" cy="1.422" rx="1.33626316" ry="1.302"></ellipse>
        </g>
    </g>
</svg>