<?xml version="1.0" encoding="UTF-8"?>
<svg width="132px" height="132px" viewBox="0 0 132 132" version="1.1" xmlns="http://www.w3.org/2000/svg" xmlns:xlink="http://www.w3.org/1999/xlink">
    <!-- Generator: Sketch 57.1 (83088) - https://sketch.com -->
    <title>Torus Square - Light (Expanded)</title>
    <desc>Created with Sketch.</desc>
    <g id="Torus-Square---Light-(Expanded)" stroke="none" stroke-width="1" fill="none" fill-rule="evenodd">
        <rect fill="#FFFFFF" x="0" y="0" width="132" height="132"></rect>
        <g id="Group" transform="translate(8.000000, 8.000000)">
            <path d="M114.3072,59.6454545 C114.3072,55.5100364 113.936073,51.5336727 113.246836,47.7163636 L58.32,47.7163636 L58.32,70.2756 L89.7067636,70.2756 C88.3548,77.5656 84.2458909,83.7422182 78.0692727,87.8776364 L78.0692727,102.510655 L96.9172364,102.510655 C107.945018,92.3576727 114.3072,77.4065455 114.3072,59.6454545 L114.3072,59.6454545 Z" id="Shape" fill="#4285F4"></path>
            <path d="M58.32,116.64 C74.0664,116.64 87.2679273,111.417709 96.9172364,102.510655 L78.0692727,87.8776364 C72.8469818,91.3768364 66.1666909,93.4445455 58.32,93.4445455 C43.1302909,93.4445455 30.2733818,83.1855273 25.6873091,69.4008 L6.20312727,69.4008 L6.20312727,84.5109818 C15.7994182,103.571018 35.5221818,116.64 58.32,116.64 L58.32,116.64 Z" id="Shape" fill="#34A853"></path>
            <path d="M25.6873091,69.4008 C24.5209091,65.9016 23.8581818,62.1638182 23.8581818,58.32 C23.8581818,54.4761818 24.5209091,50.7384 25.6873091,47.2392 L25.6873091,32.1290182 L6.20312727,32.1290182 C2.25327273,40.0022182 -9.9475983e-14,48.9092727 -9.9475983e-14,58.32 C-9.9475983e-14,67.7307273 2.25327273,76.6377818 6.20312727,84.5109818 L25.6873091,69.4008 L25.6873091,69.4008 Z" id="Shape" fill="#FBBC05"></path>
            <path d="M58.32,23.1954545 C66.8824364,23.1954545 74.5700727,26.1379636 80.6141455,31.9169455 L97.3413818,15.1897091 C87.2414182,5.77898182 74.0398909,1.24344979e-14 58.32,1.24344979e-14 C35.5221818,1.24344979e-14 15.7994182,13.0689818 6.20312727,32.1290182 L25.6873091,47.2392 C30.2733818,33.4544727 43.1302909,23.1954545 58.32,23.1954545 L58.32,23.1954545 Z" id="Shape" fill="#EA4335"></path>
            <polygon id="Shape" points="9.23705556e-14 9.23705556e-14 116.64 9.23705556e-14 116.64 116.64 9.23705556e-14 116.64"></polygon>
        </g>
    </g>
</svg>