<?xml version="1.0" encoding="UTF-8"?>
<svg width="512px" height="512px" viewBox="0 0 512 512" version="1.1" xmlns="http://www.w3.org/2000/svg" xmlns:xlink="http://www.w3.org/1999/xlink">
    <!-- Generator: Sketch 52.6 (67491) - http://www.bohemiancoding.com/sketch -->
    <title>walletconnect-circle</title>
    <desc>Created with Sketch.</desc>
    <defs>
        <radialGradient cx="0%" cy="50%" fx="0%" fy="50%" r="100%" id="radialGradient-1">
            <stop stop-color="#5D9DF6" offset="0%"></stop>
            <stop stop-color="#006FFF" offset="100%"></stop>
        </radialGradient>
    </defs>
    <g id="Page-1" stroke="none" stroke-width="1" fill="none" fill-rule="evenodd">
        <g id="walletconnect-circle">
            <path d="M256,0 C397.384896,-2.5971984e-14 512,114.615104 512,256 C512,397.384896 397.384896,512 256,512 C114.615104,512 1.7314656e-14,397.384896 0,256 C-1.7314656e-14,114.615104 114.615104,2.5971984e-14 256,0 Z" id="base" fill="url(#radialGradient-1)"></path>
            <g id="walletconnect" transform="translate(98.000000, 160.000000)" fill="#FFFFFF" fill-rule="nonzero">
                <path d="M64.6917558,37.7088298 C116.224563,-12.5696099 199.77575,-12.5696099 251.308555,37.7088298 L257.510612,43.7599204 C260.087252,46.2738422 260.087252,50.3497152 257.510612,52.8636381 L236.294614,73.563214 C235.006293,74.8201759 232.917514,74.8201759 231.629193,73.563214 L223.094427,65.2361935 C187.143854,30.1606973 128.856458,30.1606973 92.905883,65.2361935 L83.7658548,74.1537454 C82.4775331,75.4107063 80.3887532,75.4107063 79.100434,74.1537454 L57.8844367,53.4541695 C55.3077964,50.9402466 55.3077964,46.8643737 57.8844367,44.3504518 L64.6917558,37.7088298 Z M295.185241,80.5177415 L314.06752,98.9404677 C316.644147,101.454378 316.644162,105.530227 314.067552,108.044154 L228.926054,191.114512 C226.349431,193.628453 222.171872,193.628481 219.595214,191.114578 C219.595204,191.114568 219.595191,191.114555 219.595181,191.114544 L159.166925,132.157093 C158.522765,131.528612 157.478375,131.528612 156.834215,132.157093 C156.834211,132.157097 156.834207,132.1571 156.834203,132.157104 L96.4072347,191.114512 C93.8306206,193.628459 89.6530601,193.628502 87.0763939,191.114604 C87.0763788,191.11459 87.076363,191.114575 87.0763472,191.114558 L1.93247946,108.043095 C-0.644159821,105.529174 -0.644159821,101.4533 1.93247946,98.9393787 L20.8147921,80.5166832 C23.3914314,78.002761 27.5689914,78.002761 30.1456318,80.5166832 L90.5747665,139.474959 C91.2189273,140.103439 92.263316,140.103439 92.9074768,139.474959 C92.9074863,139.47495 92.907495,139.474941 92.9075045,139.474934 L153.333611,80.5166832 C155.910192,78.0027032 160.087753,78.0026089 162.664451,80.5164729 C162.664488,80.5165083 162.664523,80.5165438 162.664558,80.5165792 L223.093614,139.474934 C223.737773,140.103413 224.782163,140.103413 225.426323,139.474934 L285.854402,80.5177415 C288.431042,78.0038184 292.608601,78.0038184 295.185241,80.5177415 Z" id="WalletConnect"></path>
            </g>
        </g>
    </g>
</svg>