<?xml version="1.0" encoding="UTF-8"?>
<svg width="400px" height="246px" viewBox="0 0 400 246" version="1.1" xmlns="http://www.w3.org/2000/svg" xmlns:xlink="http://www.w3.org/1999/xlink">
    <!-- Generator: Sketch 52.6 (67491) - http://www.bohemiancoding.com/sketch -->
    <title>walletconnect</title>
    <desc>Created with Sketch.</desc>
    <g id="Page-1" stroke="none" stroke-width="1" fill="none" fill-rule="evenodd">
        <g id="walletconnect" fill="#3B99FC" fill-rule="nonzero">
            <path d="M81.9180572,48.3416816 C147.133023,-15.5092068 252.867373,-15.5092068 318.082336,48.3416816 L325.931063,56.0262381 C329.191811,59.2187823 329.191811,64.3949197 325.931063,67.5874653 L299.082136,93.8748027 C297.451761,95.4710761 294.808403,95.4710761 293.178028,93.8748027 L282.377249,83.2999388 C236.88166,38.7559632 163.118735,38.7559632 117.623144,83.2999388 L106.056403,94.6247456 C104.426027,96.2210177 101.782668,96.2210177 100.152295,94.6247456 L73.3033687,68.3374081 C70.0426204,65.1448625 70.0426204,59.9687252 73.3033687,56.7761809 L81.9180572,48.3416816 Z M373.608452,102.706675 L397.504048,126.102537 C400.76478,129.295067 400.764799,134.471173 397.504089,137.663724 L289.757195,243.158569 C286.496469,246.351137 281.209752,246.351173 277.948981,243.158652 C277.948968,243.158639 277.948952,243.158623 277.948939,243.158609 L201.476748,168.285847 C200.661561,167.487711 199.339881,167.487711 198.524695,168.285847 C198.524689,168.285852 198.524685,168.285857 198.52468,168.285861 L122.054118,243.158569 C118.793403,246.351145 113.506684,246.351199 110.245903,243.158685 C110.245884,243.158667 110.245864,243.158648 110.245844,243.158627 L2.49595103,137.66238 C-0.764795919,134.469836 -0.764795919,129.293698 2.49595103,126.101154 L26.3915905,102.705331 C29.6523375,99.5127864 34.9390557,99.5127864 38.1998041,102.705331 L114.673107,177.57914 C115.488295,178.377276 116.809973,178.377276 117.625161,177.57914 C117.625173,177.579128 117.625184,177.579117 117.625196,177.579108 L194.094667,102.705331 C197.35534,99.5127129 202.642059,99.5125932 205.902881,102.705064 C205.902927,102.705109 205.902972,102.705154 205.903016,102.705199 L282.376219,177.579108 C283.191405,178.377243 284.513085,178.377243 285.328272,177.579108 L361.800239,102.706675 C365.060987,99.5141292 370.347704,99.5141292 373.608452,102.706675 Z" id="WalletConnect"></path>
        </g>
    </g>
</svg>