<svg width="939" height="938" viewBox="0 0 939 938" fill="none" xmlns="http://www.w3.org/2000/svg">
<path fill-rule="evenodd" clip-rule="evenodd" d="M117.257 109.781C117.257 90.0703 133.219 74.092 152.91 74.092H787.531C807.221 74.092 823.184 90.0703 823.184 109.781L821.744 654.592C821.744 667.353 814.937 679.144 803.891 685.515L486.58 868.529C475.563 874.884 461.998 874.884 450.981 868.529L133.67 685.515C122.624 679.144 115.817 667.353 115.817 654.592L117.257 109.781ZM152.91 31.2656C109.591 31.2656 74.4734 66.418 74.4734 109.781L73.0337 654.592C73.0337 682.667 88.0094 708.606 112.311 722.622L429.621 905.637C453.86 919.616 483.701 919.616 507.94 905.637L825.25 722.622C849.552 708.606 864.527 682.667 864.527 654.592L865.967 109.781C865.967 66.418 830.85 31.2656 787.531 31.2656H152.91ZM441.698 165.523C459.348 155.323 481.093 155.323 498.743 165.523L707.234 286.016C724.884 296.217 735.757 315.067 735.757 335.468V576.455C735.757 596.855 724.884 615.706 707.234 625.906L498.743 746.4C481.093 756.6 459.348 756.6 441.698 746.4L233.207 625.906C215.557 615.706 204.684 596.855 204.684 576.455V335.468C204.684 315.067 215.557 296.217 233.207 286.016L441.698 165.523ZM316.915 566.597H368.518V341.759H316.915V566.597ZM427.805 566.597H529.098C602.042 566.597 652.052 522.272 652.052 454.178C652.052 386.084 602.042 341.759 529.098 341.759H427.805V566.597ZM479.407 523.878V384.478H526.55C570.826 384.478 599.813 411.137 599.813 454.178C599.813 497.218 570.826 523.878 526.55 523.878H479.407Z" fill="url(#paint0_linear)"/>
<defs>
<linearGradient id="paint0_linear" x1="469.5" y1="31.2656" x2="469.5" y2="916.122" gradientUnits="userSpaceOnUse">
<stop stop-color="#08B6E7"/>
<stop offset="1" stop-color="#00E7C7"/>
</linearGradient>
</defs>
</svg>
