<?xml version="1.0" encoding="utf-8"?>
<!-- Generator: Adobe Illustrator 22.0.0, SVG Export Plug-In . SVG Version: 6.00 Build 0)  -->
<svg version="1.1" id="Layer_1" xmlns="http://www.w3.org/2000/svg" xmlns:xlink="http://www.w3.org/1999/xlink" x="0px" y="0px"
	 viewBox="0 0 1025 1025" style="enable-background:new 0 0 1025 1025;" xml:space="preserve">
<style type="text/css">
	.st0{fill:url(#SVGID_1_);}
	.st1{fill:url(#SVGID_2_);}
	.st2{opacity:0.49;fill:url(#SVGID_3_);enable-background:new    ;}
	.st3{opacity:0.49;fill:url(#SVGID_4_);enable-background:new    ;}
	.st4{opacity:0.49;fill:url(#SVGID_5_);enable-background:new    ;}
	.st5{fill:url(#SVGID_6_);}
	.st6{opacity:0.49;fill:url(#SVGID_7_);enable-background:new    ;}
	.st7{opacity:0.49;fill:url(#SVGID_8_);enable-background:new    ;}
	.st8{opacity:0.49;fill:url(#SVGID_9_);enable-background:new    ;}
</style>
<linearGradient id="SVGID_1_" gradientUnits="userSpaceOnUse" x1="512.5" y1="203.8152" x2="512.5" y2="942.9701">
	<stop  offset="0" style="stop-color:#1D2643"/>
	<stop  offset="1" style="stop-color:#12142C"/>
</linearGradient>
<rect class="st0" width="1025" height="1025"/>
<g>
	<g>
		
			<linearGradient id="SVGID_2_" gradientUnits="userSpaceOnUse" x1="314.3497" y1="1088.5222" x2="314.3497" y2="36.2252" gradientTransform="matrix(1 0 0 -1 0 1260)">
			<stop  offset="5.102044e-03" style="stop-color:#00BFE1"/>
			<stop  offset="0.9651" style="stop-color:#2738AB"/>
		</linearGradient>
		<path class="st1" d="M554.8,371.6c-1.1-3-3.6-3.9-4.7-4.2c-1.1-0.3-4.2-0.8-6.8,1.8L529,383.5l-2.4,2.4L413,272.9
			c-20.7-20.7-48.4-32.1-77.8-32.1s-57,11.4-77.7,32.1L95.8,434.8c-20.8,20.8-32.2,48.6-32.1,78C63.6,542.4,75,570.2,95.8,591
			l161.9,161c20.7,20.7,48.3,32.1,77.7,32.1c29.4,0,57-11.4,77.7-32.1c0,0,36.5-36.5,36.8-36.8c4.8-4.8,10.6-11.4,13.8-20
			c2.5-6.9,3.3-14.4,2.3-21.6c-1-7.3-3.7-14.3-7.9-20.2c-1.6-2.3-3.4-4.5-5.5-6.4c-17.9-17.6-47-17.5-64.9,0.3L347.9,687
			c-2.4,2.4-5.4,4.1-8.7,4.8c-3.8,0.8-6.2,0.5-9.4-0.6c-3.2-1.1-5.9-3-8.2-5.3L160.9,525c-2.5-2.5-4.2-5.7-4.9-9
			c-0.9-4.4,0-9,2.2-12.6l0.9-1c1.9-1.9,162.3-162,163.7-163.4c2.6-2.6,5.7-4.2,9.3-4.9c1.1-0.2,2.2-0.3,3.3-0.3
			c4.8,0,9.2,1.8,12.5,5.3l113.2,112.5l-5.7,5.7l-11.1,11.3c-2.6,2.6-2.1,5.7-1.8,6.8c0.3,1.1,1.2,3.6,4.2,4.7L549,492.6
			c4.2-0.1,8.2-1.7,11.2-4.7c3.1-3,4.7-7.1,4.8-11.3L554.8,371.6z"/>
		
			<linearGradient id="SVGID_3_" gradientUnits="userSpaceOnUse" x1="112.8497" y1="719.4542" x2="180.6423" y2="662.7547" gradientTransform="matrix(1 0 0 -1 -0.9371 1259.39)">
			<stop  offset="3.488575e-02" style="stop-color:#1B1464"/>
			<stop  offset="1" style="stop-color:#1B1464;stop-opacity:0"/>
		</linearGradient>
		<path class="st2" d="M159.6,523.6c-4.6-5.2-5.5-14.2-1.4-20.3c0,0-53.2,58.1-27.6,122.3l33.7,33.5l49-81.5L159.6,523.6z"/>
		
			<linearGradient id="SVGID_4_" gradientUnits="userSpaceOnUse" x1="2306.0996" y1="-400.7322" x2="2273.8062" y2="-446.5303" gradientTransform="matrix(-1 0 0 1 2681.0015 1122.093)">
			<stop  offset="3.488575e-02" style="stop-color:#1B1464"/>
			<stop  offset="1" style="stop-color:#1B1464;stop-opacity:0"/>
		</linearGradient>
		<path class="st3" d="M325.4,689.1c60,55.2,126.1,24.5,126.1,24.5s8.7-8,12.2-18.6c-8.9-4.3-73.4-50.5-73.4-50.5l-38.1,38.1
			C338.5,699.2,325.4,689.1,325.4,689.1z"/>
		
			<linearGradient id="SVGID_5_" gradientUnits="userSpaceOnUse" x1="2397.1062" y1="-820.9736" x2="2421.3423" y2="-761.0212" gradientTransform="matrix(-1 0 0 1 2681.0015 1122.093)">
			<stop  offset="3.488575e-02" style="stop-color:#1B1464"/>
			<stop  offset="1" style="stop-color:#1B1464;stop-opacity:0"/>
		</linearGradient>
		<path class="st4" d="M285.8,376.1c0,0,38.4-38.7,38.5-38.5c0,0,10.3-8.2,21.1-0.7c0,0-63.9-52.6-132.2-19.6l-19.9,20L285.8,376.1z
			"/>
	</g>
	<g>
		
			<linearGradient id="SVGID_6_" gradientUnits="userSpaceOnUse" x1="713.1503" y1="1088.5222" x2="713.1503" y2="36.2252" gradientTransform="matrix(1 0 0 -1 0 1260)">
			<stop  offset="5.102044e-03" style="stop-color:#00BFE1"/>
			<stop  offset="0.9651" style="stop-color:#2738AB"/>
		</linearGradient>
		<path class="st5" d="M472.7,653.4c1.1,3,3.6,3.9,4.7,4.2s4.2,0.8,6.8-1.8l14.3-14.3l2.4-2.4L614.5,752
			c20.7,20.7,48.4,32.1,77.8,32.1c29.4,0,57-11.4,77.7-32.1l161.7-161.9c20.8-20.8,32.2-48.6,32.1-78c0.1-29.6-11.3-57.4-32.1-78.2
			l-161.9-161c-20.7-20.7-48.3-32.1-77.7-32.1s-57,11.4-77.7,32.1c0,0-36.5,36.5-36.8,36.8c-4.8,4.8-10.6,11.4-13.8,20
			c-2.5,6.9-3.3,14.4-2.3,21.6c1,7.3,3.7,14.3,7.9,20.2c1.6,2.3,3.4,4.5,5.5,6.4c17.9,17.6,47,17.5,64.9-0.3l39.8-39.7
			c2.4-2.4,5.4-4.1,8.7-4.8c3.8-0.8,6.2-0.5,9.4,0.6s5.9,3,8.2,5.3l160.7,160.7c2.5,2.5,4.2,5.7,4.9,9c0.9,4.4,0,9-2.2,12.6l-0.9,1
			c-1.9,1.9-162.3,162-163.7,163.4c-2.6,2.6-5.7,4.2-9.3,4.9c-1.1,0.2-2.2,0.3-3.3,0.3c-4.8,0-9.2-1.8-12.5-5.3l-113.3-112l5.7-5.7
			l11.1-11.3c2.6-2.6,2.1-5.7,1.8-6.8s-1.2-3.6-4.2-4.7l-102.2-12.5c-4.2,0.1-8.2,1.7-11.2,4.7c-3.1,3-4.7,7.1-4.8,11.3L472.7,653.4
			z"/>
		
			<linearGradient id="SVGID_7_" gradientUnits="userSpaceOnUse" x1="1963.559" y1="-211.6096" x2="2031.3516" y2="-268.3088" gradientTransform="matrix(-1 0 0 1 2879.1301 696.66)">
			<stop  offset="3.488575e-02" style="stop-color:#1B1464"/>
			<stop  offset="1" style="stop-color:#1B1464;stop-opacity:0"/>
		</linearGradient>
		<path class="st6" d="M867.9,501.4c4.6,5.2,5.5,14.2,1.4,20.3c0,0,53.2-58.1,27.6-122.3l-33.7-33.5l-49,81.5L867.9,501.4z"/>
		
			<linearGradient id="SVGID_8_" gradientUnits="userSpaceOnUse" x1="455.4005" y1="530.3093" x2="423.1069" y2="484.5113" gradientTransform="matrix(1 0 0 -1 197.1916 833.9571)">
			<stop  offset="3.488575e-02" style="stop-color:#1B1464"/>
			<stop  offset="1" style="stop-color:#1B1464;stop-opacity:0"/>
		</linearGradient>
		<path class="st7" d="M702.1,335.9c-60-55.2-126.1-24.5-126.1-24.5s-8.7,8-12.2,18.6c8.9,4.3,73.4,50.5,73.4,50.5l38.1-38.1
			C689,325.8,702.1,335.9,702.1,335.9z"/>
		
			<linearGradient id="SVGID_9_" gradientUnits="userSpaceOnUse" x1="546.3253" y1="110.1064" x2="570.5612" y2="170.0589" gradientTransform="matrix(1 0 0 -1 197.1916 833.9571)">
			<stop  offset="3.488575e-02" style="stop-color:#1B1464"/>
			<stop  offset="1" style="stop-color:#1B1464;stop-opacity:0"/>
		</linearGradient>
		<path class="st8" d="M741.6,648.9c0,0-38.4,38.7-38.5,38.5c0,0-10.3,8.2-21.1,0.7c0,0,63.9,52.6,132.2,19.6l19.9-20L741.6,648.9z"
			/>
	</g>
</g>
</svg>
