<svg width="48" height="48" fill="none" xmlns="http://www.w3.org/2000/svg"><path d="M14.536 5.348a6.928 6.928 0 0 1 6.928 0l11.072 6.393a6.928 6.928 0 0 1 3.464 6v12.784a6.928 6.928 0 0 1-3.464 6l-11.072 6.392a6.928 6.928 0 0 1-6.928 0L3.464 36.525a6.928 6.928 0 0 1-3.464-6V17.741a6.928 6.928 0 0 1 3.464-6l11.072-6.393Z" fill="#794CFF"/><path d="M13.868 12.171a4.264 4.264 0 0 1 4.264 0l7.736 4.467A4.263 4.263 0 0 1 28 20.33v8.934c0 1.523-.813 2.93-2.132 3.692l-7.736 4.466a4.264 4.264 0 0 1-4.264 0l-7.736-4.466A4.264 4.264 0 0 1 4 29.263V20.33c0-1.523.813-2.93 2.132-3.692l7.736-4.467Z" fill="#1AC6FF"/><path d="M13.134 19.232a1.731 1.731 0 0 1 1.732 0l4.268 2.464c.536.31.866.881.866 1.5v4.928c0 .62-.33 1.191-.866 1.5l-4.268 2.465c-.536.309-1.196.309-1.732 0l-4.268-2.465a1.732 1.732 0 0 1-.866-1.5v-4.928c0-.619.33-1.19.866-1.5l4.268-2.464Z" fill="#fff"/></svg>