<svg width="48" height="48" fill="none" xmlns="http://www.w3.org/2000/svg"><path d="M14.536 5.348a6.928 6.928 0 0 1 6.928 0l11.072 6.392a6.928 6.928 0 0 1 3.464 6v12.785a6.928 6.928 0 0 1-3.464 6l-11.072 6.392a6.928 6.928 0 0 1-6.928 0L3.464 36.525a6.928 6.928 0 0 1-3.464-6V17.74a6.928 6.928 0 0 1 3.464-6l11.072-6.392Z" fill="#794CFF"/><circle cx="18" cy="24" r="14" fill="#1AC6FF"/><circle cx="18" cy="18" r="5" fill="#fff"/><path d="M12.931 34.054c-2.542-.988-3.237-4.253-1.088-5.934A9.957 9.957 0 0 1 18 26c2.322 0 4.46.792 6.157 2.12 2.149 1.68 1.454 4.946-1.088 5.934-1.572.611-3.281.946-5.069.946-1.788 0-3.497-.335-5.069-.946Z" fill="#fff"/></svg>