<svg width="48" height="48" fill="none" xmlns="http://www.w3.org/2000/svg"><path d="M23.712 14.504a9.5 9.5 0 1 1 0 18.991A13.962 13.962 0 0 0 34 38c7.732 0 14-6.268 14-14s-6.268-14-14-14c-4.067 0-7.73 1.735-10.288 4.504Z" fill="#794CFF"/><path fill-rule="evenodd" clip-rule="evenodd" d="M24 33.5a9.5 9.5 0 1 0 0-19 9.5 9.5 0 0 0 0 19Zm-2.064-4.301c.242.262.616.392.934.392.41 0 .784-.168.99-.43l5.791-8.06c.169-.243.262-.505.262-.71 0-.655-.56-1.16-1.177-1.16a1.2 1.2 0 0 0-.99.524l-4.932 6.844-2.634-2.86a1.2 1.2 0 0 0-.897-.412c-.654 0-1.159.505-1.159 1.178 0 .262.094.617.225.748l3.587 3.946Z" fill="#fff"/><path d="M24.288 14.504a9.5 9.5 0 1 0 0 18.991A13.962 13.962 0 0 1 14 38C6.268 38 0 31.732 0 24s6.268-14 14-14c4.067 0 7.73 1.735 10.288 4.504Z" fill="#1AC6FF"/></svg>