<svg width="48" height="48" fill="none" xmlns="http://www.w3.org/2000/svg"><path d="M19.03 25.485c1.155-.578 1.733-.866 2.342-.963.416-.066.84-.066 1.256 0 .61.097 1.187.385 2.341.963l13.092 6.546c2.03 1.015 3.046 1.522 3.327 2.234a2 2 0 0 1 0 1.47c-.281.712-1.297 1.22-3.327 2.234L24.97 44.515c-1.155.578-1.733.867-2.342.963-.416.066-.84.066-1.256 0-.61-.096-1.187-.385-2.341-.963L5.938 37.97c-2.03-1.015-3.046-1.522-3.327-2.234a2 2 0 0 1 0-1.47c.281-.712 1.297-1.22 3.327-2.234l13.091-6.546Z" fill="#1AC6FF"/><path d="M20.211 12.895a4 4 0 0 1 3.578 0l16.633 8.316c1.474.737 1.474 2.84 0 3.578L23.79 33.106a4 4 0 0 1-3.578 0L3.578 24.789c-1.474-.737-1.474-2.84 0-3.578l16.633-8.316Z" fill="#F4256A"/><path d="M19.03 3.485c1.155-.578 1.733-.866 2.342-.963a4 4 0 0 1 1.256 0c.61.097 1.187.385 2.341.963l13.092 6.545c2.03 1.016 3.046 1.523 3.327 2.235a2 2 0 0 1 0 1.47c-.281.712-1.297 1.22-3.327 2.235L24.97 22.514c-1.155.578-1.733.866-2.342.963-.416.066-.84.066-1.256 0-.61-.097-1.187-.385-2.341-.963L5.938 15.97c-2.03-1.015-3.046-1.522-3.327-2.234a2 2 0 0 1 0-1.47c.281-.712 1.297-1.22 3.327-2.235L19.03 3.486Z" fill="#FF974C"/><path d="m34 18-9.03 4.515c-1.155.578-1.733.866-2.342.963-.416.066-.84.066-1.256 0-.61-.097-1.187-.385-2.341-.963L10 18l10.211-5.105a4 4 0 0 1 3.578 0L34 18ZM32 29l-8.211 4.106a4 4 0 0 1-3.578 0L12 29l7.03-3.515c1.155-.578 1.733-.866 2.342-.963.416-.066.84-.066 1.256 0 .61.097 1.187.385 2.341.963L32 29Z" fill="#fff"/></svg>