<svg width="24" height="24" fill="none" xmlns="http://www.w3.org/2000/svg"><path fill-rule="evenodd" clip-rule="evenodd" d="M11.998 1a11.28 11.28 0 0 0-3.564 21.98c.564.104.77-.244.77-.544 0-.267-.01-.976-.016-1.917-3.137.68-3.799-1.512-3.799-1.512a2.987 2.987 0 0 0-1.252-1.65c-1.024-.7.077-.686.077-.686a2.369 2.369 0 0 1 1.731 1.163 2.404 2.404 0 0 0 3.283.937 2.41 2.41 0 0 1 .716-1.508c-2.507-.285-5.138-1.252-5.138-5.574a4.362 4.362 0 0 1 1.16-3.027 4.06 4.06 0 0 1 .112-2.984s.947-.304 3.1 1.156a10.68 10.68 0 0 1 5.648 0c2.153-1.46 3.099-1.156 3.099-1.156.415.944.456 2.011.112 2.984a4.353 4.353 0 0 1 1.159 3.027c0 4.333-2.637 5.286-5.15 5.565a2.692 2.692 0 0 1 .767 2.089c0 1.507-.014 2.724-.014 3.093 0 .302.203.653.775.543A11.28 11.28 0 0 0 11.998 1Z" fill="#E4E7E7"/></svg>