<svg width="24" height="24" fill="none" xmlns="http://www.w3.org/2000/svg"><path d="M20.748 7.51c.013.194.013.388.013.584 0 5.964-4.54 12.842-12.842 12.842v-.003A12.777 12.777 0 0 1 1 18.909a9.064 9.064 0 0 0 6.68-1.87 4.52 4.52 0 0 1-4.217-3.135 4.5 4.5 0 0 0 2.038-.078 4.514 4.514 0 0 1-3.62-4.424v-.057c.627.35 1.33.544 2.048.565a4.52 4.52 0 0 1-1.397-6.027A12.81 12.81 0 0 0 11.834 8.6a4.518 4.518 0 0 1 7.692-4.117c1.01-.2 1.98-.57 2.866-1.096a4.53 4.53 0 0 1-1.984 2.497A8.977 8.977 0 0 0 23 5.173a9.169 9.169 0 0 1-2.252 2.337Z" fill="#E4E7E7"/></svg>